<svg width="54" height="40" viewBox="0 0 54 40" fill="none" xmlns="http://www.w3.org/2000/svg">
<path d="M34.5 7.45033C34.4913 7.37377 34.4746 7.29835 34.45 7.22533V7.15033C34.4099 7.06464 34.3565 6.98588 34.2917 6.91699L29.2917 1.91699C29.2228 1.85217 29.144 1.79873 29.0583 1.75866C29.0335 1.75513 29.0082 1.75513 28.9833 1.75866C28.8987 1.71011 28.8052 1.67895 28.7083 1.66699H25.3333C24.6703 1.66699 24.0344 1.93038 23.5656 2.39923C23.0967 2.86807 22.8333 3.50395 22.8333 4.16699V5.00033H22C21.337 5.00033 20.7011 5.26372 20.2322 5.73256C19.7634 6.2014 19.5 6.83728 19.5 7.50033V15.8337C19.5 16.4967 19.7634 17.1326 20.2322 17.6014C20.7011 18.0703 21.337 18.3337 22 18.3337H28.6667C29.3297 18.3337 29.9656 18.0703 30.4344 17.6014C30.9033 17.1326 31.1667 16.4967 31.1667 15.8337V15.0003H32C32.663 15.0003 33.2989 14.7369 33.7678 14.2681C34.2366 13.7993 34.5 13.1634 34.5 12.5003V7.50033C34.5 7.50033 34.5 7.50033 34.5 7.45033ZM29.5 4.50866L31.6583 6.66699H30.3333C30.1123 6.66699 29.9004 6.57919 29.7441 6.42291C29.5878 6.26663 29.5 6.05467 29.5 5.83366V4.50866ZM29.5 15.8337C29.5 16.0547 29.4122 16.2666 29.2559 16.4229C29.0996 16.5792 28.8877 16.667 28.6667 16.667H22C21.779 16.667 21.567 16.5792 21.4107 16.4229C21.2545 16.2666 21.1667 16.0547 21.1667 15.8337V7.50033C21.1667 7.27931 21.2545 7.06735 21.4107 6.91107C21.567 6.75479 21.779 6.66699 22 6.66699H22.8333V12.5003C22.8333 13.1634 23.0967 13.7993 23.5656 14.2681C24.0344 14.7369 24.6703 15.0003 25.3333 15.0003H29.5V15.8337ZM32.8333 12.5003C32.8333 12.7213 32.7455 12.9333 32.5893 13.0896C32.433 13.2459 32.221 13.3337 32 13.3337H25.3333C25.1123 13.3337 24.9004 13.2459 24.7441 13.0896C24.5878 12.9333 24.5 12.7213 24.5 12.5003V4.16699C24.5 3.94598 24.5878 3.73402 24.7441 3.57774C24.9004 3.42146 25.1123 3.33366 25.3333 3.33366H27.8333V5.83366C27.8333 6.4967 28.0967 7.13259 28.5656 7.60143C29.0344 8.07027 29.6703 8.33366 30.3333 8.33366H32.8333V12.5003Z" fill="#79747E"/>
<path d="M3.125 38H0.880682V30.7273H3.22443C3.92992 30.7273 4.53362 30.8729 5.03551 31.1641C5.53741 31.4529 5.92211 31.8684 6.18963 32.4105C6.45715 32.9503 6.59091 33.5966 6.59091 34.3494C6.59091 35.107 6.45597 35.7592 6.18608 36.3061C5.91619 36.8506 5.5232 37.2696 5.0071 37.5632C4.491 37.8544 3.86364 38 3.125 38ZM1.76136 37.2188H3.06818C3.66951 37.2188 4.16785 37.1027 4.56321 36.8707C4.95857 36.6387 5.25331 36.3085 5.44744 35.88C5.64157 35.4515 5.73864 34.9413 5.73864 34.3494C5.73864 33.7623 5.64276 33.2569 5.45099 32.8331C5.25923 32.407 4.97277 32.0803 4.59162 31.853C4.21046 31.6233 3.7358 31.5085 3.16761 31.5085H1.76136V37.2188ZM10.1705 38.1136C9.67803 38.1136 9.24598 37.9964 8.87429 37.7621C8.50497 37.5277 8.21615 37.1998 8.00781 36.7784C7.80185 36.357 7.69886 35.8646 7.69886 35.3011C7.69886 34.733 7.80185 34.237 8.00781 33.8132C8.21615 33.3894 8.50497 33.0604 8.87429 32.826C9.24598 32.5916 9.67803 32.4744 10.1705 32.4744C10.6629 32.4744 11.0938 32.5916 11.4631 32.826C11.8348 33.0604 12.1236 33.3894 12.3295 33.8132C12.5379 34.237 12.642 34.733 12.642 35.3011C12.642 35.8646 12.5379 36.357 12.3295 36.7784C12.1236 37.1998 11.8348 37.5277 11.4631 37.7621C11.0938 37.9964 10.6629 38.1136 10.1705 38.1136ZM10.1705 37.3608C10.5445 37.3608 10.8523 37.2649 11.0938 37.0732C11.3352 36.8814 11.514 36.6293 11.63 36.3168C11.746 36.0043 11.804 35.6657 11.804 35.3011C11.804 34.9366 11.746 34.5968 11.63 34.282C11.514 33.9671 11.3352 33.7126 11.0938 33.5185C10.8523 33.3243 10.5445 33.2273 10.1705 33.2273C9.7964 33.2273 9.48864 33.3243 9.24716 33.5185C9.00568 33.7126 8.82694 33.9671 8.71094 34.282C8.59493 34.5968 8.53693 34.9366 8.53693 35.3011C8.53693 35.6657 8.59493 36.0043 8.71094 36.3168C8.82694 36.6293 9.00568 36.8814 9.24716 37.0732C9.48864 37.2649 9.7964 37.3608 10.1705 37.3608ZM16.1373 38.1136C15.6259 38.1136 15.1855 37.9929 14.8162 37.7514C14.4469 37.5099 14.1628 37.1773 13.964 36.7536C13.7651 36.3298 13.6657 35.8456 13.6657 35.3011C13.6657 34.7472 13.7675 34.2583 13.9711 33.8345C14.177 33.4084 14.4635 33.0758 14.8304 32.8366C15.1998 32.5952 15.6306 32.4744 16.123 32.4744C16.5066 32.4744 16.8522 32.5455 17.16 32.6875C17.4677 32.8295 17.7199 33.0284 17.9164 33.2841C18.1129 33.5398 18.2348 33.8381 18.2821 34.179H17.4441C17.3801 33.9304 17.2381 33.7102 17.0179 33.5185C16.8001 33.3243 16.5066 33.2273 16.1373 33.2273C15.8105 33.2273 15.5241 33.3125 15.2779 33.483C15.034 33.651 14.8435 33.889 14.7061 34.1967C14.5712 34.5021 14.5037 34.8608 14.5037 35.2727C14.5037 35.6941 14.57 36.0611 14.7026 36.3736C14.8375 36.6861 15.0269 36.9287 15.2708 37.1016C15.517 37.2744 15.8058 37.3608 16.1373 37.3608C16.3551 37.3608 16.5527 37.3229 16.7303 37.2472C16.9078 37.1714 17.0582 37.0625 17.1813 36.9205C17.3044 36.7784 17.392 36.608 17.4441 36.4091H18.2821C18.2348 36.7311 18.1176 37.0211 17.9306 37.2791C17.7459 37.5348 17.5009 37.7384 17.1955 37.8899C16.8925 38.0391 16.5397 38.1136 16.1373 38.1136ZM22.9448 35.7699V32.5455H23.7828V38H22.9448V37.0767H22.888C22.7601 37.3537 22.5613 37.5893 22.2914 37.7834C22.0215 37.9751 21.6806 38.071 21.2686 38.071C20.9277 38.071 20.6247 37.9964 20.3596 37.8473C20.0944 37.6958 19.8861 37.4685 19.7346 37.1655C19.583 36.8601 19.5073 36.4754 19.5073 36.0114V32.5455H20.3453V35.9545C20.3453 36.3523 20.4566 36.6695 20.6792 36.9062C20.9041 37.143 21.1905 37.2614 21.5385 37.2614C21.7469 37.2614 21.9587 37.2081 22.1742 37.1016C22.392 36.995 22.5743 36.8317 22.7211 36.6115C22.8702 36.3913 22.9448 36.1108 22.9448 35.7699ZM25.3178 38V32.5455H26.1275V33.3977H26.1985C26.3121 33.1065 26.4956 32.8804 26.7489 32.7195C27.0022 32.5561 27.3065 32.4744 27.6616 32.4744C28.0214 32.4744 28.3209 32.5561 28.56 32.7195C28.8015 32.8804 28.9897 33.1065 29.1246 33.3977H29.1815C29.3211 33.116 29.5307 32.8923 29.81 32.7266C30.0894 32.5585 30.4244 32.4744 30.815 32.4744C31.3027 32.4744 31.7016 32.6271 32.0117 32.9325C32.3219 33.2356 32.4769 33.7079 32.4769 34.3494V38H31.6388V34.3494C31.6388 33.947 31.5288 33.6593 31.3086 33.4865C31.0884 33.3137 30.8292 33.2273 30.5309 33.2273C30.1474 33.2273 29.8503 33.3433 29.6396 33.5753C29.4289 33.8049 29.3235 34.0961 29.3235 34.4489V38H28.4712V34.2642C28.4712 33.9541 28.3706 33.7043 28.1694 33.5149C27.9682 33.3232 27.7089 33.2273 27.3917 33.2273C27.1739 33.2273 26.9703 33.2853 26.7809 33.4013C26.5939 33.5173 26.4424 33.6783 26.3263 33.8842C26.2127 34.0878 26.1559 34.3234 26.1559 34.5909V38H25.3178ZM36.2962 38.1136C35.7706 38.1136 35.3172 37.9976 34.9361 37.7656C34.5573 37.5312 34.2649 37.2045 34.0589 36.7855C33.8554 36.3641 33.7536 35.8741 33.7536 35.3153C33.7536 34.7566 33.8554 34.2642 34.0589 33.8381C34.2649 33.4096 34.5514 33.0758 34.9183 32.8366C35.2876 32.5952 35.7185 32.4744 36.2109 32.4744C36.495 32.4744 36.7756 32.5218 37.0526 32.6165C37.3295 32.7112 37.5817 32.8651 37.8089 33.0781C38.0362 33.2888 38.2173 33.5682 38.3523 33.9162C38.4872 34.2642 38.5547 34.6927 38.5547 35.2017V35.5568H34.3501V34.8324H37.7024C37.7024 34.5246 37.6409 34.25 37.5178 34.0085C37.397 33.767 37.2242 33.5765 36.9993 33.4368C36.7768 33.2971 36.514 33.2273 36.2109 33.2273C35.8771 33.2273 35.5883 33.3101 35.3445 33.4759C35.103 33.6392 34.9171 33.8523 34.7869 34.1151C34.6567 34.3778 34.5916 34.6596 34.5916 34.9602V35.4432C34.5916 35.8551 34.6626 36.2043 34.8047 36.4908C34.9491 36.7749 35.1491 36.9915 35.4048 37.1406C35.6605 37.2874 35.9576 37.3608 36.2962 37.3608C36.5163 37.3608 36.7152 37.33 36.8928 37.2685C37.0727 37.2045 37.2277 37.1098 37.358 36.9844C37.4882 36.8565 37.5888 36.6979 37.6598 36.5085L38.4695 36.7358C38.3842 37.0104 38.241 37.2519 38.0398 37.4602C37.8385 37.6662 37.59 37.8272 37.294 37.9432C36.9981 38.0568 36.6655 38.1136 36.2962 38.1136ZM40.6676 34.7188V38H39.8295V32.5455H40.6392V33.3977H40.7102C40.8381 33.1207 41.0322 32.8982 41.2926 32.7301C41.553 32.5597 41.8892 32.4744 42.3011 32.4744C42.6705 32.4744 42.9936 32.5502 43.2706 32.7017C43.5476 32.8509 43.763 33.0781 43.9169 33.3835C44.0708 33.6866 44.1477 34.0701 44.1477 34.5341V38H43.3097V34.5909C43.3097 34.1624 43.1984 33.8286 42.9759 33.5895C42.7533 33.348 42.4479 33.2273 42.0597 33.2273C41.7921 33.2273 41.553 33.2853 41.3423 33.4013C41.134 33.5173 40.9695 33.6866 40.8487 33.9091C40.728 34.1316 40.6676 34.4015 40.6676 34.7188ZM48.0513 32.5455V33.2557H45.2246V32.5455H48.0513ZM46.0485 31.2386H46.8865V36.4375C46.8865 36.6742 46.9209 36.8518 46.9895 36.9702C47.0605 37.0862 47.1505 37.1643 47.2594 37.2045C47.3707 37.2424 47.4879 37.2614 47.611 37.2614C47.7033 37.2614 47.7791 37.2566 47.8382 37.2472C47.8974 37.2353 47.9448 37.2259 47.9803 37.2188L48.1507 37.9716C48.0939 37.9929 48.0146 38.0142 47.9128 38.0355C47.811 38.0592 47.682 38.071 47.5257 38.071C47.289 38.071 47.057 38.0201 46.8297 37.9183C46.6048 37.8165 46.4178 37.6615 46.2686 37.4531C46.1219 37.2448 46.0485 36.982 46.0485 36.6648V31.2386ZM53.0779 33.767L52.3251 33.9801C52.2778 33.8546 52.2079 33.7327 52.1156 33.6143C52.0256 33.4936 51.9025 33.3942 51.7463 33.3161C51.59 33.2379 51.39 33.1989 51.1461 33.1989C50.8123 33.1989 50.5342 33.2758 50.3116 33.4297C50.0914 33.5812 49.9814 33.7741 49.9814 34.0085C49.9814 34.2169 50.0571 34.3814 50.2086 34.5021C50.3601 34.6229 50.5969 34.7235 50.9189 34.804L51.7285 35.0028C52.2162 35.1212 52.5796 35.3023 52.8187 35.5462C53.0578 35.7876 53.1774 36.099 53.1774 36.4801C53.1774 36.7926 53.0874 37.072 52.9075 37.3182C52.7299 37.5644 52.4814 37.7585 52.1618 37.9006C51.8422 38.0426 51.4705 38.1136 51.0467 38.1136C50.4904 38.1136 50.0299 37.9929 49.6653 37.7514C49.3007 37.5099 49.0699 37.1572 48.9728 36.6932L49.7683 36.4943C49.844 36.7879 49.9873 37.008 50.198 37.1548C50.411 37.3016 50.6892 37.375 51.0325 37.375C51.4231 37.375 51.7333 37.2921 51.9629 37.1264C52.1949 36.9583 52.3109 36.7571 52.3109 36.5227C52.3109 36.3333 52.2446 36.1747 52.112 36.0469C51.9795 35.9167 51.7759 35.8196 51.5012 35.7557L50.5922 35.5426C50.0926 35.4242 49.7257 35.2408 49.4913 34.9922C49.2593 34.7412 49.1433 34.4276 49.1433 34.0511C49.1433 33.7434 49.2297 33.4711 49.4025 33.2344C49.5777 32.9976 49.8156 32.8118 50.1163 32.6768C50.4193 32.5419 50.7626 32.4744 51.1461 32.4744C51.6859 32.4744 52.1097 32.5928 52.4174 32.8295C52.7276 33.0663 52.9477 33.3788 53.0779 33.767Z" fill="#79747E"/>
</svg>
