<svg width="24" height="24" viewBox="0 0 24 24" fill="none" xmlns="http://www.w3.org/2000/svg">
<path d="M21.1987 24H2.80123C2.39998 24 2.07373 23.6737 2.07373 23.2725V0.7275C2.07373 0.32625 2.39998 0 2.80123 0H21.1987C21.6 0 21.9262 0.32625 21.9262 0.7275V23.2725C21.9262 23.6737 21.6 24 21.1987 24ZM2.80123 0.7275V23.2725H21.1987V0.7275H2.80123Z" fill="#343E25"/>
<path d="M5.51628 5.60992C5.44434 5.61051 5.37385 5.58966 5.3138 5.55004C5.25375 5.51042 5.20686 5.45381 5.17911 5.38744C5.15135 5.32107 5.14399 5.24794 5.15795 5.17736C5.17192 5.10679 5.20658 5.04197 5.25753 4.99117L7.05003 3.19867C7.19253 3.05617 7.42128 3.05617 7.56378 3.19867C7.70628 3.34117 7.70628 3.56992 7.56378 3.71242L5.77128 5.50492C5.70335 5.57204 5.61176 5.60975 5.51628 5.60992Z" fill="#343E25"/>
<path d="M7.30872 5.60992C7.21497 5.60992 7.12122 5.57617 7.04997 5.50492L5.25747 3.71242C5.22362 3.67876 5.19675 3.63873 5.17842 3.59465C5.16008 3.55056 5.15064 3.50329 5.15064 3.45555C5.15064 3.4078 5.16008 3.36053 5.17842 3.31645C5.19675 3.27236 5.22362 3.23234 5.25747 3.19867C5.39997 3.05617 5.62872 3.05617 5.77122 3.19867L7.56372 4.99117C7.61444 5.04175 7.64902 5.10622 7.6631 5.17644C7.67719 5.24666 7.67014 5.31948 7.64285 5.3857C7.61556 5.45192 7.56925 5.50856 7.50978 5.54847C7.45031 5.58838 7.38034 5.60976 7.30872 5.60992ZM5.96247 9.49492C5.86872 9.49492 5.77497 9.46117 5.70372 9.38992L4.81122 8.49742C4.77737 8.46376 4.7505 8.42373 4.73217 8.37965C4.71383 8.33556 4.70439 8.28829 4.70439 8.24055C4.70439 8.1928 4.71383 8.14553 4.73217 8.10145C4.7505 8.05736 4.77737 8.01734 4.81122 7.98367C4.95372 7.84117 5.18247 7.84117 5.32497 7.98367L5.95872 8.61742L7.49622 7.07992C7.63872 6.93742 7.86747 6.93742 8.00997 7.07992C8.15247 7.22242 8.15247 7.45117 8.00997 7.59367L6.21747 9.38617C6.14997 9.45742 6.05622 9.49492 5.96247 9.49492ZM6.41247 13.3987C5.70747 13.3987 5.13372 12.8249 5.13372 12.1199C5.13372 11.4149 5.70747 10.8412 6.41247 10.8412C7.11747 10.8412 7.69122 11.4149 7.69122 12.1199C7.69122 12.8249 7.11747 13.3987 6.41247 13.3987ZM6.41247 11.5687C6.10872 11.5687 5.86122 11.8162 5.86122 12.1199C5.86122 12.4237 6.10872 12.6712 6.41247 12.6712C6.71622 12.6712 6.96372 12.4237 6.96372 12.1199C6.96372 11.8162 6.71622 11.5687 6.41247 11.5687ZM7.32747 17.2799H5.49747C5.29497 17.2799 5.13372 17.1187 5.13372 16.9162V15.0862C5.13372 14.8837 5.29497 14.7224 5.49747 14.7224H7.32747C7.52997 14.7224 7.69122 14.8837 7.69122 15.0862V16.9162C7.69122 17.1187 7.52997 17.2799 7.32747 17.2799ZM5.86497 16.5524H6.96747V15.4499H5.86497V16.5524ZM18.93 4.71367H10.0912C9.88872 4.71367 9.72747 4.55242 9.72747 4.34992C9.72747 4.14742 9.88872 3.98617 10.0912 3.98617H18.9262C19.1287 3.98617 19.29 4.14742 19.29 4.34992C19.2937 4.55242 19.1287 4.71367 18.93 4.71367ZM18.93 8.59867H10.0912C9.88872 8.59867 9.72747 8.43742 9.72747 8.23492C9.72747 8.03242 9.88872 7.87117 10.0912 7.87117H18.9262C19.1287 7.87117 19.29 8.03242 19.29 8.23492C19.2937 8.43367 19.1287 8.59867 18.93 8.59867ZM18.93 12.4837H10.0912C9.88872 12.4837 9.72747 12.3224 9.72747 12.1199C9.72747 11.9174 9.88872 11.7562 10.0912 11.7562H18.9262C19.1287 11.7562 19.29 11.9174 19.29 12.1199C19.29 12.3224 19.1287 12.4837 18.93 12.4837ZM18.93 16.3687H10.0912C9.88872 16.3687 9.72747 16.2074 9.72747 16.0049C9.72747 15.8024 9.88872 15.6412 10.0912 15.6412H18.9262C19.1287 15.6412 19.29 15.8024 19.29 16.0049C19.29 16.2074 19.1287 16.3687 18.93 16.3687ZM6.54372 22.0649C6.48747 22.0649 6.42747 22.0499 6.37497 22.0237L5.73747 21.6899L5.09997 22.0237C4.97622 22.0874 4.82997 22.0762 4.71747 21.9974C4.66236 21.9575 4.61948 21.903 4.59364 21.8401C4.56781 21.7772 4.56004 21.7083 4.57122 21.6412L4.69122 20.9324L4.17747 20.4299C4.12938 20.3825 4.09521 20.3229 4.07867 20.2574C4.06214 20.1919 4.06389 20.1232 4.08372 20.0587C4.12497 19.9274 4.24122 19.8299 4.37622 19.8112L5.08872 19.7062L5.40747 19.0612C5.46747 18.9374 5.59497 18.8587 5.73372 18.8587C5.87247 18.8587 5.99997 18.9374 6.05997 19.0612L6.37872 19.7062L7.09122 19.8112C7.22997 19.8299 7.34247 19.9274 7.38372 20.0587C7.42497 20.1899 7.39122 20.3362 7.28997 20.4299L6.77622 20.9324L6.89622 21.6412C6.91872 21.7762 6.86247 21.9149 6.74997 21.9974C6.69372 22.0424 6.61872 22.0649 6.54372 22.0649ZM5.21622 20.4224L5.33997 20.5424C5.42622 20.6249 5.46372 20.7449 5.44497 20.8649L5.41497 21.0374L5.56872 20.9549C5.67372 20.8987 5.80122 20.8987 5.90622 20.9549L6.05997 21.0374L6.02997 20.8649C6.01122 20.7487 6.04872 20.6249 6.13497 20.5424L6.25872 20.4224L6.08622 20.3962C6.0278 20.388 5.97228 20.3656 5.92455 20.331C5.87681 20.2963 5.83833 20.2504 5.81247 20.1974L5.73747 20.0437L5.65872 20.1974C5.63287 20.2504 5.59438 20.2963 5.54665 20.331C5.49891 20.3656 5.44339 20.388 5.38497 20.3962L5.21622 20.4224ZM9.10497 22.0649C9.02997 22.0649 8.95497 22.0424 8.89122 21.9937C8.83611 21.9538 8.79323 21.8993 8.76739 21.8364C8.74156 21.7734 8.73379 21.7045 8.74497 21.6374L8.86497 20.9287L8.35122 20.4262C8.30313 20.3788 8.26896 20.3191 8.25242 20.2537C8.23589 20.1882 8.23764 20.1195 8.25747 20.0549C8.29872 19.9237 8.41497 19.8262 8.54997 19.8074L9.26247 19.7024L9.58122 19.0574C9.70497 18.8099 10.11 18.8099 10.2337 19.0574L10.5525 19.7024L11.265 19.8074C11.4037 19.8262 11.5162 19.9237 11.5575 20.0549C11.5987 20.1862 11.565 20.3324 11.4637 20.4262L10.95 20.9287L11.07 21.6374C11.0925 21.7724 11.0362 21.9112 10.9237 21.9937C10.8112 22.0762 10.665 22.0874 10.5412 22.0199L9.90372 21.6862L9.26622 22.0199C9.22122 22.0499 9.16497 22.0649 9.10497 22.0649ZM9.91122 20.9137C9.96747 20.9137 10.0275 20.9287 10.08 20.9549L10.2337 21.0374L10.2037 20.8649C10.185 20.7487 10.2225 20.6249 10.3087 20.5424L10.4325 20.4224L10.26 20.3962C10.2016 20.388 10.146 20.3656 10.0983 20.331C10.0506 20.2963 10.0121 20.2504 9.98622 20.1974L9.90747 20.0437L9.83247 20.1974C9.80662 20.2504 9.76813 20.2963 9.7204 20.331C9.67266 20.3656 9.61714 20.388 9.55872 20.3962L9.38622 20.4224L9.50997 20.5424C9.59622 20.6249 9.63372 20.7449 9.61497 20.8649L9.58497 21.0374L9.73872 20.9549C9.79497 20.9287 9.85497 20.9137 9.91122 20.9137ZM13.2825 22.0649C13.2075 22.0649 13.1325 22.0424 13.0687 21.9937C13.0136 21.9538 12.9707 21.8993 12.9449 21.8364C12.9191 21.7734 12.9113 21.7045 12.9225 21.6374L13.0425 20.9287L12.5287 20.4262C12.4806 20.3788 12.4465 20.3191 12.4299 20.2537C12.4134 20.1882 12.4151 20.1195 12.435 20.0549C12.4762 19.9237 12.5925 19.8262 12.7275 19.8074L13.44 19.7024L13.7587 19.0574C13.8825 18.8099 14.2875 18.8099 14.4112 19.0574L14.73 19.7024L15.4425 19.8074C15.5812 19.8262 15.6937 19.9237 15.735 20.0549C15.7762 20.1862 15.7425 20.3324 15.6412 20.4262L15.1275 20.9287L15.2475 21.6374C15.27 21.7724 15.2137 21.9112 15.1012 21.9937C14.9887 22.0762 14.8425 22.0874 14.7187 22.0199L14.0812 21.6862L13.4437 22.0199C13.3987 22.0499 13.3387 22.0649 13.2825 22.0649ZM14.0887 20.9137C14.145 20.9137 14.205 20.9287 14.2575 20.9549L14.4112 21.0374L14.3812 20.8649C14.3625 20.7487 14.4 20.6249 14.4862 20.5424L14.61 20.4224L14.4375 20.3999C14.3791 20.3918 14.3235 20.3694 14.2758 20.3347C14.2281 20.3 14.1896 20.2542 14.1637 20.2012L14.085 20.0474L14.01 20.2012C13.9841 20.2542 13.9456 20.3 13.8979 20.3347C13.8502 20.3694 13.7946 20.3918 13.7362 20.3999L13.5637 20.4262L13.6875 20.5462C13.7737 20.6287 13.8112 20.7487 13.7925 20.8687L13.7625 21.0412L13.9162 20.9587C13.9725 20.9287 14.0287 20.9137 14.0887 20.9137ZM19.0687 22.0649C19.0125 22.0649 18.9525 22.0499 18.9 22.0237L18.2625 21.6899L17.625 22.0237C17.5012 22.0874 17.355 22.0762 17.2425 21.9974C17.1874 21.9575 17.1445 21.903 17.1186 21.8401C17.0928 21.7772 17.085 21.7083 17.0962 21.6412L17.2162 20.9324L16.7025 20.4299C16.6544 20.3825 16.6202 20.3229 16.6037 20.2574C16.5871 20.1919 16.5889 20.1232 16.6087 20.0587C16.65 19.9274 16.7662 19.8299 16.9012 19.8112L17.6137 19.7062L17.9325 19.0612C18.0562 18.8137 18.4612 18.8137 18.585 19.0612L18.9037 19.7062L19.6162 19.8112C19.755 19.8299 19.8675 19.9274 19.9087 20.0587C19.95 20.1899 19.9162 20.3362 19.815 20.4299L19.3012 20.9324L19.4212 21.6412C19.4437 21.7762 19.3875 21.9149 19.275 21.9974C19.2187 22.0424 19.1437 22.0649 19.0687 22.0649ZM18.2625 20.9137C18.3187 20.9137 18.3787 20.9287 18.4312 20.9549L18.585 21.0374L18.555 20.8649C18.5362 20.7487 18.5737 20.6249 18.66 20.5424L18.7837 20.4224L18.6112 20.3962C18.5528 20.388 18.4973 20.3656 18.4495 20.331C18.4018 20.2963 18.3633 20.2504 18.3375 20.1974L18.2587 20.0437L18.1837 20.1974C18.1579 20.2504 18.1194 20.2963 18.0716 20.331C18.0239 20.3656 17.9684 20.388 17.91 20.3962L17.7375 20.4224L17.8612 20.5424C17.9475 20.6249 17.985 20.7449 17.9662 20.8649L17.9362 21.0374L18.09 20.9549C18.1462 20.9287 18.2062 20.9137 18.2625 20.9137Z" fill="#343E25"/>
</svg>
