<svg width="189" height="189" viewBox="0 0 189 189" fill="none" xmlns="http://www.w3.org/2000/svg">
<g clip-path="url(#clip0_44_1330)">
<path d="M40.9746 186.047C40.9746 186.047 37.1718 152.71 69.93 148.99H83.9475V142.533C83.9475 142.533 93.8079 146.768 103.792 143.005L104.107 148.99H120.487C120.487 148.99 149.012 151.838 147.287 186.047H40.9746Z" fill="white"/>
<path d="M89.7012 166.482L94.1309 161.684L98.9297 166.482L96.3457 169.066L100.406 185.678H87.8555L92.2852 169.066L89.7012 166.482Z" fill="#2AA241"/>
<path d="M147.015 186.632H41.9881H39.9512L40.4597 177.947C41.4524 160.987 54.8144 148.045 70.1054 148.045H83.9475V149.777H71.0336C56.2963 149.777 43.4181 162.235 42.4613 178.559L42.1081 184.585H146.737L146.541 178.559C145.585 162.235 132.706 149.777 117.969 149.777H104.895V148.045H118.804C134.095 148.045 147.457 160.987 148.45 177.947L148.958 186.632H147.015Z" fill="#2AA241"/>
<path d="M85.05 141.804V151.518C85.05 156.559 89.1399 160.645 94.185 160.645C99.2301 160.645 103.32 156.559 103.32 151.518V142.004C103.85 141.843 104.375 141.668 104.895 141.478V151.584C104.895 157.545 100.065 162.378 94.1063 162.378C88.1478 162.378 83.3175 157.545 83.3175 151.584V141.179C83.8881 141.405 84.4661 141.612 85.05 141.804ZM122.451 168.878L117.99 178.183C117.764 178.653 117.2 178.852 116.729 178.626C116.259 178.401 116.06 177.836 116.286 177.366L120.594 168.379L117.228 162.548C116.967 162.096 117.122 161.518 117.574 161.257C118.026 160.996 118.604 161.151 118.865 161.603L122.487 167.877C122.674 168.201 122.647 168.588 122.451 168.878ZM65.8408 168.887L70.3259 178.221C70.5528 178.693 71.1202 178.892 71.5934 178.665C72.0665 178.439 72.2662 177.873 72.0393 177.401L67.7076 168.387L71.0923 162.538C71.3546 162.084 71.1989 161.504 70.7445 161.243C70.2901 160.981 69.7091 161.136 69.4467 161.59L65.8048 167.883C65.6171 168.208 65.6443 168.596 65.8408 168.887Z" fill="#2AA241"/>
<path d="M83.3175 147.73H85.05V186.002H83.3175V147.73ZM103.32 148.045H105.053V186.317H103.32V148.045Z" fill="#2AA241"/>
<path fill-rule="evenodd" clip-rule="evenodd" d="M99.9261 185.933L95.4617 169.271L96.39 168.993L97.0055 168.339L101.727 185.961L99.9261 185.933ZM87.3331 185.736L91.9939 168.42L92.295 168.678L93.24 169.308L93.5516 169.339L89.1306 185.764L87.3331 185.736Z" fill="#2AA241"/>
<path fill-rule="evenodd" clip-rule="evenodd" d="M104.89 171.203L103.665 172.428L98.8978 167.661C97.9779 169.122 96.354 170.095 94.5 170.095C92.5711 170.095 90.8913 169.042 89.9947 167.482L85.0188 172.457L83.7904 171.229L93.587 161.433L94.3532 160.722L95.1193 161.433L104.89 171.203ZM90.9583 166.518C91.5864 167.797 92.9002 168.678 94.4212 168.678C95.9081 168.678 97.195 167.835 97.8391 166.602L94.3564 163.12L90.9583 166.518Z" fill="#2AA241"/>
<path d="M94.5026 46.3003C114.447 46.3003 129.619 63.7915 128.807 83.8062L127.706 110.967C124.584 129.408 111.871 142.721 94.6418 144.58C77.835 142.814 64.8724 129.403 61.2996 110.967L60.1979 83.8062C59.3861 63.7915 74.5581 46.3003 94.5026 46.3003Z" fill="white"/>
<path fill-rule="evenodd" clip-rule="evenodd" d="M131.01 82.6537L129.838 111.034C126.516 130.302 112.986 144.212 94.6483 146.155C76.7609 144.309 62.9649 130.297 59.1623 111.034L57.9897 82.6537C57.1257 61.741 73.2733 43.4648 94.5001 43.4648C115.727 43.4648 131.874 61.741 131.01 82.6537ZM94.5026 45.6698C74.5581 45.6698 59.3861 63.1611 60.1979 83.1758L61.2996 110.337C64.8724 128.773 77.835 142.184 94.6418 143.95C111.871 142.091 124.584 128.777 127.706 110.337L128.807 83.1758C129.619 63.1611 114.447 45.6698 94.5026 45.6698Z" fill="#2AA241"/>
<path d="M111.51 120.829C108.647 123.315 102.181 125.68 94.6575 125.68C87.1339 125.68 80.6678 123.315 77.805 120.829C77.805 120.829 77.5121 120.023 77.9418 119.594C78.3795 119.156 79.065 119.251 79.065 119.251C81.9248 121.739 87.1311 123.79 94.6575 123.79C102.184 123.79 107.39 121.739 110.25 119.251C110.25 119.251 110.95 118.991 111.289 119.331C111.944 119.986 111.51 120.829 111.51 120.829ZM89.46 129.46H99.54V131.035H89.46V129.46Z" fill="#2AA241"/>
<path d="M58.2531 86.1255C58.2487 86.1258 57.8663 85.8204 57.1443 85.5931C56.7834 85.4797 56.3349 85.3864 55.8237 85.3634C55.6961 85.3576 55.5647 85.3562 55.4302 85.3601C55.2958 85.3639 55.1582 85.3729 55.0185 85.3878C54.7389 85.4177 54.4502 85.4713 54.1597 85.5549C52.9965 85.8892 51.8099 86.7019 51.113 88.3795C50.7631 89.2183 50.5324 90.2734 50.4714 91.5935C50.4561 91.9236 50.4514 92.2701 50.4581 92.6341C50.4648 92.998 50.4829 93.3793 50.5131 93.7786C50.5734 94.5772 50.6823 95.4483 50.8446 96.3974C50.8411 96.3965 50.6933 99.2656 51.719 102.562C52.6833 105.786 54.9988 109.745 59.2741 110.877C58.7824 102.69 58.7672 94.3488 58.2531 86.1255Z" fill="white"/>
<path d="M58.7406 86.4555C58.7406 86.4555 51.2926 84.1477 51.5547 91.8046C51.5547 91.8046 52.6636 102.907 53.1451 103.931C53.1451 103.931 56.0701 110.395 60.8974 110.682L60.956 112.765C60.956 112.765 52.4715 111.677 50.8327 101.9L49.5393 93.0171C49.5393 93.0171 48.535 81.262 58.2767 84.2508L58.7406 86.4555Z" fill="#2AA241"/>
<path d="M56.2822 101.881C56.2822 101.881 55.8654 102.196 55.5074 102.196C55.1493 102.196 54.7376 101.881 54.7376 101.881L53.9689 94.1351C53.9689 94.1351 55.0294 90.3206 59.5296 92.3365L59.636 94.5512C59.636 94.5512 55.6878 93.151 55.7694 94.8946C55.848 96.5729 56.2822 101.881 56.2822 101.881Z" fill="#2AA241"/>
<path d="M130.607 86.1435C130.611 86.1438 130.995 85.8386 131.721 85.6115C132.083 85.4981 132.533 85.4049 133.047 85.3819C133.175 85.3762 133.307 85.3748 133.442 85.3786C133.577 85.3824 133.715 85.3914 133.856 85.4063C134.136 85.4362 134.426 85.4898 134.718 85.5733C135.886 85.9074 137.078 86.7196 137.778 88.396C138.13 89.2342 138.361 90.2886 138.423 91.6078C138.438 91.9376 138.443 92.284 138.436 92.6477C138.429 93.0114 138.411 93.3924 138.381 93.7914C138.32 94.5895 138.211 95.46 138.048 96.4085C138.051 96.4075 138.2 99.2748 137.17 102.569C136.201 105.79 133.875 109.747 129.581 110.878C130.075 102.696 130.091 94.3612 130.607 86.1435Z" fill="white"/>
<path d="M130.116 86.4732C130.116 86.4732 137.596 84.167 137.333 91.8187C137.333 91.8187 136.219 102.914 135.736 103.936C135.736 103.936 132.798 110.397 127.949 110.683L127.89 112.765C127.89 112.765 136.412 111.678 138.058 101.907L139.357 93.0304C139.357 93.0304 140.366 81.2832 130.582 84.27L130.116 86.4732Z" fill="#2AA241"/>
<path d="M132.585 101.889C132.585 101.889 133.003 102.203 133.363 102.203C133.723 102.203 134.136 101.889 134.136 101.889L134.908 94.1482C134.908 94.1482 133.843 90.3363 129.323 92.3507L129.216 94.564C129.216 94.564 133.182 93.1647 133.1 94.9071C133.021 96.5843 132.585 101.889 132.585 101.889Z" fill="#2AA241"/>
<path fill-rule="evenodd" clip-rule="evenodd" d="M97.4138 101.268C97.5975 101.268 97.7813 101.268 97.965 101.268C99.1047 102.815 99.5684 105.194 100.17 107.253C100.356 107.891 100.176 109.006 100.012 109.458C99.4153 111.11 97.5401 111.08 95.9963 111.82C95.5816 112.019 95.2732 112.362 94.7363 112.45C94.3862 112.142 93.9635 112.081 93.7912 111.584C93.3659 110.998 93.9141 110.632 94.3425 110.403C95.12 109.986 97.5201 109.575 97.8075 108.828C98.1631 108.423 97.9266 107.207 97.8075 106.78C97.5024 105.687 97.3559 104.774 96.9413 103.788C96.6658 103.133 96.1822 102.442 96.4688 101.661C96.7062 101.559 97.2193 101.443 97.4138 101.268Z" fill="#2AA241"/>
<path d="M75.6 89.1401H77.805C79.0228 89.1401 80.01 90.1273 80.01 91.3451C80.01 92.5629 79.0228 93.5501 77.805 93.5501H75.6C74.3822 93.5501 73.395 92.5629 73.395 91.3451C73.395 90.1273 74.3822 89.1401 75.6 89.1401ZM111.51 89.1401H113.715C114.933 89.1401 115.92 90.1273 115.92 91.3451C115.92 92.5629 114.933 93.5501 113.715 93.5501H111.51C110.292 93.5501 109.305 92.5629 109.305 91.3451C109.305 90.1273 110.292 89.1401 111.51 89.1401Z" fill="#2AA241"/>
<path d="M77.0175 99.5352C80.062 99.5352 82.53 99.7098 82.53 103.158C82.53 106.714 80.062 106.78 77.0175 106.78C73.973 106.78 71.505 106.132 71.505 103.158C71.505 99.6827 73.973 99.5352 77.0175 99.5352ZM113.557 99.5352C116.602 99.5352 119.07 99.7098 119.07 103.158C119.07 106.714 116.602 106.78 113.557 106.78C110.513 106.78 108.045 106.132 108.045 103.158C108.045 99.6827 110.513 99.5352 113.557 99.5352Z" fill="#F5F3EF"/>
<path d="M104.587 83.5888C104.587 83.5888 114.017 78.1976 120.753 84.1374L122.535 84.4135C122.535 84.4135 120.253 76.1088 103.635 81.5088L104.098 83.0569M104.467 83.0569C104.467 83.0569 114.06 77.547 120.384 84.5065L123.642 84.4135C123.642 84.4135 119.579 75.5423 102.897 81.1397L104.467 83.426M84.3259 83.62C84.3259 83.62 74.9278 78.2765 68.2141 84.1637L66.4382 84.4375C66.4382 84.4375 68.7128 76.2063 85.2752 81.5585L84.8141 83.0928M84.4462 83.0928C84.4462 83.0928 74.8852 77.6317 68.582 84.5296L65.3345 84.4375C65.3345 84.4375 69.3847 75.6448 86.011 81.1926L84.4462 83.4587" fill="#2AA241"/>
<path d="M61.1434 80.3118C61.1434 80.3118 71.5138 75.054 70.3676 56.9739C70.3676 56.9739 86.9569 75.1509 126.945 69.6101L128.835 86.6201C128.835 86.6201 152.343 43.0615 110.25 33.0701C69.0571 23.2922 68.5822 49.0894 68.5822 49.0894C68.5822 49.0894 55.9497 47.2017 54.8948 59.4969C53.84 71.792 57.645 84.7301 57.645 84.7301L60.795 87.2501L61.1434 80.3118Z" fill="#2AA241"/>
<circle cx="198" cy="208" r="20" fill="#D9D9D9"/>
</g>
<defs>
<clipPath id="clip0_44_1330">
<rect width="189" height="189" fill="white"/>
</clipPath>
</defs>
</svg>
