<svg width="40" height="40" viewBox="0 0 40 40" fill="none" xmlns="http://www.w3.org/2000/svg">
<circle cx="20" cy="20" r="20" fill="#2AA241"/>
<path d="M16.625 12.6875H17.1875V13.25H16.625V12.6875Z" fill="white"/>
<path d="M17.75 12.6875H20V13.25H17.75V12.6875Z" fill="white"/>
<path d="M19.4375 22.8125H18.3125C18.0887 22.8125 17.8741 22.9014 17.7159 23.0596C17.5576 23.2179 17.4688 23.4325 17.4688 23.6562C17.4688 23.88 17.5576 24.0946 17.7159 24.2529C17.8741 24.4111 18.0887 24.5 18.3125 24.5H19.4375C19.6613 24.5 19.8759 24.4111 20.0341 24.2529C20.1924 24.0946 20.2812 23.88 20.2812 23.6562C20.2812 23.4325 20.1924 23.2179 20.0341 23.0596C19.8759 22.9014 19.6613 22.8125 19.4375 22.8125ZM19.4375 23.9375H18.3125C18.2379 23.9375 18.1664 23.9079 18.1136 23.8551C18.0609 23.8024 18.0312 23.7308 18.0312 23.6562C18.0312 23.5817 18.0609 23.5101 18.1136 23.4574C18.1664 23.4046 18.2379 23.375 18.3125 23.375H19.4375C19.5121 23.375 19.5836 23.4046 19.6364 23.4574C19.6891 23.5101 19.7188 23.5817 19.7188 23.6562C19.7188 23.7308 19.6891 23.8024 19.6364 23.8551C19.5836 23.9079 19.5121 23.9375 19.4375 23.9375Z" fill="white"/>
<path d="M12.125 18.8749H12.6875V15.6164L13.0511 15.98L13.4488 15.5823L12.6051 14.7386C12.5523 14.6859 12.4808 14.6562 12.4062 14.6562C12.3317 14.6562 12.2601 14.6859 12.2074 14.7386L11.3636 15.5823L11.7613 15.98L12.125 15.6164V18.8749Z" fill="white"/>
<path d="M25.0625 15.6164V18.8749H25.625V15.6164L25.9886 15.98L26.3863 15.5823L25.5426 14.7386C25.4898 14.6859 25.4183 14.6562 25.3437 14.6562C25.2692 14.6562 25.1976 14.6859 25.1449 14.7386L24.3011 15.5823L24.6988 15.98L25.0625 15.6164Z" fill="white"/>
<path d="M26.75 23.9375C26.4852 23.9364 26.2288 24.0302 26.0272 24.2019C25.9269 24.0356 25.7854 23.898 25.6164 23.8025C25.4475 23.7069 25.2567 23.6565 25.0625 23.6562C24.7977 23.6552 24.5413 23.749 24.3397 23.9206C24.1878 23.6676 23.9422 23.4846 23.6562 23.4116V13.5312C23.6557 13.0093 23.448 12.5089 23.079 12.1398C22.7099 11.7707 22.2095 11.5631 21.6875 11.5625H16.0625C15.5405 11.5631 15.0401 11.7707 14.671 12.1398C14.302 12.5089 14.0943 13.0093 14.0938 13.5312V18.6781C13.915 18.7618 13.7708 18.9049 13.6859 19.0831L12.4091 21.8534C12.2228 22.2594 12.1259 22.7006 12.125 23.1472V28.4375H12.6875V23.1472C12.6884 22.782 12.7681 22.4213 12.9209 22.0897L14.0938 19.5444V23.6562C14.0941 23.8857 14.1351 24.1133 14.2147 24.3284L13.9362 24.8094L14.4228 25.0906L16.1103 22.1684C16.1469 22.1042 16.1958 22.0477 16.2541 22.0024C16.3125 21.957 16.3793 21.9236 16.4506 21.9041C16.5951 21.8671 16.7482 21.8873 16.8781 21.9603C17.0073 22.0355 17.1015 22.1588 17.1399 22.3032C17.1784 22.4477 17.1581 22.6015 17.0834 22.7309L15.8178 24.9219C15.7934 24.9658 15.7808 25.0154 15.7813 25.0657C15.7817 25.116 15.7953 25.1653 15.8206 25.2087L16.4225 26.21C16.5544 26.4281 16.6244 26.678 16.625 26.9328V28.4347H17.1875V26.9328C17.1869 26.5761 17.0897 26.2262 16.9062 25.9203L16.7291 25.625H18.4644C18.3878 25.9137 18.4283 26.2209 18.5769 26.48L19.7891 28.5781L20.2756 28.2969L19.0634 26.1988C19.0071 26.1024 18.9806 25.9914 18.9876 25.8799C18.9945 25.7685 19.0344 25.6616 19.1023 25.5729C19.1702 25.4842 19.2629 25.4177 19.3687 25.3819C19.4744 25.3461 19.5885 25.3426 19.6962 25.3719C19.7679 25.3906 19.8351 25.4236 19.8936 25.4691C19.9521 25.5145 20.0007 25.5714 20.0366 25.6363L20.5991 26.6094C20.6307 26.6628 20.6787 26.7045 20.736 26.7283C20.7933 26.7521 20.8567 26.7568 20.9169 26.7416C20.9768 26.7254 21.0297 26.6899 21.0674 26.6406C21.105 26.5912 21.1253 26.5308 21.125 26.4688V21.125C21.125 20.9758 21.1843 20.8327 21.2898 20.7273C21.3952 20.6218 21.5383 20.5625 21.6875 20.5625C21.8367 20.5625 21.9798 20.6218 22.0852 20.7273C22.1907 20.8327 22.25 20.9758 22.25 21.125V25.625C22.25 25.6996 22.2796 25.7711 22.3324 25.8239C22.3851 25.8766 22.4567 25.9062 22.5312 25.9062C22.6058 25.9062 22.6774 25.8766 22.7301 25.8239C22.7829 25.7711 22.8125 25.6996 22.8125 25.625V24.5C22.8125 24.3508 22.8718 24.2077 22.9773 24.1023C23.0827 23.9968 23.2258 23.9375 23.375 23.9375C23.5242 23.9375 23.6673 23.9968 23.7727 24.1023C23.8782 24.2077 23.9375 24.3508 23.9375 24.5V25.625C23.9375 25.6996 23.9671 25.7711 24.0199 25.8239C24.0726 25.8766 24.1442 25.9062 24.2188 25.9062C24.2933 25.9062 24.3649 25.8766 24.4176 25.8239C24.4704 25.7711 24.5 25.6996 24.5 25.625V24.7812C24.5 24.6321 24.5593 24.489 24.6648 24.3835C24.7702 24.278 24.9133 24.2188 25.0625 24.2188C25.2117 24.2188 25.3548 24.278 25.4602 24.3835C25.5657 24.489 25.625 24.6321 25.625 24.7812V25.625C25.625 25.6996 25.6546 25.7711 25.7074 25.8239C25.7601 25.8766 25.8317 25.9062 25.9062 25.9062C25.9808 25.9062 26.0524 25.8766 26.1051 25.8239C26.1579 25.7711 26.1875 25.6996 26.1875 25.625V25.0625C26.1875 24.9133 26.2468 24.7702 26.3523 24.6648C26.4577 24.5593 26.6008 24.5 26.75 24.5C26.8992 24.5 27.0423 24.5593 27.1477 24.6648C27.2532 24.7702 27.3125 24.9133 27.3125 25.0625V28.4375H27.875V25.0625C27.875 24.7641 27.7565 24.478 27.5455 24.267C27.3345 24.056 27.0484 23.9375 26.75 23.9375ZM23.0938 23.4116C22.9952 23.437 22.9006 23.4758 22.8125 23.5269V21.125C22.8125 20.8266 22.694 20.5405 22.483 20.3295C22.272 20.1185 21.9859 20 21.6875 20C21.3891 20 21.103 20.1185 20.892 20.3295C20.681 20.5405 20.5625 20.8266 20.5625 21.125V25.0625H20.2784C20.1518 24.954 20.003 24.8743 19.8425 24.8291C19.5538 24.7527 19.2466 24.7931 18.9875 24.9416C18.9288 24.977 18.8733 25.0175 18.8216 25.0625H16.3916L16.3888 25.0597L17.5728 23.0122C17.722 22.7537 17.7624 22.4466 17.6851 22.1583C17.6079 21.8701 17.4192 21.6243 17.1608 21.4752C16.9023 21.326 16.5952 21.2856 16.3069 21.3628C16.0187 21.4401 15.7729 21.6287 15.6238 21.8872L14.6562 23.5606V13.5312C14.6562 13.1583 14.8044 12.8006 15.0681 12.5369C15.3319 12.2732 15.6895 12.125 16.0625 12.125H21.6875C22.0605 12.125 22.4181 12.2732 22.6819 12.5369C22.9456 12.8006 23.0938 13.1583 23.0938 13.5312V23.4116Z" fill="white"/>
<path d="M18.5938 16.9062H19.1562C19.2308 16.9062 19.3024 16.9359 19.3551 16.9886C19.4079 17.0414 19.4375 17.1129 19.4375 17.1875H20C20 16.9637 19.9111 16.7491 19.7529 16.5909C19.5946 16.4326 19.38 16.3438 19.1562 16.3438V16.0625H18.5938V16.3438C18.37 16.3438 18.1554 16.4326 17.9971 16.5909C17.8389 16.7491 17.75 16.9637 17.75 17.1875C17.75 17.4113 17.8389 17.6259 17.9971 17.7841C18.1554 17.9424 18.37 18.0312 18.5938 18.0312H19.1562C19.2308 18.0312 19.3024 18.0609 19.3551 18.1136C19.4079 18.1664 19.4375 18.2379 19.4375 18.3125C19.4375 18.3871 19.4079 18.4586 19.3551 18.5114C19.3024 18.5641 19.2308 18.5938 19.1562 18.5938H18.5938C18.5192 18.5938 18.4476 18.5641 18.3949 18.5114C18.3421 18.4586 18.3125 18.3871 18.3125 18.3125H17.75C17.75 18.5363 17.8389 18.7509 17.9971 18.9091C18.1554 19.0674 18.37 19.1562 18.5938 19.1562V19.4375H19.1562V19.1562C19.38 19.1562 19.5946 19.0674 19.7529 18.9091C19.9111 18.7509 20 18.5363 20 18.3125C20 18.0887 19.9111 17.8741 19.7529 17.7159C19.5946 17.5576 19.38 17.4688 19.1562 17.4688H18.5938C18.5192 17.4688 18.4476 17.4391 18.3949 17.3864C18.3421 17.3336 18.3125 17.2621 18.3125 17.1875C18.3125 17.1129 18.3421 17.0414 18.3949 16.9886C18.4476 16.9359 18.5192 16.9062 18.5938 16.9062Z" fill="white"/>
<path d="M18.875 14.9375C18.3187 14.9375 17.775 15.1025 17.3125 15.4115C16.8499 15.7205 16.4895 16.1598 16.2766 16.6737C16.0637 17.1876 16.008 17.7531 16.1165 18.2987C16.2251 18.8443 16.4929 19.3454 16.8863 19.7387C17.2796 20.1321 17.7807 20.3999 18.3263 20.5085C18.8719 20.617 19.4374 20.5613 19.9513 20.3484C20.4652 20.1355 20.9045 19.7751 21.2135 19.3125C21.5226 18.85 21.6875 18.3063 21.6875 17.75C21.6867 17.0043 21.3901 16.2894 20.8628 15.7622C20.3356 15.2349 19.6207 14.9383 18.875 14.9375ZM18.875 20C18.43 20 17.995 19.868 17.625 19.6208C17.255 19.3736 16.9666 19.0222 16.7963 18.611C16.626 18.1999 16.5814 17.7475 16.6682 17.311C16.7551 16.8746 16.9693 16.4737 17.284 16.159C17.5987 15.8443 17.9996 15.63 18.436 15.5432C18.8725 15.4564 19.3249 15.501 19.736 15.6713C20.1472 15.8416 20.4986 16.13 20.7458 16.5C20.993 16.87 21.125 17.305 21.125 17.75C21.1243 18.3465 20.8871 18.9184 20.4653 19.3403C20.0434 19.7621 19.4715 19.9993 18.875 20Z" fill="white"/>
<path d="M25.0625 19.4375H25.625V20H25.0625V19.4375Z" fill="white"/>
<path d="M25.0625 20.5625H25.625V21.125H25.0625V20.5625Z" fill="white"/>
<path d="M12.125 19.4375H12.6875V20H12.125V19.4375Z" fill="white"/>
</svg>
