<svg width="24" height="24" viewBox="0 0 24 24" fill="none" xmlns="http://www.w3.org/2000/svg">
<path d="M6.32568 9.44189H18.4187V10.3721H6.32568V9.44189Z" fill="#343E25"/>
<path d="M6.32568 14.0933H15.628V15.0236H6.32568V14.0933Z" fill="#343E25"/>
<path d="M6.32568 11.7671H18.4187V12.6973H6.32568V11.7671Z" fill="#343E25"/>
<path d="M6.32568 7.11621H18.4187V8.04656H6.32568V7.11621Z" fill="#343E25"/>
<path d="M20.7442 22.0002H4V3.39551H8.65123V4.32568H4.93035V21.0699H19.814V4.32568H16.0932V3.39551H20.7442V22.0002Z" fill="#343E25"/>
<path d="M15.628 5.72088H9.11638C8.60471 5.72088 8.18604 5.30238 8.18604 4.7907V2.93018C8.18604 2.41867 8.60471 2 9.11638 2H15.628C16.1396 2 16.5581 2.41867 16.5581 2.93018V4.7907C16.5581 5.30238 16.1396 5.72088 15.628 5.72088ZM9.11638 2.93018V4.7907H15.628V2.93018H9.11638Z" fill="#343E25"/>
</svg>
