<svg width="15" height="18" viewBox="0 0 15 18" fill="none" xmlns="http://www.w3.org/2000/svg">
<path d="M5.73707 11.3059C6.93421 11.2033 8.13786 11.2033 9.335 11.3059C9.98965 11.3498 10.6399 11.4454 11.2796 11.5919C12.6634 11.8705 13.5666 12.4205 13.9453 13.227C14.2479 13.8971 14.2399 14.6678 13.9235 15.3314C13.5374 16.138 12.6343 16.6879 11.2286 16.9739C10.5911 17.1174 9.94331 17.2106 9.2913 17.2525C8.57026 17.3332 7.95846 17.3332 7.39037 17.3332H7.16459C6.84275 17.2983 6.59878 17.0248 6.59878 16.6989C6.59878 16.373 6.84275 16.0996 7.16459 16.0647L7.66292 16.0646C8.16239 16.0587 8.66494 16.0353 9.16748 15.9913C9.76034 15.9525 10.3495 15.8692 10.93 15.742C11.9278 15.5221 12.5542 15.2068 12.7508 14.7888C12.9038 14.4691 12.9038 14.0967 12.7508 13.777C12.5542 13.3517 11.9278 13.0217 10.9519 12.8237C10.3623 12.6906 9.76323 12.6048 9.1602 12.5671C8.0336 12.4644 6.90009 12.4644 5.77348 12.5671C5.17822 12.6059 4.58664 12.6893 4.00365 12.8164C3.00584 13.0364 2.38677 13.3517 2.18284 13.7696C2.11058 13.9284 2.07331 14.101 2.07359 14.2756C2.07318 14.4525 2.11043 14.6276 2.18284 14.7888C2.52949 15.2655 3.05691 15.5761 3.63949 15.6467L3.72401 15.6696C3.91567 15.7362 4.06612 15.8923 4.12473 16.0914C4.19171 16.319 4.12767 16.5651 3.95848 16.7304C3.7893 16.8957 3.54295 16.9528 3.31902 16.8786C2.38004 16.7244 1.55649 16.161 1.0685 15.3388C0.754918 14.6728 0.754918 13.9003 1.0685 13.2344C1.45451 12.4058 2.35763 11.8705 3.74874 11.5846C4.40369 11.4419 5.06832 11.3488 5.73707 11.3059ZM5.80391 1.00584C7.46224 0.315111 9.3706 0.6985 10.6386 1.97713C11.9065 3.25575 12.2842 5.17761 11.5954 6.84599C10.9066 8.51437 9.28699 9.60046 7.49233 9.5975C5.04552 9.59344 3.06411 7.59539 3.06411 5.13206L3.06823 4.93919C3.14209 3.21015 4.2048 1.67191 5.80391 1.00584ZM7.49233 1.94246C6.65081 1.94052 5.84309 2.2757 5.24735 2.87408C4.65162 3.47246 4.31682 4.28485 4.31682 5.13206C4.31388 6.42576 5.0857 7.59372 6.27207 8.09086C7.45843 8.58799 8.82547 8.31629 9.73516 7.40255C10.6449 6.48882 10.9179 5.11319 10.4268 3.91768C9.93573 2.72217 8.77737 1.94246 7.49233 1.94246Z" fill="#79747E"/>
</svg>
