<svg width="18" height="18" viewBox="0 0 18 18" fill="none" xmlns="http://www.w3.org/2000/svg">
<path d="M15.899 18H2.10092C1.79999 18 1.5553 17.7553 1.5553 17.4544V0.545625C1.5553 0.244687 1.79999 0 2.10092 0H15.899C16.2 0 16.4447 0.244687 16.4447 0.545625V17.4544C16.4447 17.7553 16.2 18 15.899 18ZM2.10092 0.545625V17.4544H15.899V0.545625H2.10092Z" fill="white"/>
<path d="M4.13719 4.20744C4.08324 4.20788 4.03037 4.19225 3.98534 4.16253C3.9403 4.13282 3.90513 4.09036 3.88432 4.04058C3.8635 3.9908 3.85798 3.93595 3.86845 3.88302C3.87892 3.83009 3.90492 3.78148 3.94313 3.74338L5.2875 2.399C5.39438 2.29213 5.56594 2.29213 5.67282 2.399C5.77969 2.50588 5.77969 2.67744 5.67282 2.78432L4.32844 4.12869C4.2775 4.17903 4.20881 4.20731 4.13719 4.20744Z" fill="white"/>
<path d="M5.48162 4.20744C5.41131 4.20744 5.34099 4.18213 5.28756 4.12869L3.94318 2.78432C3.91779 2.75907 3.89764 2.72905 3.88389 2.69599C3.87014 2.66292 3.86306 2.62747 3.86306 2.59166C3.86306 2.55585 3.87014 2.5204 3.88389 2.48733C3.89764 2.45427 3.91779 2.42425 3.94318 2.399C4.05006 2.29213 4.22162 2.29213 4.32849 2.399L5.67287 3.74338C5.7109 3.78131 5.73684 3.82966 5.7474 3.88233C5.75797 3.935 5.75268 3.98961 5.73221 4.03928C5.71174 4.08894 5.67701 4.13142 5.63241 4.16135C5.58781 4.19128 5.53533 4.20732 5.48162 4.20744ZM4.47193 7.12119C4.40162 7.12119 4.33131 7.09588 4.27787 7.04244L3.60849 6.37307C3.5831 6.34782 3.56295 6.3178 3.5492 6.28474C3.53545 6.25167 3.52837 6.21622 3.52837 6.18041C3.52837 6.1446 3.53545 6.10915 3.5492 6.07608C3.56295 6.04302 3.5831 6.013 3.60849 5.98775C3.71537 5.88088 3.88693 5.88088 3.99381 5.98775L4.46912 6.46307L5.62224 5.30994C5.72912 5.20307 5.90068 5.20307 6.00756 5.30994C6.11443 5.41682 6.11443 5.58838 6.00756 5.69525L4.66318 7.03963C4.61256 7.09307 4.54224 7.12119 4.47193 7.12119ZM4.80943 10.049C4.28068 10.049 3.85037 9.61869 3.85037 9.08994C3.85037 8.56119 4.28068 8.13088 4.80943 8.13088C5.33818 8.13088 5.76849 8.56119 5.76849 9.08994C5.76849 9.61869 5.33818 10.049 4.80943 10.049ZM4.80943 8.6765C4.58162 8.6765 4.39599 8.86213 4.39599 9.08994C4.39599 9.31775 4.58162 9.50338 4.80943 9.50338C5.03724 9.50338 5.22287 9.31775 5.22287 9.08994C5.22287 8.86213 5.03724 8.6765 4.80943 8.6765ZM5.49568 12.9599H4.12318C3.97131 12.9599 3.85037 12.839 3.85037 12.6871V11.3146C3.85037 11.1628 3.97131 11.0418 4.12318 11.0418H5.49568C5.64756 11.0418 5.76849 11.1628 5.76849 11.3146V12.6871C5.76849 12.839 5.64756 12.9599 5.49568 12.9599ZM4.39881 12.4143H5.22568V11.5874H4.39881V12.4143ZM14.1976 3.53525H7.56849C7.41662 3.53525 7.29568 3.41432 7.29568 3.26244C7.29568 3.11057 7.41662 2.98963 7.56849 2.98963H14.1947C14.3466 2.98963 14.4676 3.11057 14.4676 3.26244C14.4704 3.41432 14.3466 3.53525 14.1976 3.53525ZM14.1976 6.449H7.56849C7.41662 6.449 7.29568 6.32807 7.29568 6.17619C7.29568 6.02432 7.41662 5.90338 7.56849 5.90338H14.1947C14.3466 5.90338 14.4676 6.02432 14.4676 6.17619C14.4704 6.32525 14.3466 6.449 14.1976 6.449ZM14.1976 9.36275H7.56849C7.41662 9.36275 7.29568 9.24182 7.29568 9.08994C7.29568 8.93807 7.41662 8.81713 7.56849 8.81713H14.1947C14.3466 8.81713 14.4676 8.93807 14.4676 9.08994C14.4676 9.24182 14.3466 9.36275 14.1976 9.36275ZM14.1976 12.2765H7.56849C7.41662 12.2765 7.29568 12.1556 7.29568 12.0037C7.29568 11.8518 7.41662 11.7309 7.56849 11.7309H14.1947C14.3466 11.7309 14.4676 11.8518 14.4676 12.0037C14.4676 12.1556 14.3466 12.2765 14.1976 12.2765ZM4.90787 16.5487C4.86568 16.5487 4.82068 16.5374 4.78131 16.5178L4.30318 16.2674L3.82506 16.5178C3.73224 16.5656 3.62256 16.5571 3.53818 16.4981C3.49685 16.4681 3.46469 16.4273 3.44531 16.3801C3.42593 16.3329 3.42011 16.2812 3.42849 16.2309L3.51849 15.6993L3.13318 15.3224C3.09711 15.2869 3.07148 15.2422 3.05908 15.1931C3.04668 15.144 3.04799 15.0924 3.06287 15.044C3.09381 14.9456 3.18099 14.8724 3.28224 14.8584L3.81662 14.7796L4.05568 14.2959C4.10068 14.2031 4.19631 14.144 4.30037 14.144C4.40443 14.144 4.50006 14.2031 4.54506 14.2959L4.78412 14.7796L5.31849 14.8584C5.42256 14.8724 5.50693 14.9456 5.53787 15.044C5.56881 15.1424 5.54349 15.2521 5.46756 15.3224L5.08224 15.6993L5.17224 16.2309C5.18912 16.3321 5.14693 16.4362 5.06256 16.4981C5.02037 16.5318 4.96412 16.5487 4.90787 16.5487ZM3.91224 15.3168L4.00506 15.4068C4.06974 15.4687 4.09787 15.5587 4.08381 15.6487L4.06131 15.7781L4.17662 15.7162C4.25537 15.674 4.35099 15.674 4.42974 15.7162L4.54506 15.7781L4.52256 15.6487C4.50849 15.5615 4.53662 15.4687 4.60131 15.4068L4.69412 15.3168L4.56474 15.2971C4.52093 15.291 4.47929 15.2742 4.44349 15.2482C4.40769 15.2222 4.37882 15.1878 4.35943 15.1481L4.30318 15.0328L4.24412 15.1481C4.22473 15.1878 4.19586 15.2222 4.16006 15.2482C4.12426 15.2742 4.08262 15.291 4.03881 15.2971L3.91224 15.3168ZM6.82881 16.5487C6.77256 16.5487 6.71631 16.5318 6.66849 16.4953C6.62716 16.4653 6.595 16.4245 6.57562 16.3773C6.55624 16.3301 6.55042 16.2784 6.55881 16.2281L6.64881 15.6965L6.26349 15.3196C6.22742 15.2841 6.20179 15.2393 6.18939 15.1902C6.177 15.1411 6.17831 15.0896 6.19318 15.0412C6.22412 14.9428 6.31131 14.8696 6.41256 14.8556L6.94693 14.7768L7.18599 14.2931C7.27881 14.1074 7.58256 14.1074 7.67537 14.2931L7.91443 14.7768L8.44881 14.8556C8.55287 14.8696 8.63724 14.9428 8.66818 15.0412C8.69912 15.1396 8.67381 15.2493 8.59787 15.3196L8.21256 15.6965L8.30256 16.2281C8.31943 16.3293 8.27724 16.4334 8.19287 16.4953C8.10849 16.5571 7.99881 16.5656 7.90599 16.5149L7.42787 16.2646L6.94974 16.5149C6.91599 16.5374 6.87381 16.5487 6.82881 16.5487ZM7.43349 15.6853C7.47568 15.6853 7.52068 15.6965 7.56006 15.7162L7.67537 15.7781L7.65287 15.6487C7.63881 15.5615 7.66693 15.4687 7.73162 15.4068L7.82443 15.3168L7.69506 15.2971C7.65124 15.291 7.6096 15.2742 7.5738 15.2482C7.538 15.2222 7.50913 15.1878 7.48974 15.1481L7.43068 15.0328L7.37443 15.1481C7.35504 15.1878 7.32617 15.2222 7.29037 15.2482C7.25457 15.2742 7.21293 15.291 7.16912 15.2971L7.03974 15.3168L7.13256 15.4068C7.19724 15.4687 7.22537 15.5587 7.21131 15.6487L7.18881 15.7781L7.30412 15.7162C7.34631 15.6965 7.39131 15.6853 7.43349 15.6853ZM9.96193 16.5487C9.90568 16.5487 9.84943 16.5318 9.80162 16.4953C9.76029 16.4653 9.72812 16.4245 9.70875 16.3773C9.68937 16.3301 9.68355 16.2784 9.69193 16.2281L9.78193 15.6965L9.39662 15.3196C9.36055 15.2841 9.33492 15.2393 9.32252 15.1902C9.31012 15.1411 9.31143 15.0896 9.32631 15.0412C9.35724 14.9428 9.44443 14.8696 9.54568 14.8556L10.0801 14.7768L10.3191 14.2931C10.4119 14.1074 10.7157 14.1074 10.8085 14.2931L11.0476 14.7768L11.5819 14.8556C11.686 14.8696 11.7704 14.9428 11.8013 15.0412C11.8322 15.1396 11.8069 15.2493 11.731 15.3196L11.3457 15.6965L11.4357 16.2281C11.4526 16.3293 11.4104 16.4334 11.326 16.4953C11.2416 16.5571 11.1319 16.5656 11.0391 16.5149L10.561 16.2646L10.0829 16.5149C10.0491 16.5374 10.0041 16.5487 9.96193 16.5487ZM10.5666 15.6853C10.6088 15.6853 10.6538 15.6965 10.6932 15.7162L10.8085 15.7781L10.786 15.6487C10.7719 15.5615 10.8001 15.4687 10.8647 15.4068L10.9576 15.3168L10.8282 15.2999C10.7844 15.2938 10.7427 15.277 10.7069 15.251C10.6711 15.225 10.6423 15.1906 10.6229 15.1509L10.5638 15.0356L10.5076 15.1509C10.4882 15.1906 10.4593 15.225 10.4235 15.251C10.3877 15.277 10.3461 15.2938 10.3022 15.2999L10.1729 15.3196L10.2657 15.4096C10.3304 15.4715 10.3585 15.5615 10.3444 15.6515L10.3219 15.7809L10.4372 15.719C10.4794 15.6965 10.5216 15.6853 10.5666 15.6853ZM14.3016 16.5487C14.2594 16.5487 14.2144 16.5374 14.1751 16.5178L13.6969 16.2674L13.2188 16.5178C13.126 16.5656 13.0163 16.5571 12.9319 16.4981C12.8906 16.4681 12.8584 16.4273 12.8391 16.3801C12.8197 16.3329 12.8139 16.2812 12.8222 16.2309L12.9122 15.6993L12.5269 15.3224C12.4909 15.2869 12.4652 15.2422 12.4528 15.1931C12.4404 15.144 12.4417 15.0924 12.4566 15.044C12.4876 14.9456 12.5747 14.8724 12.676 14.8584L13.2104 14.7796L13.4494 14.2959C13.5422 14.1103 13.846 14.1103 13.9388 14.2959L14.1779 14.7796L14.7122 14.8584C14.8163 14.8724 14.9007 14.9456 14.9316 15.044C14.9626 15.1424 14.9372 15.2521 14.8613 15.3224L14.476 15.6993L14.566 16.2309C14.5829 16.3321 14.5407 16.4362 14.4563 16.4981C14.4141 16.5318 14.3579 16.5487 14.3016 16.5487ZM13.6969 15.6853C13.7391 15.6853 13.7841 15.6965 13.8235 15.7162L13.9388 15.7781L13.9163 15.6487C13.9022 15.5615 13.9304 15.4687 13.9951 15.4068L14.0879 15.3168L13.9585 15.2971C13.9147 15.291 13.873 15.2742 13.8372 15.2482C13.8014 15.2222 13.7726 15.1878 13.7532 15.1481L13.6941 15.0328L13.6379 15.1481C13.6185 15.1878 13.5896 15.2222 13.5538 15.2482C13.518 15.2742 13.4764 15.291 13.4326 15.2971L13.3032 15.3168L13.396 15.4068C13.4607 15.4687 13.4888 15.5587 13.4747 15.6487L13.4522 15.7781L13.5676 15.7162C13.6097 15.6965 13.6547 15.6853 13.6969 15.6853Z" fill="white"/>
</svg>
