<svg width="24" height="24" viewBox="0 0 24 24" fill="none" xmlns="http://www.w3.org/2000/svg">
<path fill-rule="evenodd" clip-rule="evenodd" d="M16.329 13.6433C16.629 11.307 16.542 8.82599 16.0658 6.57449C15.9848 6.24149 15.687 6.00675 15.3435 6.00675C15.3428 6.00675 15.342 6.00675 15.3413 6.00675C12.75 6.00075 6.75002 6.00076 6.75002 6.00076C6.33602 6.00076 6.00002 5.66476 6.00002 5.25076C6.00002 4.83676 6.33602 4.50076 6.75002 4.50076C6.75002 4.50076 12.7523 4.50075 15.3435 4.50675C16.389 4.50675 17.2958 5.229 17.5298 6.24825C17.5313 6.252 17.532 6.25649 17.5328 6.26024C17.67 6.90824 17.7773 7.5735 17.8545 8.25H19.3193C20.115 8.25 20.8778 8.56575 21.4403 9.129C21.7343 9.42225 22.0793 9.76725 22.3725 10.0605C22.935 10.623 23.2508 11.3865 23.2508 12.1815C23.2508 12.9623 23.2508 14.0917 23.2508 14.9992C23.2508 16.242 22.2435 17.2492 21.0008 17.2492H20.1525C19.8188 18.543 18.6443 19.5 17.247 19.5C15.8505 19.5 14.676 18.543 14.3423 17.2492C13.2465 17.2492 11.8463 17.2492 10.4055 17.2492C10.0725 18.543 8.89728 19.5 7.50078 19.5C6.10278 19.5 4.92753 18.5415 4.59528 17.247C4.44303 17.247 4.30052 17.2462 4.16702 17.2462C3.11702 17.2462 2.20727 16.5202 1.97552 15.4965C1.97477 15.4957 1.97477 15.4942 1.97477 15.4935C1.71827 14.34 1.56677 13.1857 1.51952 12.0307C1.50302 11.6167 1.82476 11.2673 2.23876 11.2508C2.65201 11.2335 3.00151 11.556 3.01801 11.9693C3.06151 13.0358 3.20178 14.1008 3.43803 15.165C3.51603 15.5055 3.81827 15.7462 4.16627 15.7462L4.59677 15.747C4.93127 14.4548 6.10503 13.5 7.50078 13.5C8.89653 13.5 10.0718 14.4562 10.4048 15.7492C11.8455 15.7492 13.2465 15.7492 14.343 15.7492C14.5995 14.7532 15.3563 13.9568 16.329 13.6433ZM7.50078 15C8.32803 15 9.00002 15.672 9.00002 16.5C9.00002 17.328 8.32803 18 7.50078 18C6.67278 18 6.00153 17.328 6.00153 16.5C6.00153 15.672 6.67278 15 7.50078 15ZM17.247 15C18.075 15 18.747 15.672 18.747 16.5C18.747 17.328 18.075 18 17.247 18C16.4198 18 15.7478 17.328 15.7478 16.5C15.7478 15.672 16.4198 15 17.247 15ZM20.1518 15.7492H21.0008C21.4148 15.7492 21.7508 15.414 21.7508 14.9992V12.1815C21.7508 11.784 21.5933 11.4023 21.312 11.121C21.018 10.8278 20.673 10.4828 20.3798 10.1895C20.0985 9.90825 19.7168 9.75 19.3193 9.75H17.9753C18.036 11.0213 17.994 12.3082 17.85 13.5607C18.9728 13.7895 19.8675 14.6475 20.1518 15.7492ZM8.24551 9L5.25002 8.99925C4.83602 8.99925 4.50002 9.33525 4.50002 9.74925C4.50002 10.1632 4.83602 10.4992 5.25002 10.4992L8.24478 10.5C8.65878 10.5 8.99551 10.164 8.99551 9.75C8.99551 9.336 8.65951 9 8.24551 9ZM2.99478 9L1.50002 8.99925C1.08602 8.99925 0.750018 9.33525 0.749268 9.74925C0.749268 10.1632 1.08527 10.4992 1.49927 10.4992L2.99403 10.5C3.40803 10.5 3.74478 10.164 3.74478 9.75C3.74478 9.336 3.40878 9 2.99478 9ZM1.49927 8.25L4.49478 8.25076C4.90878 8.25076 5.24478 7.91476 5.24478 7.50076C5.24478 7.08676 4.90878 6.75076 4.49478 6.75076L1.49927 6.75C1.08602 6.75 0.749268 7.086 0.749268 7.5C0.749268 7.914 1.08527 8.25 1.49927 8.25ZM6.75002 8.25L8.24478 8.25076C8.65878 8.25076 8.99476 7.91476 8.99551 7.50076C8.99551 7.08676 8.65951 6.75076 8.24551 6.75076L6.75002 6.75C6.33602 6.75 6.00002 7.086 6.00002 7.5C6.00002 7.914 6.33602 8.25 6.75002 8.25ZM2.99927 6H4.49403C4.90803 6.00075 5.24478 5.66476 5.24478 5.25076C5.24478 4.83676 4.90878 4.50075 4.49478 4.5H3.00002C2.58602 4.49925 2.25002 4.83525 2.24927 5.24925C2.24927 5.66325 2.58527 5.99925 2.99927 6Z" fill="#343E25"/>
</svg>
