<svg width="18" height="18" viewBox="0 0 18 18" fill="none" xmlns="http://www.w3.org/2000/svg">
<path d="M8.53403 14.1347H9.46588M16.471 13.1108H1.52891V3.61026C1.52891 3.40645 1.60988 3.21099 1.75399 3.06687C1.89811 2.92276 2.09357 2.8418 2.29738 2.8418H15.7025C15.9063 2.8418 16.1018 2.92276 16.2459 3.06687C16.39 3.21099 16.471 3.40645 16.471 3.61026V13.1108ZM17.3076 13.1108H0.692261C0.692261 14.242 1.89965 15.159 3.38949 15.159H14.6104C16.1003 15.159 17.3076 14.2417 17.3076 13.1108Z" stroke="white" stroke-miterlimit="10" stroke-linecap="round" stroke-linejoin="round"/>
<path d="M4.56262 10.419L7.76454 7.21704L9.75943 9.21158L13.4373 5.53369" stroke="white" stroke-miterlimit="10" stroke-linecap="round" stroke-linejoin="round"/>
<path d="M8.53403 14.1347H9.46588M16.471 13.1108H1.52891V3.61026C1.52891 3.40645 1.60988 3.21099 1.75399 3.06687C1.89811 2.92276 2.09357 2.8418 2.29738 2.8418H15.7025C15.9063 2.8418 16.1018 2.92276 16.2459 3.06687C16.39 3.21099 16.471 3.40645 16.471 3.61026V13.1108ZM17.3076 13.1108H0.692261C0.692261 14.242 1.89965 15.159 3.38949 15.159H14.6104C16.1003 15.159 17.3076 14.2417 17.3076 13.1108Z" stroke="white" stroke-width="0.5" stroke-miterlimit="10" stroke-linecap="round" stroke-linejoin="round"/>
<path d="M4.56262 10.419L7.76454 7.21704L9.75943 9.21158L13.4373 5.53369" stroke="white" stroke-width="0.5" stroke-miterlimit="10" stroke-linecap="round" stroke-linejoin="round"/>
</svg>
