<svg width="20" height="20" viewBox="0 0 20 20" fill="none" xmlns="http://www.w3.org/2000/svg">
<path d="M5 1.87504C4.3125 1.87504 3.75 2.43754 3.75 3.12504V16.875C3.75 17.5625 4.3125 18.125 5 18.125H15C15.6875 18.125 16.25 17.5625 16.25 16.875V5.31254C16.25 5.31087 16.25 5.30921 16.25 5.30754C16.25 5.30587 16.25 5.30421 16.25 5.30254C16.2498 5.29524 16.2494 5.28794 16.2487 5.28066C16.2484 5.27753 16.248 5.27441 16.2475 5.27129C16.2425 5.22949 16.2292 5.18912 16.2083 5.1526C16.1873 5.11608 16.1592 5.08418 16.1256 5.05879L13.0725 2.00629C13.0709 2.00418 13.0692 2.0021 13.0675 2.00004C13.0379 1.96055 12.9993 1.92863 12.955 1.9069C12.9107 1.88517 12.8619 1.87425 12.8125 1.87504H5ZM5 2.50004H12.5V4.37504C12.5 5.06254 13.0625 5.62504 13.75 5.62504H15.625V16.875C15.625 17.2269 15.3519 17.5 15 17.5H5C4.64812 17.5 4.375 17.2269 4.375 16.875V3.12504C4.375 2.77316 4.64812 2.50004 5 2.50004ZM13.125 2.94191L15.1831 5.00004H13.75C13.3981 5.00004 13.125 4.72691 13.125 4.37504V2.94191ZM6.53562 8.75004C6.45274 8.75418 6.37491 8.79108 6.31923 8.85262C6.26356 8.91415 6.23461 8.99528 6.23875 9.07816C6.24289 9.16104 6.27979 9.23888 6.34133 9.29456C6.40286 9.35023 6.48399 9.37918 6.56687 9.37504H13.4375C13.5204 9.37504 13.5999 9.34212 13.6585 9.28351C13.7171 9.22491 13.75 9.14542 13.75 9.06254C13.75 8.97966 13.7171 8.90017 13.6585 8.84157C13.5999 8.78296 13.5204 8.75004 13.4375 8.75004H6.5675C6.55688 8.7495 6.54624 8.7495 6.53562 8.75004ZM6.53562 10C6.45274 10.0042 6.37491 10.0411 6.31923 10.1026C6.26356 10.1642 6.23461 10.2453 6.23875 10.3282C6.24289 10.411 6.27979 10.4889 6.34133 10.5446C6.40286 10.6002 6.48399 10.6292 6.56687 10.625H13.4375C13.5204 10.625 13.5999 10.5921 13.6585 10.5335C13.7171 10.4749 13.75 10.3954 13.75 10.3125C13.75 10.2297 13.7171 10.1502 13.6585 10.0916C13.5999 10.033 13.5204 10 13.4375 10H6.5675C6.55688 9.9995 6.54624 9.9995 6.53562 10ZM6.53562 11.25C6.45274 11.2542 6.37491 11.2911 6.31923 11.3526C6.26356 11.4142 6.23461 11.4953 6.23875 11.5782C6.24289 11.661 6.27979 11.7389 6.34133 11.7946C6.40286 11.8502 6.48399 11.8792 6.56687 11.875H13.4375C13.5204 11.875 13.5999 11.8421 13.6585 11.7835C13.7171 11.7249 13.75 11.6454 13.75 11.5625C13.75 11.4797 13.7171 11.4002 13.6585 11.3416C13.5999 11.283 13.5204 11.25 13.4375 11.25H6.5675C6.55688 11.2495 6.54624 11.2495 6.53562 11.25ZM6.53562 12.5C6.45274 12.5042 6.37491 12.5411 6.31923 12.6026C6.26356 12.6642 6.23461 12.7453 6.23875 12.8282C6.24289 12.911 6.27979 12.9889 6.34133 13.0446C6.40286 13.1002 6.48399 13.1292 6.56687 13.125H10.9375C11.0204 13.125 11.0999 13.0921 11.1585 13.0335C11.2171 12.9749 11.25 12.8954 11.25 12.8125C11.25 12.7297 11.2171 12.6502 11.1585 12.5916C11.0999 12.533 11.0204 12.5 10.9375 12.5H6.5675C6.55688 12.4995 6.54624 12.4995 6.53562 12.5ZM12.1556 12.5C12.0727 12.5043 11.9949 12.5412 11.9393 12.6028C11.8837 12.6644 11.8548 12.7456 11.8591 12.8285C11.8633 12.9114 11.9003 12.9892 11.9619 13.0448C12.0235 13.1004 12.1046 13.1293 12.1875 13.125C12.2704 13.125 12.3499 13.0921 12.4085 13.0335C12.4671 12.9749 12.5 12.8954 12.5 12.8125C12.5 12.7297 12.4671 12.6502 12.4085 12.5916C12.3499 12.533 12.2704 12.5 12.1875 12.5C12.1771 12.4995 12.1667 12.4995 12.1562 12.5H12.1556Z" fill="black"/>
</svg>
