<svg width="40" height="40" viewBox="0 0 40 40" fill="none" xmlns="http://www.w3.org/2000/svg">
<rect width="40" height="40" rx="10" fill="white"/>
<path fill-rule="evenodd" clip-rule="evenodd" d="M10.6667 30.6668C11.0334 30.6668 11.3334 30.9668 11.3334 31.3335C11.3334 31.7002 11.0334 32.0002 10.6667 32.0002C10.3 32.0002 10 31.7002 10 31.3335C10 30.9668 10.3 30.6668 10.6667 30.6668ZM16 30.6668H12.6667C12.3 30.6668 12 30.9668 12 31.3335C12 31.7002 12.3 32.0002 12.6667 32.0002H16C16.3667 32.0002 16.6667 31.7002 16.6667 31.3335C16.6667 30.9668 16.3667 30.6668 16 30.6668ZM17.0734 12.6868C16.1067 13.1468 15.2067 13.8202 14.4067 14.6402C13.8134 15.2468 13.2734 15.9335 12.8067 16.6735H9.33335C8.96669 16.6735 8.66669 16.9735 8.66669 17.3402C8.66669 17.7068 8.96669 18.0068 9.33335 18.0068H12.0534C11.3067 19.5068 10.8334 21.1335 10.7 22.6735H9.33335C8.96669 22.6735 8.66669 22.9735 8.66669 23.3402C8.66669 23.7068 8.96669 24.0068 9.33335 24.0068H10.68C10.94 28.8268 14.9734 30.6735 20 30.6735C21.4334 30.6735 22.7934 30.5202 23.9934 30.1935C24.493 30.7643 25.1092 31.2214 25.8003 31.5342C26.4914 31.8469 27.2414 32.0081 28 32.0068C30.9467 32.0068 33.3334 29.6202 33.3334 26.6735C33.3334 24.1202 31.5334 21.9802 29.1267 21.4602C28.6 18.7402 27.0867 15.9268 25.02 14.1002C24.3667 13.5268 23.6667 13.0468 22.92 12.6935L23.9534 9.90684C24.0467 9.6535 23.98 9.36017 23.7734 9.18017C23.7734 9.18017 22.52 8.00684 19.9934 8.00684C17.4667 8.00684 16.2134 9.18017 16.2134 9.18017C16.0067 9.36017 15.94 9.6535 16.0334 9.90684L17.0667 12.6935L17.0734 12.6868ZM28 22.6668C30.2067 22.6668 32 24.4602 32 26.6668C32 28.8735 30.2067 30.6668 28 30.6668C25.7934 30.6668 24 28.8735 24 26.6668C24 24.4602 25.7934 22.6668 28 22.6668ZM27.74 21.3402C27.2067 19.0135 25.9 16.6535 24.14 15.0935C22.9334 14.0268 21.52 13.3335 20 13.3335C18.26 13.3335 16.6667 14.2335 15.36 15.5668C13.3267 17.6468 12 20.7868 12 23.5002C12 27.8735 15.6267 29.3335 20 29.3335C21.14 29.3335 22.22 29.2335 23.2067 29.0135C22.8491 28.2831 22.6643 27.4801 22.6667 26.6668C22.6668 25.2974 23.1936 23.9805 24.1381 22.9889C25.0825 21.9973 26.3722 21.4069 27.74 21.3402ZM10 27.3335H7.33335C6.96669 27.3335 6.66669 27.6335 6.66669 28.0002C6.66669 28.3668 6.96669 28.6668 7.33335 28.6668H10C10.3667 28.6668 10.6667 28.3668 10.6667 28.0002C10.6667 27.6335 10.3667 27.3335 10 27.3335ZM27.3334 24.6668V26.6668C27.3334 27.0335 27.6334 27.3335 28 27.3335H30C30.3667 27.3335 30.6667 27.0335 30.6667 26.6668C30.6667 26.3002 30.3667 26.0002 30 26.0002H28.6667V24.6668C28.6667 24.3002 28.3667 24.0002 28 24.0002C27.6334 24.0002 27.3334 24.3002 27.3334 24.6668ZM19.3334 19.3668C18.9283 19.4491 18.5683 19.6789 18.3231 20.0117C18.078 20.3445 17.9652 20.7564 18.0068 21.1677C18.0483 21.5789 18.2412 21.96 18.5479 22.237C18.8546 22.5141 19.2534 22.6673 19.6667 22.6668H20.3334C20.42 22.6668 20.5067 22.7002 20.5667 22.7668C20.6267 22.8268 20.6667 22.9135 20.6667 23.0002C20.6667 23.0868 20.6334 23.1735 20.5667 23.2335C20.5047 23.2957 20.4211 23.3315 20.3334 23.3335H18.6667C18.3 23.3335 18 23.6335 18 24.0002C18 24.3668 18.3 24.6668 18.6667 24.6668H19.3334V25.3335C19.3334 25.7002 19.6334 26.0002 20 26.0002C20.3667 26.0002 20.6667 25.7002 20.6667 25.3335V24.6335C21.0438 24.5581 21.383 24.3539 21.6263 24.056C21.8695 23.758 22.0016 23.3848 22 23.0002C22 22.5535 21.8267 22.1335 21.5134 21.8202C21.2 21.5068 20.78 21.3335 20.3334 21.3335H19.6667C19.623 21.334 19.5796 21.3254 19.5394 21.3082C19.4993 21.291 19.4631 21.2655 19.4334 21.2335C19.3734 21.1735 19.3334 21.0868 19.3334 21.0002C19.3334 20.9135 19.3667 20.8268 19.4334 20.7668C19.4953 20.7046 19.5789 20.6688 19.6667 20.6668H21.3334C21.7 20.6668 22 20.3668 22 20.0002C22 19.6335 21.7 19.3335 21.3334 19.3335H20.6667V18.6668C20.6667 18.3002 20.3667 18.0002 20 18.0002C19.6334 18.0002 19.3334 18.3002 19.3334 18.6668V19.3668ZM7.33335 22.6668C7.70002 22.6668 8.00002 22.9668 8.00002 23.3335C8.00002 23.7002 7.70002 24.0002 7.33335 24.0002C6.96669 24.0002 6.66669 23.7002 6.66669 23.3335C6.66669 22.9668 6.96669 22.6668 7.33335 22.6668ZM21.6734 12.2202C21.9 11.6135 22.5267 9.92017 22.5267 9.92017C22.0867 9.6735 21.24 9.32684 20 9.32684C18.76 9.32684 17.9134 9.6735 17.4734 9.92017L18.3267 12.2202C18.8734 12.0735 19.4334 12.0002 20 12.0002C20.5667 12.0002 21.1334 12.0802 21.6734 12.2202ZM9.33335 10.0002C9.70002 10.0002 10 10.3002 10 10.6668C10 11.0335 9.70002 11.3335 9.33335 11.3335C8.96669 11.3335 8.66669 11.0335 8.66669 10.6668C8.66669 10.3002 8.96669 10.0002 9.33335 10.0002ZM14.6667 10.0002H11.3334C10.9667 10.0002 10.6667 10.3002 10.6667 10.6668C10.6667 11.0335 10.9667 11.3335 11.3334 11.3335H14.6667C15.0334 11.3335 15.3334 11.0335 15.3334 10.6668C15.3334 10.3002 15.0334 10.0002 14.6667 10.0002Z" fill="#2AA241"/>
</svg>
