<svg width="360" height="92" viewBox="0 0 360 92" fill="none" xmlns="http://www.w3.org/2000/svg">
<rect width="360" height="92" transform="translate(-0.5)" fill="white"/>
<path d="M80.1848 28.8842H76.8515C75.7714 28.8802 74.8957 28.0077 74.8877 26.9277V20.2972C74.8898 19.9356 75.0516 19.5935 75.3298 19.3624L75.9167 18.9277C76.131 18.6993 76.1528 18.351 75.9686 18.0977C75.7844 17.8445 75.4463 17.7579 75.1631 17.8914L74.5616 18.3407C73.9549 18.8101 73.5949 19.5302 73.5834 20.2972V26.9349C73.5874 28.7382 75.0482 30.199 76.8515 30.203H80.1848C80.545 30.203 80.837 29.911 80.837 29.5508C80.837 29.1907 80.545 28.8987 80.1848 28.8987V28.8842Z" fill="#2AA241"/>
<path d="M89.2428 20.2825C89.2352 19.5212 88.8868 18.8032 88.2935 18.326L83.2863 14.3333C82.1859 13.4488 80.6185 13.4488 79.5181 14.3333L77.9312 15.4854C77.633 15.6996 77.5649 16.1148 77.779 16.413C77.9931 16.7111 78.4084 16.7793 78.7065 16.5652L80.3152 15.3623C80.9466 14.8424 81.8577 14.8424 82.4892 15.3623L87.4964 19.355C87.7846 19.5835 87.9549 19.9293 87.9602 20.297V26.9347C87.9602 28.0153 87.0842 28.8912 86.0036 28.8912H84.5181C84.3661 28.8912 84.2428 28.768 84.2428 28.6159V25.6231C84.2428 24.6695 83.4718 23.8952 82.5181 23.8912H80.3442C79.8849 23.8912 79.4444 24.0737 79.1196 24.3985C78.7948 24.7233 78.6123 25.1638 78.6123 25.6231V26.7681C78.6123 27.1282 78.9043 27.4202 79.2645 27.4202C79.6247 27.4202 79.9167 27.1282 79.9167 26.7681V25.6231C79.9147 25.5104 79.9582 25.4016 80.0372 25.3212C80.1162 25.2408 80.2242 25.1956 80.337 25.1956H82.5109C82.743 25.1956 82.9312 25.3838 82.9312 25.6159V28.6159C82.9352 29.4895 83.6445 30.1956 84.5181 30.1956H85.9674C87.7723 30.1956 89.2355 28.7324 89.2355 26.9275L89.2428 20.2825Z" fill="#2AA241"/>
<path d="M68.3807 50V42.7273H69.2614V45.9659H73.1392V42.7273H74.0199V50H73.1392V46.7472H69.2614V50H68.3807ZM77.8853 50.1136C77.3929 50.1136 76.9608 49.9964 76.5891 49.7621C76.2198 49.5277 75.931 49.1998 75.7227 48.7784C75.5167 48.357 75.4137 47.8646 75.4137 47.3011C75.4137 46.733 75.5167 46.237 75.7227 45.8132C75.931 45.3894 76.2198 45.0604 76.5891 44.826C76.9608 44.5916 77.3929 44.4744 77.8853 44.4744C78.3777 44.4744 78.8086 44.5916 79.1779 44.826C79.5496 45.0604 79.8384 45.3894 80.0444 45.8132C80.2527 46.237 80.3569 46.733 80.3569 47.3011C80.3569 47.8646 80.2527 48.357 80.0444 48.7784C79.8384 49.1998 79.5496 49.5277 79.1779 49.7621C78.8086 49.9964 78.3777 50.1136 77.8853 50.1136ZM77.8853 49.3608C78.2594 49.3608 78.5671 49.2649 78.8086 49.0732C79.0501 48.8814 79.2288 48.6293 79.3448 48.3168C79.4608 48.0043 79.5188 47.6657 79.5188 47.3011C79.5188 46.9366 79.4608 46.5968 79.3448 46.282C79.2288 45.9671 79.0501 45.7126 78.8086 45.5185C78.5671 45.3243 78.2594 45.2273 77.8853 45.2273C77.5112 45.2273 77.2035 45.3243 76.962 45.5185C76.7205 45.7126 76.5418 45.9671 76.4258 46.282C76.3098 46.5968 76.2518 46.9366 76.2518 47.3011C76.2518 47.6657 76.3098 48.0043 76.4258 48.3168C76.5418 48.6293 76.7205 48.8814 76.962 49.0732C77.2035 49.2649 77.5112 49.3608 77.8853 49.3608ZM81.6362 50V44.5455H82.4458V45.3977H82.5169C82.6305 45.1065 82.814 44.8804 83.0673 44.7195C83.3206 44.5561 83.6248 44.4744 83.9799 44.4744C84.3398 44.4744 84.6393 44.5561 84.8784 44.7195C85.1199 44.8804 85.3081 45.1065 85.443 45.3977H85.4998C85.6395 45.116 85.849 44.8923 86.1284 44.7266C86.4077 44.5585 86.7427 44.4744 87.1333 44.4744C87.621 44.4744 88.0199 44.6271 88.3301 44.9325C88.6402 45.2356 88.7953 45.7079 88.7953 46.3494V50H87.9572V46.3494C87.9572 45.947 87.8471 45.6593 87.627 45.4865C87.4068 45.3137 87.1475 45.2273 86.8493 45.2273C86.4657 45.2273 86.1686 45.3433 85.9579 45.5753C85.7472 45.8049 85.6419 46.0961 85.6419 46.4489V50H84.7896V46.2642C84.7896 45.9541 84.689 45.7043 84.4877 45.5149C84.2865 45.3232 84.0273 45.2273 83.71 45.2273C83.4922 45.2273 83.2886 45.2853 83.0993 45.4013C82.9122 45.5173 82.7607 45.6783 82.6447 45.8842C82.5311 46.0878 82.4743 46.3234 82.4743 46.5909V50H81.6362ZM92.6145 50.1136C92.089 50.1136 91.6356 49.9976 91.2544 49.7656C90.8757 49.5312 90.5833 49.2045 90.3773 48.7855C90.1737 48.3641 90.0719 47.8741 90.0719 47.3153C90.0719 46.7566 90.1737 46.2642 90.3773 45.8381C90.5833 45.4096 90.8697 45.0758 91.2367 44.8366C91.606 44.5952 92.0369 44.4744 92.5293 44.4744C92.8134 44.4744 93.0939 44.5218 93.3709 44.6165C93.6479 44.7112 93.9 44.8651 94.1273 45.0781C94.3546 45.2888 94.5357 45.5682 94.6706 45.9162C94.8056 46.2642 94.873 46.6927 94.873 47.2017V47.5568H90.6685V46.8324H94.0208C94.0208 46.5246 93.9592 46.25 93.8361 46.0085C93.7154 45.767 93.5426 45.5765 93.3176 45.4368C93.0951 45.2971 92.8323 45.2273 92.5293 45.2273C92.1955 45.2273 91.9067 45.3101 91.6628 45.4759C91.4213 45.6392 91.2355 45.8523 91.1053 46.1151C90.9751 46.3778 90.91 46.6596 90.91 46.9602V47.4432C90.91 47.8551 90.981 48.2043 91.123 48.4908C91.2675 48.7749 91.4675 48.9915 91.7232 49.1406C91.9789 49.2874 92.276 49.3608 92.6145 49.3608C92.8347 49.3608 93.0336 49.33 93.2111 49.2685C93.391 49.2045 93.5461 49.1098 93.6763 48.9844C93.8065 48.8565 93.9071 48.6979 93.9782 48.5085L94.7878 48.7358C94.7026 49.0104 94.5594 49.2519 94.3581 49.4602C94.1569 49.6662 93.9083 49.8272 93.6124 49.9432C93.3165 50.0568 92.9838 50.1136 92.6145 50.1136Z" fill="#2AA241"/>
<path d="M273.737 24.3059C274.934 24.2033 276.138 24.2033 277.335 24.3059C277.99 24.3498 278.64 24.4454 279.28 24.5919C280.663 24.8705 281.567 25.4205 281.945 26.227C282.248 26.8971 282.24 27.6678 281.923 28.3314C281.537 29.138 280.634 29.6879 279.229 29.9739C278.591 30.1174 277.943 30.2106 277.291 30.2525C276.57 30.3332 275.958 30.3332 275.39 30.3332H275.165C274.843 30.2983 274.599 30.0248 274.599 29.6989C274.599 29.373 274.843 29.0996 275.165 29.0647L275.663 29.0646C276.162 29.0587 276.665 29.0353 277.167 28.9913C277.76 28.9525 278.349 28.8692 278.93 28.742C279.928 28.5221 280.554 28.2068 280.751 27.7888C280.904 27.4691 280.904 27.0967 280.751 26.777C280.554 26.3517 279.928 26.0217 278.952 25.8237C278.362 25.6906 277.763 25.6048 277.16 25.5671C276.034 25.4644 274.9 25.4644 273.773 25.5671C273.178 25.6059 272.587 25.6893 272.004 25.8164C271.006 26.0364 270.387 26.3517 270.183 26.7696C270.111 26.9284 270.073 27.101 270.074 27.2756C270.073 27.4525 270.11 27.6276 270.183 27.7888C270.529 28.2655 271.057 28.5761 271.639 28.6467L271.724 28.6696C271.916 28.7362 272.066 28.8923 272.125 29.0914C272.192 29.319 272.128 29.5651 271.958 29.7304C271.789 29.8957 271.543 29.9528 271.319 29.8786C270.38 29.7244 269.556 29.161 269.068 28.3388C268.755 27.6728 268.755 26.9003 269.068 26.2344C269.455 25.4058 270.358 24.8705 271.749 24.5846C272.404 24.4419 273.068 24.3488 273.737 24.3059ZM273.804 14.0058C275.462 13.3151 277.371 13.6985 278.639 14.9771C279.907 16.2558 280.284 18.1776 279.595 19.846C278.907 21.5144 277.287 22.6005 275.492 22.5975C273.046 22.5934 271.064 20.5954 271.064 18.1321L271.068 17.9392C271.142 16.2102 272.205 14.6719 273.804 14.0058ZM275.492 14.9425C274.651 14.9405 273.843 15.2757 273.247 15.8741C272.652 16.4725 272.317 17.2849 272.317 18.1321C272.314 19.4258 273.086 20.5937 274.272 21.0909C275.458 21.588 276.825 21.3163 277.735 20.4026C278.645 19.4888 278.918 18.1132 278.427 16.9177C277.936 15.7222 276.777 14.9425 275.492 14.9425Z" fill="#79747E"/>
<path d="M261.381 50V42.7273H263.838C264.409 42.7273 264.875 42.8303 265.237 43.0362C265.602 43.2398 265.872 43.5156 266.047 43.8636C266.222 44.2116 266.31 44.5999 266.31 45.0284C266.31 45.4569 266.222 45.8464 266.047 46.1967C265.874 46.5471 265.607 46.8265 265.244 47.0348C264.882 47.2408 264.418 47.3438 263.852 47.3438H262.091V46.5625H263.824C264.214 46.5625 264.528 46.495 264.765 46.3601C265.002 46.2251 265.173 46.0429 265.28 45.8132C265.389 45.5812 265.443 45.3196 265.443 45.0284C265.443 44.7372 265.389 44.4768 265.28 44.2472C265.173 44.0175 265 43.8376 264.761 43.7074C264.522 43.5748 264.205 43.5085 263.81 43.5085H262.261V50H261.381ZM267.615 50V44.5455H268.424V45.3693H268.481C268.581 45.0994 268.761 44.8804 269.021 44.7124C269.281 44.5443 269.575 44.4602 269.902 44.4602C269.963 44.4602 270.04 44.4614 270.132 44.4638C270.225 44.4661 270.295 44.4697 270.342 44.4744V45.3267C270.314 45.3196 270.248 45.3089 270.147 45.2947C270.047 45.2782 269.942 45.2699 269.831 45.2699C269.565 45.2699 269.329 45.3255 269.12 45.4368C268.914 45.5457 268.751 45.6972 268.63 45.8913C268.512 46.0831 268.453 46.3021 268.453 46.5483V50H267.615ZM273.385 50.1136C272.893 50.1136 272.461 49.9964 272.089 49.7621C271.72 49.5277 271.431 49.1998 271.223 48.7784C271.017 48.357 270.914 47.8646 270.914 47.3011C270.914 46.733 271.017 46.237 271.223 45.8132C271.431 45.3894 271.72 45.0604 272.089 44.826C272.461 44.5916 272.893 44.4744 273.385 44.4744C273.878 44.4744 274.309 44.5916 274.678 44.826C275.05 45.0604 275.338 45.3894 275.544 45.8132C275.753 46.237 275.857 46.733 275.857 47.3011C275.857 47.8646 275.753 48.357 275.544 48.7784C275.338 49.1998 275.05 49.5277 274.678 49.7621C274.309 49.9964 273.878 50.1136 273.385 50.1136ZM273.385 49.3608C273.759 49.3608 274.067 49.2649 274.309 49.0732C274.55 48.8814 274.729 48.6293 274.845 48.3168C274.961 48.0043 275.019 47.6657 275.019 47.3011C275.019 46.9366 274.961 46.5968 274.845 46.282C274.729 45.9671 274.55 45.7126 274.309 45.5185C274.067 45.3243 273.759 45.2273 273.385 45.2273C273.011 45.2273 272.703 45.3243 272.462 45.5185C272.221 45.7126 272.042 45.9671 271.926 46.282C271.81 46.5968 271.752 46.9366 271.752 47.3011C271.752 47.6657 271.81 48.0043 271.926 48.3168C272.042 48.6293 272.221 48.8814 272.462 49.0732C272.703 49.2649 273.011 49.3608 273.385 49.3608ZM279.565 44.5455V45.2557H276.625V44.5455H279.565ZM277.506 50V43.7926C277.506 43.4801 277.579 43.2197 277.726 43.0114C277.872 42.803 278.063 42.6468 278.297 42.5426C278.532 42.4384 278.779 42.3864 279.04 42.3864C279.246 42.3864 279.414 42.4029 279.544 42.4361C279.674 42.4692 279.771 42.5 279.835 42.5284L279.594 43.2528C279.551 43.2386 279.492 43.2209 279.416 43.1996C279.343 43.1783 279.246 43.1676 279.125 43.1676C278.848 43.1676 278.648 43.2375 278.525 43.3771C278.404 43.5168 278.344 43.7216 278.344 43.9915V50H277.506ZM280.74 50V44.5455H281.578V50H280.74ZM281.166 43.6364C281.002 43.6364 280.862 43.5807 280.743 43.4695C280.627 43.3582 280.569 43.2244 280.569 43.0682C280.569 42.9119 280.627 42.7782 280.743 42.6669C280.862 42.5556 281.002 42.5 281.166 42.5C281.329 42.5 281.469 42.5556 281.585 42.6669C281.703 42.7782 281.762 42.9119 281.762 43.0682C281.762 43.2244 281.703 43.3582 281.585 43.4695C281.469 43.5807 281.329 43.6364 281.166 43.6364ZM283.951 42.7273V50H283.113V42.7273H283.951ZM287.773 50.1136C287.247 50.1136 286.794 49.9976 286.413 49.7656C286.034 49.5312 285.741 49.2045 285.536 48.7855C285.332 48.3641 285.23 47.8741 285.23 47.3153C285.23 46.7566 285.332 46.2642 285.536 45.8381C285.741 45.4096 286.028 45.0758 286.395 44.8366C286.764 44.5952 287.195 44.4744 287.688 44.4744C287.972 44.4744 288.252 44.5218 288.529 44.6165C288.806 44.7112 289.058 44.8651 289.286 45.0781C289.513 45.2888 289.694 45.5682 289.829 45.9162C289.964 46.2642 290.031 46.6927 290.031 47.2017V47.5568H285.827V46.8324H289.179C289.179 46.5246 289.117 46.25 288.994 46.0085C288.874 45.767 288.701 45.5765 288.476 45.4368C288.253 45.2971 287.991 45.2273 287.688 45.2273C287.354 45.2273 287.065 45.3101 286.821 45.4759C286.58 45.6392 286.394 45.8523 286.263 46.1151C286.133 46.3778 286.068 46.6596 286.068 46.9602V47.4432C286.068 47.8551 286.139 48.2043 286.281 48.4908C286.426 48.7749 286.626 48.9915 286.881 49.1406C287.137 49.2874 287.434 49.3608 287.773 49.3608C287.993 49.3608 288.192 49.33 288.369 49.2685C288.549 49.2045 288.704 49.1098 288.835 48.9844C288.965 48.8565 289.065 48.6979 289.136 48.5085L289.946 48.7358C289.861 49.0104 289.718 49.2519 289.516 49.4602C289.315 49.6662 289.067 49.8272 288.771 49.9432C288.475 50.0568 288.142 50.1136 287.773 50.1136Z" fill="#79747E"/>
</svg>
