<svg width="20" height="20" viewBox="0 0 20 20" fill="none" xmlns="http://www.w3.org/2000/svg">
<g clip-path="url(#clip0_2630_4962)">
<path d="M13.75 4.99992V14.5833C13.75 16.4249 12.2584 17.9166 10.4167 17.9166C8.57504 17.9166 7.08337 16.4249 7.08337 14.5833V4.16659C7.08337 3.01659 8.01671 2.08325 9.16671 2.08325C10.3167 2.08325 11.25 3.01659 11.25 4.16659V12.9166C11.25 13.1376 11.1622 13.3496 11.006 13.5058C10.8497 13.6621 10.6377 13.7499 10.4167 13.7499C10.1957 13.7499 9.98373 13.6621 9.82745 13.5058C9.67117 13.3496 9.58337 13.1376 9.58337 12.9166V4.99992H8.33337V12.9166C8.33337 14.0666 9.26671 14.9999 10.4167 14.9999C11.5667 14.9999 12.5 14.0666 12.5 12.9166V4.16659C12.5 2.32492 11.0084 0.833252 9.16671 0.833252C7.32504 0.833252 5.83337 2.32492 5.83337 4.16659V14.5833C5.83337 17.1166 7.88754 19.1666 10.4167 19.1666C12.9459 19.1666 15 17.1166 15 14.5833V4.99992H13.75Z" fill="black"/>
</g>
<defs>
<clipPath id="clip0_2630_4962">
<rect width="20" height="20" fill="white"/>
</clipPath>
</defs>
</svg>
