<svg width="153" height="153" viewBox="0 0 153 153" fill="none" xmlns="http://www.w3.org/2000/svg">
<path d="M129.625 90.3125C129.625 119.653 105.84 143.438 76.5 143.438C47.1599 143.438 23.375 119.653 23.375 90.3125C23.375 60.9724 47.1599 37.1875 76.5 37.1875C105.84 37.1875 129.625 60.9724 129.625 90.3125Z" fill="#F5F5F5"/>
<path d="M109.101 122.755H45.3462C43.463 122.755 41.9355 121.228 41.9355 119.344V12.9732C41.9355 11.09 43.463 9.5625 45.3462 9.5625H109.101C110.985 9.5625 112.512 11.09 112.512 12.9732V119.344C112.512 121.228 110.985 122.755 109.101 122.755Z" fill="#2AA241"/>
<path d="M109.101 9.5625H100.676V122.755H109.101C110.985 122.755 112.511 121.228 112.511 119.344V12.9732C112.511 11.09 110.985 9.5625 109.101 9.5625Z" fill="#2AA241"/>
<path d="M41.9355 22.7488H112.512V109.57H41.9355V22.7488Z" fill="#D9E5FF"/>
<path d="M103.526 81.2496C106.72 81.2496 109.758 81.913 112.511 83.1088V22.7488H100.676V81.4279C101.609 81.3102 102.56 81.2496 103.526 81.2496Z" fill="#D9E5FF"/>
<path d="M101.278 72.75H53.1689C52.0258 72.75 51.0984 71.8235 51.0984 70.6804V51.1738C51.0984 50.0307 52.0258 49.1042 53.1689 49.1042H101.278C102.422 49.1042 103.349 50.0307 103.349 51.1738V70.6804C103.349 71.8235 102.421 72.75 101.278 72.75Z" fill="#EDEDED"/>
<path d="M101.278 49.1042H91.5124V72.75H101.278C102.422 72.75 103.349 71.8235 103.349 70.6795V51.1738C103.349 50.0307 102.421 49.1042 101.278 49.1042Z" fill="#EDEDED"/>
<path d="M80.0033 14.1136H72.4784C71.5037 14.1136 70.7146 14.9028 70.7146 15.8774C70.7146 16.8511 71.5037 17.6412 72.4784 17.6412H80.0033C80.977 17.6412 81.7662 16.8511 81.7662 15.8774C81.7662 14.9028 80.977 14.1136 80.0033 14.1136Z" fill="#EDEDED"/>
<path d="M68.1297 58.1941C68.0388 58.1941 65.271 59.1322 65.271 59.1322L65.3851 56.5703C65.3628 55.9301 64.8822 55.6332 64.3329 55.6332C63.7845 55.6332 63.3039 55.9301 63.2816 56.5703L63.3958 59.1099C63.3958 59.1099 60.628 58.195 60.5593 58.195C59.9423 58.195 59.4848 58.7666 59.4848 59.2927C59.4848 59.7733 59.6908 60.1843 60.1482 60.2762L62.6869 61.0083L61.0854 63.2491C60.9481 63.4096 60.834 63.6155 60.834 63.867C60.834 64.5072 61.6115 64.896 62.0689 64.896C62.3436 64.896 62.5727 64.8273 62.7555 64.5304L64.3329 62.1514L65.8889 64.5072C66.1172 64.8496 66.4141 64.896 66.6433 64.896C67.2149 64.896 67.8328 64.4609 67.8328 63.8206C67.8328 63.6147 67.7641 63.3864 67.6723 63.2722L66.0031 60.8932L68.473 60.2753C68.9528 60.1843 69.1587 59.7956 69.1587 59.4068C69.1596 58.8352 68.7477 58.1941 68.1297 58.1941Z" fill="#7CC788"/>
<path d="M81.8973 58.1941C81.8064 58.1941 79.0386 59.1322 79.0386 59.1322L79.1527 56.5703C79.1304 55.9301 78.6498 55.6332 78.1014 55.6332C77.5521 55.6332 77.0715 55.9301 77.0492 56.5703L77.1634 59.1099C77.1634 59.1099 74.3956 58.195 74.3269 58.195C73.7099 58.195 73.2524 58.7666 73.2524 59.2927C73.2524 59.7733 73.4584 60.1843 73.9159 60.2762L76.4545 61.0083L74.853 63.2491C74.7166 63.4096 74.6016 63.6155 74.6016 63.867C74.6016 64.5072 75.38 64.896 75.8374 64.896C76.1112 64.896 76.3403 64.8273 76.5231 64.5304L78.1014 62.1514L79.6565 64.5072C79.8848 64.8496 80.1826 64.896 80.4109 64.896C80.9834 64.896 81.6004 64.4609 81.6004 63.8206C81.6004 63.6147 81.5317 63.3864 81.4399 63.2722L79.7707 60.8932L82.2406 60.2753C82.7213 60.1843 82.9272 59.7956 82.9272 59.4068C82.9272 58.8352 82.5153 58.1941 81.8973 58.1941Z" fill="#7CC788"/>
<path d="M95.6659 58.1941C95.574 58.1941 92.8071 59.1322 92.8071 59.1322L92.9213 56.5703C92.8981 55.9301 92.4183 55.6332 91.8691 55.6332C91.3207 55.6332 90.8401 55.9301 90.8169 56.5703L90.931 59.1099C90.931 59.1099 88.1641 58.195 88.0955 58.195C87.4775 58.195 87.0201 58.7666 87.0201 59.2927C87.0201 59.7733 87.2261 60.1843 87.6835 60.2762L90.2221 61.0083L88.6215 63.2491C88.4842 63.4096 88.3701 63.6155 88.3701 63.867C88.3701 64.5072 89.1476 64.896 89.6051 64.896C89.8797 64.896 90.108 64.8273 90.2908 64.5304L91.8691 62.1514L93.4242 64.5072C93.6533 64.8496 93.9503 64.896 94.1785 64.896C94.751 64.896 95.368 64.4609 95.368 63.8206C95.368 63.6147 95.2994 63.3864 95.2075 63.2722L93.5383 60.8932L96.0083 60.2753C96.4889 60.1843 96.6949 59.7956 96.6949 59.4068C96.6949 58.8352 96.2829 58.1941 95.6659 58.1941Z" fill="#7CC788"/>
</svg>
