<svg width="24" height="24" viewBox="0 0 24 24" fill="none" xmlns="http://www.w3.org/2000/svg">
<path d="M6.45115 15.2303C5.88475 15.2303 5.42395 15.6911 5.42395 16.2575C5.42395 16.8239 5.88475 17.2847 6.45115 17.2847C7.01755 17.2847 7.47835 16.8239 7.47835 16.2575C7.47835 15.6911 7.01755 15.2303 6.45115 15.2303ZM6.45115 16.4831C6.32635 16.4831 6.23035 16.3823 6.23035 16.2623C6.23035 16.1375 6.33115 16.0415 6.45115 16.0415C6.57595 16.0415 6.67195 16.1423 6.67195 16.2623C6.67195 16.3823 6.57595 16.4831 6.45115 16.4831ZM16.4495 15.1919C15.8639 15.1919 15.3839 15.6719 15.3839 16.2575C15.3839 16.8479 15.8639 17.3231 16.4495 17.3231C17.04 17.3231 17.5151 16.8431 17.5151 16.2575C17.5199 15.6719 17.04 15.1919 16.4495 15.1919ZM16.4495 16.5215C16.3055 16.5215 16.1855 16.4063 16.1855 16.2575C16.1855 16.1135 16.3007 15.9935 16.4495 15.9935C16.5935 15.9935 16.7135 16.1087 16.7135 16.2575C16.7135 16.4015 16.5935 16.5215 16.4495 16.5215Z" fill="#343E25"/>
<path d="M19.7903 6.95497C19.5647 6.56617 19.1471 6.32617 18.6959 6.32617H15.4703C14.7743 6.32617 14.2079 6.89257 14.2079 7.58857V10.651C14.2079 10.963 13.9535 11.2222 13.6367 11.2222H7.06074C6.72474 11.2222 6.40314 11.3182 6.11994 11.491L2.07834 13.6654L2.05434 13.6798C1.78554 13.8526 1.62714 14.1454 1.63194 14.467L1.64634 15.6766C1.65114 16.1758 2.06394 16.5838 2.56314 16.5838H3.78234C3.94074 17.9182 5.07834 18.955 6.45594 18.955C7.80474 18.955 8.92314 17.9566 9.11994 16.6654H13.7903C13.9871 17.9614 15.1055 18.955 16.4543 18.955C17.8799 18.955 19.0511 17.8414 19.1423 16.4398H21.0191C21.7679 16.4398 22.3775 15.8302 22.3775 15.0814V11.779C22.3775 11.539 22.3151 11.3038 22.1951 11.0974L19.7903 6.95497ZM6.45114 18.1486C5.40954 18.1486 4.55994 17.299 4.55994 16.2574C4.55994 15.2158 5.40954 14.3662 6.45114 14.3662C7.49274 14.3662 8.34234 15.2158 8.34234 16.2574C8.34234 17.299 7.49274 18.1486 6.45114 18.1486ZM16.4495 18.1486C15.4079 18.1486 14.5583 17.299 14.5583 16.2574C14.5583 15.2158 15.4079 14.3662 16.4495 14.3662C17.4911 14.3662 18.3407 15.2158 18.3407 16.2574C18.3407 17.299 17.4911 18.1486 16.4495 18.1486ZM21.5711 15.0766C21.5711 15.3838 21.3215 15.6286 21.0191 15.6286H19.0703C18.7871 14.443 17.7215 13.5646 16.4495 13.5646C15.1007 13.5646 13.9823 14.563 13.7855 15.8542H9.11514C8.91834 14.5582 7.79994 13.5646 6.45114 13.5646C5.13114 13.5646 4.02714 14.5198 3.80154 15.7774H2.55834C2.49594 15.7774 2.44314 15.7246 2.44314 15.6622L2.42874 14.4526C2.42874 14.4142 2.44314 14.3806 2.47194 14.3614L6.50874 12.1918L6.53274 12.1774C6.69114 12.0766 6.86874 12.0238 7.05594 12.0238H13.6319C14.3903 12.0238 15.0047 11.4094 15.0047 10.651V7.58857C15.0047 7.33417 15.2111 7.12777 15.4655 7.12777H18.6911C18.8543 7.12777 19.0079 7.21417 19.0895 7.35817L21.4895 11.4958C21.5375 11.5822 21.5663 11.6782 21.5663 11.7742V15.0766H21.5711Z" fill="#343E25"/>
<path d="M18.7296 7.94378L18.7104 7.91498C18.5616 7.68458 18.312 7.55018 18.0528 7.55018H18.048L16.4304 7.54058C16.0368 7.54538 15.72 7.88138 15.7152 8.28938L15.6768 11.1166C15.6768 11.5342 15.9984 11.8702 16.3968 11.8702H19.4112C19.8048 11.8702 20.1264 11.5342 20.1264 11.1166V10.7518C20.1264 10.603 20.088 10.4638 20.0112 10.339L18.7296 7.94378ZM16.488 11.0638L16.5216 8.33738L18.0336 8.34698L19.32 10.7422L19.3248 11.059H16.488V11.0638ZM2.48637 5.06858C2.29437 5.01578 2.09277 5.05898 1.92957 5.17898C1.76637 5.30378 1.67517 5.49098 1.67517 5.69258V6.40778C1.67517 6.66698 1.82877 6.90218 2.06877 7.00298L12.3552 10.7806C12.432 10.8142 12.5136 10.8286 12.6 10.8286H13.2912C13.6464 10.8286 13.9392 10.5358 13.9392 10.1806V8.27018C13.9392 7.97738 13.7424 7.72298 13.464 7.64618L2.48637 5.06858ZM13.1328 10.0222H12.624L2.47677 6.29738V5.88938L13.1328 8.39018V10.0222Z" fill="#343E25"/>
</svg>
