<svg width="24" height="24" viewBox="0 0 24 24" fill="none" xmlns="http://www.w3.org/2000/svg">
<rect width="24" height="24" rx="10" fill="#2AA241"/>
<path fill-rule="evenodd" clip-rule="evenodd" d="M6.4 18.3997C6.62 18.3997 6.8 18.5797 6.8 18.7997C6.8 19.0197 6.62 19.1997 6.4 19.1997C6.18 19.1997 6 19.0197 6 18.7997C6 18.5797 6.18 18.3997 6.4 18.3997ZM9.6 18.3997H7.6C7.38 18.3997 7.2 18.5797 7.2 18.7997C7.2 19.0197 7.38 19.1997 7.6 19.1997H9.6C9.82 19.1997 10 19.0197 10 18.7997C10 18.5797 9.82 18.3997 9.6 18.3997ZM10.244 7.61171C9.664 7.88771 9.124 8.29171 8.644 8.78371C8.288 9.14771 7.964 9.55971 7.684 10.0037H5.6C5.38 10.0037 5.2 10.1837 5.2 10.4037C5.2 10.6237 5.38 10.8037 5.6 10.8037H7.232C6.784 11.7037 6.5 12.6797 6.42 13.6037H5.6C5.38 13.6037 5.2 13.7837 5.2 14.0037C5.2 14.2237 5.38 14.4037 5.6 14.4037H6.408C6.564 17.2957 8.984 18.4037 12 18.4037C12.86 18.4037 13.676 18.3117 14.396 18.1157C14.6958 18.4582 15.0655 18.7324 15.4801 18.9201C15.8948 19.1078 16.3448 19.2045 16.8 19.2037C18.568 19.2037 20 17.7717 20 16.0037C20 14.4717 18.92 13.1877 17.476 12.8757C17.16 11.2437 16.252 9.55571 15.012 8.45971C14.62 8.11571 14.2 7.82771 13.752 7.61571L14.372 5.94371C14.428 5.79171 14.388 5.61571 14.264 5.50771C14.264 5.50771 13.512 4.80371 11.996 4.80371C10.48 4.80371 9.728 5.50771 9.728 5.50771C9.604 5.61571 9.564 5.79171 9.62 5.94371L10.24 7.61571L10.244 7.61171ZM16.8 13.5997C18.124 13.5997 19.2 14.6757 19.2 15.9997C19.2 17.3237 18.124 18.3997 16.8 18.3997C15.476 18.3997 14.4 17.3237 14.4 15.9997C14.4 14.6757 15.476 13.5997 16.8 13.5997ZM16.644 12.8037C16.324 11.4077 15.54 9.99171 14.484 9.05571C13.76 8.41571 12.912 7.99971 12 7.99971C10.956 7.99971 10 8.53971 9.216 9.33971C7.996 10.5877 7.2 12.4717 7.2 14.0997C7.2 16.7237 9.376 17.5997 12 17.5997C12.684 17.5997 13.332 17.5397 13.924 17.4077C13.7094 16.9694 13.5986 16.4877 13.6 15.9997C13.6 15.1781 13.9162 14.3879 14.4828 13.7929C15.0495 13.198 15.8233 12.8438 16.644 12.8037ZM6 16.3997H4.4C4.18 16.3997 4 16.5797 4 16.7997C4 17.0197 4.18 17.1997 4.4 17.1997H6C6.22 17.1997 6.4 17.0197 6.4 16.7997C6.4 16.5797 6.22 16.3997 6 16.3997ZM16.4 14.7997V15.9997C16.4 16.2197 16.58 16.3997 16.8 16.3997H18C18.22 16.3997 18.4 16.2197 18.4 15.9997C18.4 15.7797 18.22 15.5997 18 15.5997H17.2V14.7997C17.2 14.5797 17.02 14.3997 16.8 14.3997C16.58 14.3997 16.4 14.5797 16.4 14.7997ZM11.6 11.6197C11.357 11.6691 11.1409 11.807 10.9939 12.0066C10.8468 12.2063 10.7791 12.4535 10.8041 12.7002C10.829 12.9469 10.9447 13.1756 11.1287 13.3418C11.3128 13.5081 11.552 13.6 11.8 13.5997H12.2C12.252 13.5997 12.304 13.6197 12.34 13.6597C12.376 13.6957 12.4 13.7477 12.4 13.7997C12.4 13.8517 12.38 13.9037 12.34 13.9397C12.3028 13.977 12.2527 13.9985 12.2 13.9997H11.2C10.98 13.9997 10.8 14.1797 10.8 14.3997C10.8 14.6197 10.98 14.7997 11.2 14.7997H11.6V15.1997C11.6 15.4197 11.78 15.5997 12 15.5997C12.22 15.5997 12.4 15.4197 12.4 15.1997V14.7797C12.6263 14.7345 12.8298 14.612 12.9758 14.4332C13.1217 14.2544 13.201 14.0305 13.2 13.7997C13.2 13.5317 13.096 13.2797 12.908 13.0917C12.72 12.9037 12.468 12.7997 12.2 12.7997H11.8C11.7738 12.8 11.7478 12.7949 11.7237 12.7845C11.6995 12.7742 11.6779 12.7589 11.66 12.7397C11.624 12.7037 11.6 12.6517 11.6 12.5997C11.6 12.5477 11.62 12.4957 11.66 12.4597C11.6972 12.4224 11.7473 12.4009 11.8 12.3997H12.8C13.02 12.3997 13.2 12.2197 13.2 11.9997C13.2 11.7797 13.02 11.5997 12.8 11.5997H12.4V11.1997C12.4 10.9797 12.22 10.7997 12 10.7997C11.78 10.7997 11.6 10.9797 11.6 11.1997V11.6197ZM4.4 13.5997C4.62 13.5997 4.8 13.7797 4.8 13.9997C4.8 14.2197 4.62 14.3997 4.4 14.3997C4.18 14.3997 4 14.2197 4 13.9997C4 13.7797 4.18 13.5997 4.4 13.5997ZM13.004 7.33171C13.14 6.96771 13.516 5.95171 13.516 5.95171C13.252 5.80371 12.744 5.59571 12 5.59571C11.256 5.59571 10.748 5.80371 10.484 5.95171L10.996 7.33171C11.324 7.24371 11.66 7.19971 12 7.19971C12.34 7.19971 12.68 7.24771 13.004 7.33171ZM5.6 5.99971C5.82 5.99971 6 6.17971 6 6.39971C6 6.61971 5.82 6.79971 5.6 6.79971C5.38 6.79971 5.2 6.61971 5.2 6.39971C5.2 6.17971 5.38 5.99971 5.6 5.99971ZM8.8 5.99971H6.8C6.58 5.99971 6.4 6.17971 6.4 6.39971C6.4 6.61971 6.58 6.79971 6.8 6.79971H8.8C9.02 6.79971 9.2 6.61971 9.2 6.39971C9.2 6.17971 9.02 5.99971 8.8 5.99971Z" fill="white"/>
</svg>
