<svg width="340" height="50" viewBox="0 0 340 50" fill="none" xmlns="http://www.w3.org/2000/svg">
<rect x="0.0720825" width="339.856" height="50" rx="10" fill="white" fill-opacity="0.1"/>
<path d="M41.1943 29H40.271L42.9415 21.7273H43.8505L46.521 29H45.5977L43.4244 22.8778H43.3676L41.1943 29ZM41.5352 26.1591H45.2568V26.9403H41.5352V26.1591ZM47.2458 29V21.7273H48.0839V24.4119H48.1549C48.2165 24.3172 48.3017 24.1965 48.4106 24.0497C48.5219 23.9006 48.6805 23.768 48.8864 23.652C49.0948 23.5336 49.3765 23.4744 49.7316 23.4744C50.1909 23.4744 50.5957 23.5893 50.9461 23.8189C51.2965 24.0485 51.5699 24.3741 51.7664 24.7955C51.9629 25.2169 52.0612 25.714 52.0612 26.2869C52.0612 26.8646 51.9629 27.3653 51.7664 27.7891C51.5699 28.2105 51.2977 28.5372 50.9497 28.7692C50.6016 28.9988 50.2004 29.1136 49.7458 29.1136C49.3954 29.1136 49.1149 29.0556 48.9042 28.9396C48.6935 28.8213 48.5313 28.6875 48.4177 28.5384C48.3041 28.3868 48.2165 28.2614 48.1549 28.1619H48.0555V29H47.2458ZM48.0697 26.2727C48.0697 26.6847 48.13 27.0481 48.2508 27.3629C48.3715 27.6754 48.5479 27.9205 48.7799 28.098C49.0119 28.2732 49.296 28.3608 49.6322 28.3608C49.9826 28.3608 50.2749 28.2685 50.5093 28.0838C50.7461 27.8968 50.9236 27.6458 51.042 27.331C51.1627 27.0137 51.2231 26.661 51.2231 26.2727C51.2231 25.8892 51.1639 25.5436 51.0455 25.2358C50.9295 24.9257 50.7532 24.6806 50.5164 24.5007C50.282 24.3184 49.9873 24.2273 49.6322 24.2273C49.2913 24.2273 49.0048 24.3137 48.7728 24.4865C48.5408 24.657 48.3656 24.8961 48.2472 25.2038C48.1289 25.5092 48.0697 25.8655 48.0697 26.2727ZM55.151 29.1136C54.6586 29.1136 54.2265 28.9964 53.8549 28.7621C53.4855 28.5277 53.1967 28.1998 52.9884 27.7784C52.7824 27.357 52.6794 26.8646 52.6794 26.3011C52.6794 25.733 52.7824 25.237 52.9884 24.8132C53.1967 24.3894 53.4855 24.0604 53.8549 23.826C54.2265 23.5916 54.6586 23.4744 55.151 23.4744C55.6435 23.4744 56.0743 23.5916 56.4436 23.826C56.8153 24.0604 57.1042 24.3894 57.3101 24.8132C57.5185 25.237 57.6226 25.733 57.6226 26.3011C57.6226 26.8646 57.5185 27.357 57.3101 27.7784C57.1042 28.1998 56.8153 28.5277 56.4436 28.7621C56.0743 28.9964 55.6435 29.1136 55.151 29.1136ZM55.151 28.3608C55.5251 28.3608 55.8328 28.2649 56.0743 28.0732C56.3158 27.8814 56.4945 27.6293 56.6105 27.3168C56.7265 27.0043 56.7845 26.6657 56.7845 26.3011C56.7845 25.9366 56.7265 25.5968 56.6105 25.282C56.4945 24.9671 56.3158 24.7126 56.0743 24.5185C55.8328 24.3243 55.5251 24.2273 55.151 24.2273C54.777 24.2273 54.4692 24.3243 54.2277 24.5185C53.9863 24.7126 53.8075 24.9671 53.6915 25.282C53.5755 25.5968 53.5175 25.9366 53.5175 26.3011C53.5175 26.6657 53.5755 27.0043 53.6915 27.3168C53.8075 27.6293 53.9863 27.8814 54.2277 28.0732C54.4692 28.2649 54.777 28.3608 55.151 28.3608ZM61.9314 26.7699V23.5455H62.7695V29H61.9314V28.0767H61.8746C61.7468 28.3537 61.5479 28.5893 61.278 28.7834C61.0081 28.9751 60.6672 29.071 60.2553 29.071C59.9144 29.071 59.6113 28.9964 59.3462 28.8473C59.081 28.6958 58.8727 28.4685 58.7212 28.1655C58.5697 27.8601 58.4939 27.4754 58.4939 27.0114V23.5455H59.332V26.9545C59.332 27.3523 59.4433 27.6695 59.6658 27.9062C59.8907 28.143 60.1772 28.2614 60.5252 28.2614C60.7335 28.2614 60.9454 28.2081 61.1608 28.1016C61.3786 27.995 61.5609 27.8317 61.7077 27.6115C61.8568 27.3913 61.9314 27.1108 61.9314 26.7699ZM66.2686 23.5455V24.2557H63.4419V23.5455H66.2686ZM64.2658 22.2386H65.1038V27.4375C65.1038 27.6742 65.1382 27.8518 65.2068 27.9702C65.2779 28.0862 65.3678 28.1643 65.4767 28.2045C65.588 28.2424 65.7052 28.2614 65.8283 28.2614C65.9206 28.2614 65.9964 28.2566 66.0556 28.2472C66.1147 28.2353 66.1621 28.2259 66.1976 28.2188L66.3681 28.9716C66.3112 28.9929 66.2319 29.0142 66.1301 29.0355C66.0283 29.0592 65.8993 29.071 65.7431 29.071C65.5063 29.071 65.2743 29.0201 65.047 28.9183C64.8221 28.8165 64.6351 28.6615 64.4859 28.4531C64.3392 28.2448 64.2658 27.982 64.2658 27.6648V22.2386ZM74.4121 21.7273H75.2928V26.5426C75.2928 27.0398 75.1756 27.4837 74.9413 27.8743C74.7092 28.2625 74.3814 28.5691 73.9576 28.794C73.5338 29.0166 73.0367 29.1278 72.4661 29.1278C71.8956 29.1278 71.3984 29.0166 70.9746 28.794C70.5509 28.5691 70.2218 28.2625 69.9874 27.8743C69.7554 27.4837 69.6394 27.0398 69.6394 26.5426V21.7273H70.5201V26.4716C70.5201 26.8267 70.5982 27.1428 70.7545 27.4197C70.9107 27.6944 71.1333 27.911 71.4221 28.0696C71.7133 28.2259 72.0613 28.304 72.4661 28.304C72.8709 28.304 73.219 28.2259 73.5101 28.0696C73.8013 27.911 74.0239 27.6944 74.1778 27.4197C74.334 27.1428 74.4121 26.8267 74.4121 26.4716V21.7273ZM80.3935 24.767L79.6407 24.9801C79.5933 24.8546 79.5235 24.7327 79.4312 24.6143C79.3412 24.4936 79.2181 24.3942 79.0618 24.3161C78.9056 24.2379 78.7055 24.1989 78.4617 24.1989C78.1279 24.1989 77.8497 24.2758 77.6272 24.4297C77.407 24.5812 77.2969 24.7741 77.2969 25.0085C77.2969 25.2169 77.3727 25.3814 77.5242 25.5021C77.6757 25.6229 77.9125 25.7235 78.2344 25.804L79.0441 26.0028C79.5318 26.1212 79.8952 26.3023 80.1343 26.5462C80.3734 26.7876 80.493 27.099 80.493 27.4801C80.493 27.7926 80.403 28.072 80.2231 28.3182C80.0455 28.5644 79.7969 28.7585 79.4773 28.9006C79.1577 29.0426 78.786 29.1136 78.3623 29.1136C77.8059 29.1136 77.3455 28.9929 76.9809 28.7514C76.6163 28.5099 76.3855 28.1572 76.2884 27.6932L77.0839 27.4943C77.1596 27.7879 77.3028 28.008 77.5136 28.1548C77.7266 28.3016 78.0048 28.375 78.3481 28.375C78.7387 28.375 79.0488 28.2921 79.2785 28.1264C79.5105 27.9583 79.6265 27.7571 79.6265 27.5227C79.6265 27.3333 79.5602 27.1747 79.4276 27.0469C79.295 26.9167 79.0914 26.8196 78.8168 26.7557L77.9077 26.5426C77.4082 26.4242 77.0412 26.2408 76.8069 25.9922C76.5749 25.7412 76.4589 25.4276 76.4589 25.0511C76.4589 24.7434 76.5453 24.4711 76.7181 24.2344C76.8933 23.9976 77.1312 23.8118 77.4319 23.6768C77.7349 23.5419 78.0782 23.4744 78.4617 23.4744C79.0015 23.4744 79.4252 23.5928 79.733 23.8295C80.0431 24.0663 80.2633 24.3788 80.3935 24.767Z" fill="white"/>
<path d="M22.5971 27.9008C22.4504 27.9143 22.3031 27.8816 22.1764 27.8073C22.0838 27.7133 22.0394 27.5829 22.0558 27.4527C22.0592 27.3444 22.0723 27.2365 22.0949 27.1304C22.1168 27.0087 22.1451 26.8882 22.1797 26.7694L22.5645 25.4608C22.6042 25.3317 22.6304 25.1988 22.6428 25.0644C22.6428 24.9193 22.6623 24.8194 22.6623 24.7614C22.6705 24.5029 22.5588 24.2548 22.359 24.0878C22.1133 23.9013 21.8072 23.8096 21.4981 23.8299C21.2765 23.8332 21.0567 23.8691 20.8458 23.9363C20.6154 24.0072 20.3729 24.0921 20.1186 24.1909L20.0077 24.6164C20.0827 24.5906 20.174 24.5616 20.2784 24.5293C20.3779 24.5002 20.4811 24.485 20.5849 24.4842C20.7305 24.4686 20.8771 24.504 20.9991 24.5841C21.0819 24.6818 21.1208 24.8087 21.1067 24.9355C21.1063 25.0438 21.0943 25.1519 21.0708 25.2578C21.048 25.3706 21.0187 25.4898 20.9828 25.6155L20.5947 26.9306C20.5634 27.0528 20.5384 27.1765 20.5197 27.3012C20.5045 27.408 20.4968 27.5157 20.4969 27.6235C20.4953 27.8838 20.6157 28.1302 20.823 28.2907C21.0725 28.4801 21.3829 28.574 21.697 28.555C21.9181 28.5595 22.1385 28.5279 22.3492 28.4615C22.534 28.3992 22.7808 28.31 23.0895 28.194L23.1939 27.7879C23.1103 27.8222 23.0242 27.8502 22.9363 27.8717C22.8251 27.8968 22.711 27.9065 22.5971 27.9008Z" fill="white"/>
<path d="M23.0048 21.6962C22.8273 21.5352 22.5934 21.4485 22.3525 21.4545C22.1117 21.4491 21.8781 21.5357 21.7003 21.6962C21.3743 21.9741 21.3379 22.4605 21.619 22.7827C21.644 22.8114 21.6712 22.8383 21.7003 22.863C22.0717 23.1913 22.6334 23.1913 23.0047 22.863C23.3307 22.5825 23.3649 22.0939 23.081 21.7717C23.0574 21.7448 23.0319 21.7196 23.0048 21.6962Z" fill="white"/>
<path d="M21.6383 17.9091C17.6758 17.9091 14.4636 21.0838 14.4636 25C14.4636 28.9162 17.6758 32.0909 21.6383 32.0909C25.6008 32.0909 28.813 28.9162 28.813 25C28.813 21.0838 25.6008 17.9091 21.6383 17.9091ZM21.6383 31.4462C18.0361 31.4462 15.1159 28.5602 15.1159 25C15.1159 21.4398 18.0361 18.5537 21.6383 18.5537C25.2406 18.5537 28.1608 21.4398 28.1608 25C28.1608 28.5602 25.2406 31.4462 21.6383 31.4462Z" fill="white"/>
<line x1="93.515" y1="14" x2="93.515" y2="36" stroke="white"/>
<path d="M130.037 29V21.7273H132.494C133.065 21.7273 133.531 21.8303 133.893 22.0362C134.258 22.2398 134.528 22.5156 134.703 22.8636C134.878 23.2116 134.966 23.5999 134.966 24.0284C134.966 24.4569 134.878 24.8464 134.703 25.1967C134.53 25.5471 134.263 25.8265 133.9 26.0348C133.538 26.2408 133.074 26.3438 132.508 26.3438H130.747V25.5625H132.48C132.871 25.5625 133.184 25.495 133.421 25.3601C133.658 25.2251 133.829 25.0429 133.936 24.8132C134.045 24.5812 134.099 24.3196 134.099 24.0284C134.099 23.7372 134.045 23.4768 133.936 23.2472C133.829 23.0175 133.657 22.8376 133.418 22.7074C133.178 22.5748 132.861 22.5085 132.466 22.5085H130.918V29H130.037ZM135.863 29V23.5455H136.673V24.3693H136.729C136.829 24.0994 137.009 23.8804 137.269 23.7124C137.53 23.5443 137.823 23.4602 138.15 23.4602C138.211 23.4602 138.288 23.4614 138.381 23.4638C138.473 23.4661 138.543 23.4697 138.59 23.4744V24.3267C138.562 24.3196 138.497 24.3089 138.395 24.2947C138.295 24.2782 138.19 24.2699 138.079 24.2699C137.814 24.2699 137.577 24.3255 137.369 24.4368C137.163 24.5457 136.999 24.6972 136.878 24.8913C136.76 25.0831 136.701 25.3021 136.701 25.5483V29H135.863ZM141.225 29.1136C140.733 29.1136 140.301 28.9964 139.929 28.7621C139.56 28.5277 139.271 28.1998 139.063 27.7784C138.857 27.357 138.754 26.8646 138.754 26.3011C138.754 25.733 138.857 25.237 139.063 24.8132C139.271 24.3894 139.56 24.0604 139.929 23.826C140.301 23.5916 140.733 23.4744 141.225 23.4744C141.718 23.4744 142.149 23.5916 142.518 23.826C142.89 24.0604 143.179 24.3894 143.385 24.8132C143.593 25.237 143.697 25.733 143.697 26.3011C143.697 26.8646 143.593 27.357 143.385 27.7784C143.179 28.1998 142.89 28.5277 142.518 28.7621C142.149 28.9964 141.718 29.1136 141.225 29.1136ZM141.225 28.3608C141.6 28.3608 141.907 28.2649 142.149 28.0732C142.39 27.8814 142.569 27.6293 142.685 27.3168C142.801 27.0043 142.859 26.6657 142.859 26.3011C142.859 25.9366 142.801 25.5968 142.685 25.282C142.569 24.9671 142.39 24.7126 142.149 24.5185C141.907 24.3243 141.6 24.2273 141.225 24.2273C140.851 24.2273 140.544 24.3243 140.302 24.5185C140.061 24.7126 139.882 24.9671 139.766 25.282C139.65 25.5968 139.592 25.9366 139.592 26.3011C139.592 26.6657 139.65 27.0043 139.766 27.3168C139.882 27.6293 140.061 27.8814 140.302 28.0732C140.544 28.2649 140.851 28.3608 141.225 28.3608ZM146.628 29.1136C146.173 29.1136 145.772 28.9988 145.424 28.7692C145.076 28.5372 144.804 28.2105 144.607 27.7891C144.411 27.3653 144.313 26.8646 144.313 26.2869C144.313 25.714 144.411 25.2169 144.607 24.7955C144.804 24.3741 145.077 24.0485 145.428 23.8189C145.778 23.5893 146.183 23.4744 146.642 23.4744C146.997 23.4744 147.278 23.5336 147.484 23.652C147.692 23.768 147.851 23.9006 147.96 24.0497C148.071 24.1965 148.157 24.3172 148.219 24.4119H148.29V21.7273H149.128V29H148.318V28.1619H148.219C148.157 28.2614 148.07 28.3868 147.956 28.5384C147.843 28.6875 147.68 28.8213 147.47 28.9396C147.259 29.0556 146.978 29.1136 146.628 29.1136ZM146.742 28.3608C147.078 28.3608 147.362 28.2732 147.594 28.098C147.826 27.9205 148.002 27.6754 148.123 27.3629C148.244 27.0481 148.304 26.6847 148.304 26.2727C148.304 25.8655 148.245 25.5092 148.127 25.2038C148.008 24.8961 147.833 24.657 147.601 24.4865C147.369 24.3137 147.083 24.2273 146.742 24.2273C146.387 24.2273 146.091 24.3184 145.854 24.5007C145.619 24.6806 145.443 24.9257 145.325 25.2358C145.209 25.5436 145.151 25.8892 145.151 26.2727C145.151 26.661 145.21 27.0137 145.328 27.331C145.449 27.6458 145.627 27.8968 145.861 28.0838C146.098 28.2685 146.391 28.3608 146.742 28.3608ZM153.809 26.7699V23.5455H154.647V29H153.809V28.0767H153.752C153.624 28.3537 153.425 28.5893 153.155 28.7834C152.885 28.9751 152.545 29.071 152.133 29.071C151.792 29.071 151.489 28.9964 151.224 28.8473C150.958 28.6958 150.75 28.4685 150.599 28.1655C150.447 27.8601 150.371 27.4754 150.371 27.0114V23.5455H151.209V26.9545C151.209 27.3523 151.321 27.6695 151.543 27.9062C151.768 28.143 152.055 28.2614 152.403 28.2614C152.611 28.2614 152.823 28.2081 153.038 28.1016C153.256 27.995 153.438 27.8317 153.585 27.6115C153.734 27.3913 153.809 27.1108 153.809 26.7699ZM157.99 29.1136C157.478 29.1136 157.038 28.9929 156.669 28.7514C156.299 28.5099 156.015 28.1773 155.816 27.7536C155.618 27.3298 155.518 26.8456 155.518 26.3011C155.518 25.7472 155.62 25.2583 155.824 24.8345C156.03 24.4084 156.316 24.0758 156.683 23.8366C157.052 23.5952 157.483 23.4744 157.976 23.4744C158.359 23.4744 158.705 23.5455 159.012 23.6875C159.32 23.8295 159.572 24.0284 159.769 24.2841C159.965 24.5398 160.087 24.8381 160.135 25.179H159.297C159.233 24.9304 159.091 24.7102 158.87 24.5185C158.653 24.3243 158.359 24.2273 157.99 24.2273C157.663 24.2273 157.377 24.3125 157.13 24.483C156.887 24.651 156.696 24.889 156.559 25.1967C156.424 25.5021 156.356 25.8608 156.356 26.2727C156.356 26.6941 156.423 27.0611 156.555 27.3736C156.69 27.6861 156.879 27.9287 157.123 28.1016C157.369 28.2744 157.658 28.3608 157.99 28.3608C158.208 28.3608 158.405 28.3229 158.583 28.2472C158.76 28.1714 158.911 28.0625 159.034 27.9205C159.157 27.7784 159.244 27.608 159.297 27.4091H160.135C160.087 27.7311 159.97 28.0211 159.783 28.2791C159.598 28.5348 159.353 28.7384 159.048 28.8899C158.745 29.0391 158.392 29.1136 157.99 29.1136ZM163.324 23.5455V24.2557H160.497V23.5455H163.324ZM161.321 22.2386H162.159V27.4375C162.159 27.6742 162.193 27.8518 162.262 27.9702C162.333 28.0862 162.423 28.1643 162.532 28.2045C162.643 28.2424 162.76 28.2614 162.884 28.2614C162.976 28.2614 163.052 28.2566 163.111 28.2472C163.17 28.2353 163.217 28.2259 163.253 28.2188L163.423 28.9716C163.367 28.9929 163.287 29.0142 163.185 29.0355C163.084 29.0592 162.955 29.071 162.798 29.071C162.562 29.071 162.33 29.0201 162.102 28.9183C161.877 28.8165 161.69 28.6615 161.541 28.4531C161.394 28.2448 161.321 27.982 161.321 27.6648V22.2386ZM167.943 24.767L167.19 24.9801C167.142 24.8546 167.073 24.7327 166.98 24.6143C166.89 24.4936 166.767 24.3942 166.611 24.3161C166.455 24.2379 166.255 24.1989 166.011 24.1989C165.677 24.1989 165.399 24.2758 165.176 24.4297C164.956 24.5812 164.846 24.7741 164.846 25.0085C164.846 25.2169 164.922 25.3814 165.073 25.5021C165.225 25.6229 165.462 25.7235 165.783 25.804L166.593 26.0028C167.081 26.1212 167.444 26.3023 167.683 26.5462C167.922 26.7876 168.042 27.099 168.042 27.4801C168.042 27.7926 167.952 28.072 167.772 28.3182C167.595 28.5644 167.346 28.7585 167.026 28.9006C166.707 29.0426 166.335 29.1136 165.911 29.1136C165.355 29.1136 164.895 28.9929 164.53 28.7514C164.165 28.5099 163.935 28.1572 163.837 27.6932L164.633 27.4943C164.709 27.7879 164.852 28.008 165.063 28.1548C165.276 28.3016 165.554 28.375 165.897 28.375C166.288 28.375 166.598 28.2921 166.828 28.1264C167.06 27.9583 167.176 27.7571 167.176 27.5227C167.176 27.3333 167.109 27.1747 166.977 27.0469C166.844 26.9167 166.64 26.8196 166.366 26.7557L165.457 26.5426C164.957 26.4242 164.59 26.2408 164.356 25.9922C164.124 25.7412 164.008 25.4276 164.008 25.0511C164.008 24.7434 164.094 24.4711 164.267 24.2344C164.442 23.9976 164.68 23.8118 164.981 23.6768C165.284 23.5419 165.627 23.4744 166.011 23.4744C166.551 23.4744 166.974 23.5928 167.282 23.8295C167.592 24.0663 167.812 24.3788 167.943 24.767Z" fill="white"/>
<path d="M109.376 17.3181C109.326 17.3188 109.277 17.3318 109.234 17.356C108.841 17.5756 108.508 17.8851 108.262 18.2583C108.015 18.6315 107.863 19.0576 107.817 19.501H103.706C103.626 19.501 103.55 19.5321 103.494 19.5875C103.438 19.6429 103.407 19.718 103.407 19.7964V22.5234C103.407 22.6018 103.438 22.677 103.494 22.7324C103.55 22.7878 103.626 22.8189 103.706 22.8189H104.004V31.7954C104.004 31.8738 104.036 31.9489 104.092 32.0043C104.148 32.0597 104.224 32.0909 104.303 32.0909H116.859C116.938 32.0909 117.014 32.0597 117.071 32.0043C117.127 31.9489 117.158 31.8738 117.158 31.7954V22.8189H117.485C117.564 22.8189 117.64 22.7878 117.697 22.7324C117.753 22.677 117.784 22.6018 117.784 22.5234V19.7958C117.784 19.7175 117.753 19.6423 117.697 19.5869C117.64 19.5315 117.564 19.5004 117.485 19.5004H113.345C113.3 19.057 113.147 18.631 112.901 18.2579C112.654 17.8848 112.321 17.5755 111.928 17.356C111.884 17.3316 111.835 17.3186 111.785 17.3181C111.731 17.3177 111.678 17.3317 111.631 17.3588C111.584 17.3858 111.546 17.4249 111.52 17.4718L110.581 19.1618L109.643 17.4718C109.617 17.4248 109.578 17.3857 109.531 17.3586C109.485 17.3316 109.431 17.3176 109.377 17.3181C109.377 17.3181 109.376 17.3181 109.376 17.3181ZM109.304 18.0905L110.089 19.5004H108.476C108.552 18.9407 108.85 18.4336 109.304 18.0905H109.304ZM111.859 18.0905C112.313 18.4336 112.61 18.9407 112.686 19.5004H111.074L111.859 18.0905ZM104.004 20.0913H109.386V22.228H104.004V20.0913ZM109.983 20.0913H111.179V31.4999H109.983V20.0913ZM111.777 20.0913H117.186V22.228H111.777V20.0913ZM104.602 22.8195H109.386V31.4999H104.602V22.8189V22.8195ZM111.777 22.8195H116.56V31.4999H111.777V22.8189V22.8195ZM109.563 32.0649C109.566 32.0665 109.569 32.0681 109.572 32.0696L109.563 32.0649ZM111.601 32.0649L111.588 32.0696C111.592 32.0681 111.597 32.0665 111.601 32.0649Z" fill="white"/>
<line x1="181.262" y1="14" x2="181.262" y2="36" stroke="white"/>
<path d="M217.974 29V21.7273H220.517C221.023 21.7273 221.441 21.8149 221.77 21.9901C222.099 22.1629 222.344 22.3961 222.505 22.6896C222.666 22.9808 222.747 23.304 222.747 23.6591C222.747 23.9716 222.691 24.2296 222.58 24.4332C222.471 24.6368 222.326 24.7978 222.147 24.9162C221.969 25.0346 221.776 25.1222 221.568 25.179V25.25C221.79 25.2642 222.014 25.3423 222.239 25.4844C222.464 25.6264 222.652 25.83 222.804 26.0952C222.955 26.3603 223.031 26.6847 223.031 27.0682C223.031 27.4328 222.948 27.7607 222.782 28.0518C222.616 28.343 222.355 28.5739 221.997 28.7443C221.64 28.9148 221.175 29 220.602 29H217.974ZM218.855 28.2188H220.602C221.177 28.2188 221.585 28.1075 221.827 27.8849C222.071 27.66 222.193 27.3878 222.193 27.0682C222.193 26.822 222.13 26.5947 222.005 26.3864C221.879 26.1757 221.7 26.0076 221.468 25.8821C221.236 25.7543 220.962 25.6903 220.644 25.6903H218.855V28.2188ZM218.855 24.9233H220.488C220.753 24.9233 220.992 24.8712 221.206 24.767C221.421 24.6629 221.591 24.5161 221.717 24.3267C221.845 24.1373 221.909 23.9148 221.909 23.6591C221.909 23.3395 221.797 23.0684 221.575 22.8459C221.352 22.621 221 22.5085 220.517 22.5085H218.855V24.9233ZM223.956 29V23.5455H224.766V24.3693H224.823C224.922 24.0994 225.102 23.8804 225.362 23.7124C225.623 23.5443 225.916 23.4602 226.243 23.4602C226.305 23.4602 226.382 23.4614 226.474 23.4638C226.566 23.4661 226.636 23.4697 226.684 23.4744V24.3267C226.655 24.3196 226.59 24.3089 226.488 24.2947C226.389 24.2782 226.283 24.2699 226.172 24.2699C225.907 24.2699 225.67 24.3255 225.462 24.4368C225.256 24.5457 225.093 24.6972 224.972 24.8913C224.853 25.0831 224.794 25.3021 224.794 25.5483V29H223.956ZM228.874 29.1278C228.528 29.1278 228.215 29.0627 227.933 28.9325C227.651 28.8 227.428 28.6094 227.262 28.3608C227.096 28.1098 227.013 27.8068 227.013 27.4517C227.013 27.1392 227.075 26.8859 227.198 26.6918C227.321 26.4953 227.486 26.3414 227.692 26.2301C227.897 26.1188 228.125 26.036 228.373 25.9815C228.624 25.9247 228.876 25.8797 229.13 25.8466C229.461 25.804 229.73 25.772 229.936 25.7507C230.144 25.727 230.296 25.688 230.39 25.6335C230.487 25.5791 230.536 25.4844 230.536 25.3494V25.321C230.536 24.9706 230.44 24.6984 230.248 24.5043C230.059 24.3101 229.771 24.2131 229.385 24.2131C228.985 24.2131 228.672 24.3007 228.444 24.4759C228.217 24.651 228.057 24.8381 227.965 25.0369L227.17 24.7528C227.312 24.4214 227.501 24.1634 227.738 23.9787C227.977 23.7917 228.237 23.6615 228.519 23.5881C228.803 23.5123 229.082 23.4744 229.357 23.4744C229.532 23.4744 229.733 23.4957 229.961 23.5384C230.19 23.5786 230.412 23.6626 230.625 23.7905C230.84 23.9183 231.019 24.1113 231.161 24.3693C231.303 24.6274 231.374 24.973 231.374 25.4062V29H230.536V28.2614H230.493C230.437 28.3797 230.342 28.5064 230.209 28.6413C230.077 28.7763 229.9 28.8911 229.68 28.9858C229.46 29.0805 229.191 29.1278 228.874 29.1278ZM229.002 28.375C229.333 28.375 229.613 28.3099 229.84 28.1797C230.07 28.0495 230.242 27.8814 230.358 27.6754C230.477 27.4695 230.536 27.2528 230.536 27.0256V26.2585C230.5 26.3011 230.422 26.3402 230.302 26.3757C230.183 26.4089 230.046 26.4384 229.89 26.4645C229.736 26.4882 229.585 26.5095 229.439 26.5284C229.294 26.545 229.177 26.5592 229.087 26.571C228.869 26.5994 228.666 26.6456 228.476 26.7095C228.289 26.7711 228.138 26.8646 228.022 26.9901C227.908 27.1132 227.851 27.2812 227.851 27.4943C227.851 27.7855 227.959 28.0057 228.174 28.1548C228.392 28.3016 228.668 28.375 229.002 28.375ZM233.334 25.7188V29H232.496V23.5455H233.305V24.3977H233.376C233.504 24.1207 233.698 23.8982 233.959 23.7301C234.219 23.5597 234.555 23.4744 234.967 23.4744C235.337 23.4744 235.66 23.5502 235.937 23.7017C236.214 23.8509 236.429 24.0781 236.583 24.3835C236.737 24.6866 236.814 25.0701 236.814 25.5341V29H235.976V25.5909C235.976 25.1624 235.865 24.8286 235.642 24.5895C235.419 24.348 235.114 24.2273 234.726 24.2273C234.458 24.2273 234.219 24.2853 234.008 24.4013C233.8 24.5173 233.636 24.6866 233.515 24.9091C233.394 25.1316 233.334 25.4015 233.334 25.7188ZM240.153 29.1136C239.642 29.1136 239.202 28.9929 238.832 28.7514C238.463 28.5099 238.179 28.1773 237.98 27.7536C237.781 27.3298 237.682 26.8456 237.682 26.3011C237.682 25.7472 237.783 25.2583 237.987 24.8345C238.193 24.4084 238.479 24.0758 238.846 23.8366C239.216 23.5952 239.647 23.4744 240.139 23.4744C240.523 23.4744 240.868 23.5455 241.176 23.6875C241.484 23.8295 241.736 24.0284 241.932 24.2841C242.129 24.5398 242.251 24.8381 242.298 25.179H241.46C241.396 24.9304 241.254 24.7102 241.034 24.5185C240.816 24.3243 240.523 24.2273 240.153 24.2273C239.827 24.2273 239.54 24.3125 239.294 24.483C239.05 24.651 238.859 24.889 238.722 25.1967C238.587 25.5021 238.52 25.8608 238.52 26.2727C238.52 26.6941 238.586 27.0611 238.719 27.3736C238.854 27.6861 239.043 27.9287 239.287 28.1016C239.533 28.2744 239.822 28.3608 240.153 28.3608C240.371 28.3608 240.569 28.3229 240.746 28.2472C240.924 28.1714 241.074 28.0625 241.197 27.9205C241.32 27.7784 241.408 27.608 241.46 27.4091H242.298C242.251 27.7311 242.134 28.0211 241.947 28.2791C241.762 28.5348 241.517 28.7384 241.211 28.8899C240.908 29.0391 240.556 29.1136 240.153 29.1136ZM243.953 25.7188V29H243.115V21.7273H243.953V24.3977H244.024C244.152 24.116 244.344 23.8923 244.6 23.7266C244.858 23.5585 245.201 23.4744 245.629 23.4744C246.001 23.4744 246.327 23.549 246.606 23.6982C246.885 23.8449 247.102 24.071 247.256 24.3764C247.412 24.6795 247.49 25.0653 247.49 25.5341V29H246.652V25.5909C246.652 25.1577 246.54 24.8227 246.315 24.5859C246.092 24.3468 245.783 24.2273 245.388 24.2273C245.113 24.2273 244.867 24.2853 244.649 24.4013C244.434 24.5173 244.263 24.6866 244.138 24.9091C244.015 25.1316 243.953 25.4015 243.953 25.7188ZM250.902 29.1136C250.377 29.1136 249.923 28.9976 249.542 28.7656C249.164 28.5312 248.871 28.2045 248.665 27.7855C248.462 27.3641 248.36 26.8741 248.36 26.3153C248.36 25.7566 248.462 25.2642 248.665 24.8381C248.871 24.4096 249.158 24.0758 249.525 23.8366C249.894 23.5952 250.325 23.4744 250.817 23.4744C251.101 23.4744 251.382 23.5218 251.659 23.6165C251.936 23.7112 252.188 23.8651 252.415 24.0781C252.642 24.2888 252.824 24.5682 252.958 24.9162C253.093 25.2642 253.161 25.6927 253.161 26.2017V26.5568H248.956V25.8324H252.309C252.309 25.5246 252.247 25.25 252.124 25.0085C252.003 24.767 251.83 24.5765 251.606 24.4368C251.383 24.2971 251.12 24.2273 250.817 24.2273C250.483 24.2273 250.195 24.3101 249.951 24.4759C249.709 24.6392 249.523 24.8523 249.393 25.1151C249.263 25.3778 249.198 25.6596 249.198 25.9602V26.4432C249.198 26.8551 249.269 27.2043 249.411 27.4908C249.555 27.7749 249.755 27.9915 250.011 28.1406C250.267 28.2874 250.564 28.3608 250.902 28.3608C251.123 28.3608 251.321 28.33 251.499 28.2685C251.679 28.2045 251.834 28.1098 251.964 27.9844C252.094 27.8565 252.195 27.6979 252.266 27.5085L253.076 27.7358C252.99 28.0104 252.847 28.2519 252.646 28.4602C252.445 28.6662 252.196 28.8272 251.9 28.9432C251.604 29.0568 251.272 29.1136 250.902 29.1136ZM257.891 24.767L257.139 24.9801C257.091 24.8546 257.021 24.7327 256.929 24.6143C256.839 24.4936 256.716 24.3942 256.56 24.3161C256.403 24.2379 256.203 24.1989 255.96 24.1989C255.626 24.1989 255.348 24.2758 255.125 24.4297C254.905 24.5812 254.795 24.7741 254.795 25.0085C254.795 25.2169 254.871 25.3814 255.022 25.5021C255.174 25.6229 255.41 25.7235 255.732 25.804L256.542 26.0028C257.03 26.1212 257.393 26.3023 257.632 26.5462C257.871 26.7876 257.991 27.099 257.991 27.4801C257.991 27.7926 257.901 28.072 257.721 28.3182C257.543 28.5644 257.295 28.7585 256.975 28.9006C256.656 29.0426 256.284 29.1136 255.86 29.1136C255.304 29.1136 254.843 28.9929 254.479 28.7514C254.114 28.5099 253.883 28.1572 253.786 27.6932L254.582 27.4943C254.658 27.7879 254.801 28.008 255.011 28.1548C255.225 28.3016 255.503 28.375 255.846 28.375C256.237 28.375 256.547 28.2921 256.776 28.1264C257.008 27.9583 257.124 27.7571 257.124 27.5227C257.124 27.3333 257.058 27.1747 256.925 27.0469C256.793 26.9167 256.589 26.8196 256.315 26.7557L255.406 26.5426C254.906 26.4242 254.539 26.2408 254.305 25.9922C254.073 25.7412 253.957 25.4276 253.957 25.0511C253.957 24.7434 254.043 24.4711 254.216 24.2344C254.391 23.9976 254.629 23.8118 254.93 23.6768C255.233 23.5419 255.576 23.4744 255.96 23.4744C256.499 23.4744 256.923 23.5928 257.231 23.8295C257.541 24.0663 257.761 24.3788 257.891 24.767Z" fill="white"/>
<path d="M199.204 23.0136C199.32 23.0136 199.415 22.9206 199.415 22.8059C199.415 22.6912 199.32 22.5981 199.204 22.5981C199.088 22.5981 198.994 22.6912 198.994 22.8059C198.994 22.9206 199.088 23.0136 199.204 23.0136Z" fill="white"/>
<path d="M198.214 22.8059C198.214 22.6912 198.12 22.5981 198.003 22.5981C197.887 22.5981 197.793 22.6912 197.793 22.8059C197.793 22.9206 197.887 23.0136 198.003 23.0136C198.12 23.0136 198.214 22.9206 198.214 22.8059Z" fill="white"/>
<path d="M197.013 22.8059C197.013 22.6912 196.919 22.5981 196.803 22.5981C196.686 22.5981 196.592 22.6912 196.592 22.8059C196.592 22.9206 196.686 23.0136 196.803 23.0136C196.919 23.0136 197.013 22.9206 197.013 22.8059Z" fill="white"/>
<path d="M202.436 29.017C203.191 29.017 203.805 28.4096 203.805 27.6631C203.805 26.9167 203.191 26.3093 202.436 26.3093C201.68 26.3093 201.066 26.9167 201.066 27.6631C201.066 28.4097 201.68 29.017 202.436 29.017ZM202.436 26.7248C202.959 26.7248 203.385 27.1457 203.385 27.6632C203.385 28.1806 202.959 28.6015 202.436 28.6015C201.912 28.6015 201.486 28.1806 201.486 27.6632C201.486 27.1457 201.912 26.7248 202.436 26.7248Z" fill="white"/>
<path d="M193.571 26.3093C193.019 26.3093 192.524 26.6339 192.309 27.1361C192.263 27.2418 192.313 27.3637 192.42 27.4084C192.527 27.4531 192.651 27.4036 192.696 27.298C192.845 26.9498 193.188 26.7248 193.571 26.7248C194.094 26.7248 194.52 27.1457 194.52 27.6632C194.52 28.1806 194.094 28.6015 193.571 28.6015C193.188 28.6015 192.845 28.3765 192.696 28.0283C192.651 27.9227 192.527 27.8732 192.42 27.918C192.313 27.9626 192.263 28.0845 192.309 28.1902C192.524 28.6925 193.019 29.017 193.571 29.017C194.326 29.017 194.941 28.4097 194.941 27.6632C194.941 26.9166 194.326 26.3093 193.571 26.3093Z" fill="white"/>
<path d="M204.525 26.4744C204.089 25.7277 203.308 25.2819 202.436 25.2819C202.378 25.2819 202.321 25.2839 202.264 25.2878L202.289 25.2452C203.183 23.714 203.183 21.8856 202.289 20.3545C201.394 18.8232 199.792 17.9091 198.003 17.9091C196.214 17.9091 194.612 18.8232 193.718 20.3544C192.823 21.8856 192.823 23.714 193.718 25.2452L193.743 25.2878C193.686 25.2839 193.628 25.2819 193.571 25.2819C192.698 25.2819 191.917 25.7277 191.481 26.4744C191.045 27.2211 191.045 28.1127 191.481 28.8595L193.267 31.9178C193.331 32.0261 193.444 32.0909 193.571 32.0909C193.697 32.0909 193.811 32.0261 193.874 31.9178L195.661 28.8595C195.69 28.8101 195.716 28.7601 195.741 28.7096L197.573 31.8457C197.663 31.9992 197.824 32.0909 198.003 32.0909C198.183 32.0909 198.343 31.9992 198.433 31.8457L200.265 28.7095C200.29 28.7601 200.317 28.8101 200.346 28.8595L200.654 29.3871C200.712 29.4865 200.84 29.5204 200.941 29.4631C201.041 29.4057 201.076 29.2787 201.018 29.1793L200.71 28.6517C200.349 28.0351 200.349 27.2988 200.71 26.6821C201.07 26.0655 201.715 25.6973 202.436 25.6973C203.156 25.6973 203.801 26.0655 204.161 26.6821C204.522 27.2988 204.522 28.0351 204.161 28.6517L202.436 31.6061L201.476 29.964C201.418 29.8646 201.29 29.8306 201.189 29.8879C201.089 29.9453 201.054 30.0723 201.112 30.1717L202.132 31.9178C202.195 32.0261 202.309 32.0909 202.436 32.0909C202.562 32.0909 202.676 32.0261 202.739 31.9178L204.525 28.8595C204.962 28.1128 204.962 27.2211 204.525 26.4744ZM193.571 31.6061L191.845 28.6518C191.485 28.0351 191.485 27.2988 191.845 26.6822C192.205 26.0655 192.85 25.6974 193.571 25.6974C194.291 25.6974 194.936 26.0655 195.297 26.6822C195.657 27.2988 195.657 28.0351 195.297 28.6518L193.571 31.6061ZM200.346 26.4744C200.033 27.0093 199.945 27.6185 200.08 28.1956L198.069 31.6379C198.05 31.6705 198.02 31.6754 198.003 31.6754C197.987 31.6754 197.957 31.6705 197.938 31.6379L195.927 28.1956C196.062 27.6185 195.973 27.0093 195.661 26.4744C195.348 25.9395 194.859 25.5591 194.285 25.3863L194.082 25.0374C193.263 23.6363 193.263 21.9633 194.082 20.5622C194.9 19.161 196.366 18.3245 198.003 18.3245C199.64 18.3245 201.106 19.161 201.925 20.5622C202.743 21.9633 202.743 23.6363 201.925 25.0374L201.721 25.3863C201.148 25.5591 200.658 25.9395 200.346 26.4744Z" fill="white"/>
<path d="M200.277 20.5791C199.68 19.9832 198.883 19.6505 198.035 19.6424C198.025 19.6423 198.014 19.6422 198.004 19.6422C197.251 19.6422 196.519 19.9081 195.94 20.3928C195.359 20.8787 194.971 21.5502 194.846 22.2837C194.827 22.3969 194.904 22.504 195.018 22.523C195.133 22.542 195.241 22.4657 195.261 22.3526C195.369 21.7158 195.706 21.1324 196.211 20.7099C196.721 20.2831 197.367 20.0518 198.031 20.0579C198.768 20.0649 199.459 20.3539 199.978 20.8716C200.498 21.3896 200.784 22.0766 200.784 22.806C200.784 23.3724 200.611 23.9161 200.284 24.3784C199.964 24.8304 199.52 25.1737 199 25.3714C198.87 25.4216 198.76 25.5147 198.691 25.6335L198.003 26.8108L197.315 25.6334C197.246 25.5145 197.136 25.4213 197.004 25.3707C196.071 25.0154 195.4 24.1892 195.253 23.2145C195.236 23.101 195.129 23.0228 195.014 23.0396C194.899 23.0565 194.82 23.1622 194.837 23.2757C195.006 24.3981 195.779 25.3494 196.852 25.7581C196.894 25.7743 196.93 25.8038 196.951 25.8412L197.7 27.1225C197.763 27.2308 197.877 27.2955 198.003 27.2956H198.003C198.13 27.2956 198.243 27.2309 198.307 27.1225L199.055 25.8412C199.077 25.8038 199.112 25.7744 199.152 25.7588C199.75 25.5316 200.26 25.1366 200.628 24.6165C201.005 24.084 201.204 23.458 201.204 22.8059C201.204 21.9663 200.875 21.1755 200.277 20.5791Z" fill="white"/>
<line x1="271.401" y1="14" x2="271.401" y2="36" stroke="white"/>
<path d="M306.02 29V21.7273H306.901V24.9659H310.779V21.7273H311.659V29H310.779V25.7472H306.901V29H306.02ZM315.188 29.1136C314.662 29.1136 314.209 28.9976 313.828 28.7656C313.449 28.5312 313.157 28.2045 312.951 27.7855C312.747 27.3641 312.645 26.8741 312.645 26.3153C312.645 25.7566 312.747 25.2642 312.951 24.8381C313.157 24.4096 313.443 24.0758 313.81 23.8366C314.179 23.5952 314.61 23.4744 315.103 23.4744C315.387 23.4744 315.667 23.5218 315.944 23.6165C316.221 23.7112 316.473 23.8651 316.701 24.0781C316.928 24.2888 317.109 24.5682 317.244 24.9162C317.379 25.2642 317.446 25.6927 317.446 26.2017V26.5568H313.242V25.8324H316.594C316.594 25.5246 316.533 25.25 316.409 25.0085C316.289 24.767 316.116 24.5765 315.891 24.4368C315.668 24.2971 315.406 24.2273 315.103 24.2273C314.769 24.2273 314.48 24.3101 314.236 24.4759C313.995 24.6392 313.809 24.8523 313.679 25.1151C313.548 25.3778 313.483 25.6596 313.483 25.9602V26.4432C313.483 26.8551 313.554 27.2043 313.696 27.4908C313.841 27.7749 314.041 27.9915 314.296 28.1406C314.552 28.2874 314.849 28.3608 315.188 28.3608C315.408 28.3608 315.607 28.33 315.784 28.2685C315.964 28.2045 316.119 28.1098 316.25 27.9844C316.38 27.8565 316.48 27.6979 316.551 27.5085L317.361 27.7358C317.276 28.0104 317.133 28.2519 316.931 28.4602C316.73 28.6662 316.482 28.8272 316.186 28.9432C315.89 29.0568 315.557 29.1136 315.188 29.1136ZM319.151 21.7273V29H318.313V21.7273H319.151ZM320.278 31.0455V23.5455H321.088V24.4119H321.187C321.249 24.3172 321.334 24.1965 321.443 24.0497C321.554 23.9006 321.713 23.768 321.919 23.652C322.127 23.5336 322.409 23.4744 322.764 23.4744C323.223 23.4744 323.628 23.5893 323.979 23.8189C324.329 24.0485 324.602 24.3741 324.799 24.7955C324.995 25.2169 325.094 25.714 325.094 26.2869C325.094 26.8646 324.995 27.3653 324.799 27.7891C324.602 28.2105 324.33 28.5372 323.982 28.7692C323.634 28.9988 323.233 29.1136 322.778 29.1136C322.428 29.1136 322.147 29.0556 321.937 28.9396C321.726 28.8213 321.564 28.6875 321.45 28.5384C321.336 28.3868 321.249 28.2614 321.187 28.1619H321.116V31.0455H320.278ZM321.102 26.2727C321.102 26.6847 321.162 27.0481 321.283 27.3629C321.404 27.6754 321.58 27.9205 321.812 28.098C322.044 28.2732 322.328 28.3608 322.665 28.3608C323.015 28.3608 323.307 28.2685 323.542 28.0838C323.778 27.8968 323.956 27.6458 324.074 27.331C324.195 27.0137 324.256 26.661 324.256 26.2727C324.256 25.8892 324.196 25.5436 324.078 25.2358C323.962 24.9257 323.786 24.6806 323.549 24.5007C323.314 24.3184 323.02 24.2273 322.665 24.2273C322.324 24.2273 322.037 24.3137 321.805 24.4865C321.573 24.657 321.398 24.8961 321.28 25.2038C321.161 25.5092 321.102 25.8655 321.102 26.2727Z" fill="white"/>
<path d="M287.958 27.3329C287.927 27.3666 287.898 27.4021 287.872 27.4392C287.844 27.4788 287.823 27.5217 287.807 27.5669C287.786 27.6071 287.772 27.6501 287.764 27.6945C287.76 27.7417 287.76 27.7891 287.764 27.8363C287.761 27.9293 287.781 28.0216 287.821 28.1058C287.854 28.1938 287.905 28.2737 287.972 28.3399C288.039 28.406 288.12 28.4568 288.209 28.4887C288.295 28.5262 288.387 28.5456 288.481 28.5456C288.575 28.5456 288.668 28.5262 288.754 28.4887C288.843 28.4568 288.924 28.406 288.991 28.3399C289.058 28.2737 289.109 28.1938 289.141 28.1058C289.173 28.0196 289.188 27.9281 289.185 27.8363C289.185 27.743 289.167 27.6505 289.131 27.5641C289.096 27.4777 289.043 27.3991 288.976 27.3329C288.91 27.2664 288.83 27.2137 288.743 27.1777C288.656 27.1417 288.562 27.1231 288.467 27.1231C288.372 27.1231 288.279 27.1417 288.191 27.1777C288.104 27.2137 288.024 27.2664 287.958 27.3329ZM288.467 17.9091C287.048 17.9091 285.661 18.3249 284.481 19.1041C283.301 19.8832 282.382 20.9907 281.838 22.2864C281.295 23.5821 281.153 25.0078 281.43 26.3833C281.707 27.7588 282.39 29.0223 283.394 30.014C284.397 31.0057 285.676 31.681 287.067 31.9546C288.459 32.2282 289.902 32.0878 291.213 31.5511C292.524 31.0144 293.644 30.1056 294.433 28.9395C295.221 27.7734 295.642 26.4024 295.642 25C295.642 24.0688 295.456 23.1467 295.096 22.2864C294.735 21.4261 294.207 20.6444 293.54 19.9859C292.874 19.3275 292.083 18.8052 291.213 18.4488C290.342 18.0925 289.409 17.9091 288.467 17.9091ZM288.467 30.6727C287.332 30.6727 286.222 30.34 285.278 29.7167C284.334 29.0933 283.599 28.2074 283.164 27.1708C282.73 26.1343 282.616 24.9937 282.838 23.8933C283.059 22.7929 283.606 21.7821 284.408 20.9887C285.211 20.1954 286.234 19.6551 287.347 19.4362C288.461 19.2174 289.615 19.3297 290.664 19.759C291.712 20.1884 292.609 20.9155 293.239 21.8484C293.87 22.7812 294.207 23.878 294.207 25C294.207 26.5045 293.602 27.9473 292.526 29.0112C291.449 30.075 289.989 30.6727 288.467 30.6727ZM288.467 21.4545C288.089 21.4543 287.718 21.5525 287.39 21.7392C287.063 21.9259 286.791 22.1946 286.602 22.5181C286.55 22.5989 286.515 22.6891 286.499 22.7835C286.483 22.8778 286.487 22.9744 286.51 23.0673C286.533 23.1601 286.575 23.2475 286.633 23.324C286.691 23.4005 286.764 23.4646 286.848 23.5125C286.932 23.5603 287.025 23.5909 287.121 23.6025C287.217 23.614 287.314 23.6062 287.407 23.5796C287.5 23.5529 287.586 23.508 287.661 23.4474C287.736 23.3869 287.798 23.312 287.843 23.2272C287.906 23.119 287.997 23.0292 288.107 22.967C288.216 22.9047 288.341 22.8722 288.467 22.8727C288.657 22.8727 288.84 22.9474 288.974 23.0804C289.109 23.2134 289.185 23.3937 289.185 23.5818C289.185 23.7698 289.109 23.9502 288.974 24.0832C288.84 24.2162 288.657 24.2909 288.467 24.2909C288.277 24.2909 288.094 24.3656 287.96 24.4986C287.825 24.6315 287.75 24.8119 287.75 25V25.7091C287.75 25.8971 287.825 26.0775 287.96 26.2105C288.094 26.3434 288.277 26.4181 288.467 26.4181C288.657 26.4181 288.84 26.3434 288.974 26.2105C289.109 26.0775 289.185 25.8971 289.185 25.7091V25.5814C289.659 25.4113 290.058 25.0817 290.311 24.6503C290.565 24.2189 290.657 23.7132 290.572 23.2215C290.486 22.7298 290.229 22.2835 289.844 21.9605C289.459 21.6375 288.972 21.4584 288.467 21.4545Z" fill="white"/>
</svg>
