<svg width="21" height="20" viewBox="0 0 21 20" fill="none" xmlns="http://www.w3.org/2000/svg">
<path d="M9.18482 16.8842H5.85149C4.77139 16.8802 3.89566 16.0077 3.88772 14.9277V8.29722C3.88984 7.93565 4.05163 7.5935 4.32975 7.36244L4.91671 6.92765C5.13099 6.69935 5.15278 6.35097 4.96861 6.09774C4.78445 5.84451 4.44631 5.75791 4.16308 5.89142L3.56163 6.3407C2.95494 6.81013 2.5949 7.5302 2.58337 8.29722V14.9349C2.58736 16.7382 4.04821 18.199 5.85149 18.203H9.18482C9.54501 18.203 9.837 17.911 9.837 17.5508C9.837 17.1907 9.54501 16.8987 9.18482 16.8987V16.8842Z" fill="#2AA241"/>
<path d="M18.2428 8.28255C18.2352 7.52116 17.8868 6.80323 17.2935 6.32602L12.2863 2.33327C11.1859 1.44881 9.61847 1.44881 8.51814 2.33327L6.93118 3.48544C6.63303 3.69955 6.56489 4.11483 6.77901 4.41298C6.99312 4.71113 7.40839 4.77926 7.70654 4.56515L9.31524 3.36226C9.94665 2.84243 10.8577 2.84243 11.4892 3.36226L16.4964 7.35501C16.7846 7.58346 16.9549 7.92932 16.9602 8.29704V14.9347C16.9602 16.0153 16.0842 16.8912 15.0036 16.8912H13.5181C13.3661 16.8912 13.2428 16.768 13.2428 16.6159V13.6231C13.2428 12.6695 12.4718 11.8952 11.5181 11.8912H9.34422C8.8849 11.8912 8.44439 12.0737 8.1196 12.3985C7.7948 12.7233 7.61234 13.1638 7.61234 13.6231V14.7681C7.61234 15.1282 7.90433 15.4202 8.26451 15.4202C8.6247 15.4202 8.91669 15.1282 8.91669 14.7681V13.6231C8.91474 13.5104 8.95816 13.4016 9.0372 13.3212C9.11623 13.2408 9.22424 13.1956 9.33698 13.1956H11.5109C11.743 13.1956 11.9312 13.3838 11.9312 13.6159V16.6159C11.9352 17.4895 12.6445 18.1956 13.5181 18.1956H14.9674C16.7723 18.1956 18.2355 16.7324 18.2355 14.9275L18.2428 8.28255Z" fill="#2AA241"/>
</svg>
