<svg width="40" height="40" viewBox="0 0 40 40" fill="none" xmlns="http://www.w3.org/2000/svg">
<rect width="40" height="40" rx="10" fill="white"/>
<g clip-path="url(#clip0_498_12654)">
<path d="M20 17V22" stroke="#B22234" stroke-width="2" stroke-linecap="round" stroke-linejoin="round"/>
<path d="M18.2691 8.99809L7.27204 27.9971C7.09608 28.3011 7.00328 28.6461 7.00299 28.9974C7.0027 29.3486 7.09493 29.6938 7.27039 29.9981C7.44585 30.3024 7.69836 30.5551 8.00252 30.7308C8.30667 30.9065 8.65174 30.999 9.003 30.999H30.9971C31.3483 30.999 31.6934 30.9065 31.9975 30.7308C32.3017 30.5551 32.5542 30.3024 32.7297 29.9981C32.9051 29.6938 32.9974 29.3486 32.9971 28.9974C32.9968 28.6461 32.904 28.3011 32.728 27.9971L21.731 8.99809C21.5553 8.69457 21.3029 8.44258 20.9991 8.2674C20.6953 8.09222 20.3507 8 20 8C19.6493 8 19.3048 8.09222 19.001 8.2674C18.6972 8.44258 18.4448 8.69457 18.2691 8.99809Z" stroke="#B22234" stroke-linecap="round" stroke-linejoin="round"/>
<path d="M20 28C20.8284 28 21.5 27.3284 21.5 26.5C21.5 25.6716 20.8284 25 20 25C19.1716 25 18.5 25.6716 18.5 26.5C18.5 27.3284 19.1716 28 20 28Z" fill="#B22234"/>
</g>
<defs>
<clipPath id="clip0_498_12654">
<rect width="32" height="32" fill="white" transform="translate(4 4)"/>
</clipPath>
</defs>
</svg>
