<svg width="24" height="24" viewBox="0 0 24 24" fill="none" xmlns="http://www.w3.org/2000/svg">
<g clip-path="url(#clip0_224_4268)">
<path d="M8.25 3C8.34945 2.99999 8.44483 2.96048 8.51516 2.89016C8.58548 2.81983 8.625 2.72445 8.625 2.625V1.875C8.625 1.77554 8.58549 1.68016 8.51517 1.60984C8.44484 1.53951 8.34946 1.5 8.25 1.5C8.15054 1.5 8.05516 1.53951 7.98483 1.60984C7.91451 1.68016 7.875 1.77554 7.875 1.875V2.625C7.875 2.72445 7.91452 2.81983 7.98484 2.89016C8.05517 2.96048 8.15055 2.99999 8.25 3ZM9.75 3C9.84945 2.99999 9.94483 2.96048 10.0152 2.89016C10.0855 2.81983 10.125 2.72445 10.125 2.625V1.875C10.125 1.77554 10.0855 1.68016 10.0152 1.60984C9.94484 1.53951 9.84946 1.5 9.75 1.5C9.65054 1.5 9.55516 1.53951 9.48483 1.60984C9.41451 1.68016 9.375 1.77554 9.375 1.875V2.625C9.375 2.72445 9.41452 2.81983 9.48484 2.89016C9.55517 2.96048 9.65055 2.99999 9.75 3ZM11.25 3C11.3495 2.99999 11.4448 2.96048 11.5152 2.89016C11.5855 2.81983 11.625 2.72445 11.625 2.625V1.875C11.625 1.77554 11.5855 1.68016 11.5152 1.60984C11.4448 1.53951 11.3495 1.5 11.25 1.5C11.1505 1.5 11.0552 1.53951 10.9848 1.60984C10.9145 1.68016 10.875 1.77554 10.875 1.875V2.625C10.875 2.72445 10.9145 2.81983 10.9848 2.89016C11.0552 2.96048 11.1505 2.99999 11.25 3ZM12.75 3C12.8495 2.99999 12.9448 2.96048 13.0152 2.89016C13.0855 2.81983 13.125 2.72445 13.125 2.625V1.875C13.125 1.77554 13.0855 1.68016 13.0152 1.60984C12.9448 1.53951 12.8495 1.5 12.75 1.5C12.6505 1.5 12.5552 1.53951 12.4848 1.60984C12.4145 1.68016 12.375 1.77554 12.375 1.875V2.625C12.375 2.72445 12.4145 2.81983 12.4848 2.89016C12.5552 2.96048 12.6505 2.99999 12.75 3ZM14.25 3C14.3495 2.99999 14.4448 2.96048 14.5152 2.89016C14.5855 2.81983 14.625 2.72445 14.625 2.625V1.875C14.625 1.77554 14.5855 1.68016 14.5152 1.60984C14.4448 1.53951 14.3495 1.5 14.25 1.5C14.1505 1.5 14.0552 1.53951 13.9848 1.60984C13.9145 1.68016 13.875 1.77554 13.875 1.875V2.625C13.875 2.72445 13.9145 2.81983 13.9848 2.89016C14.0552 2.96048 14.1505 2.99999 14.25 3ZM15.75 3C15.8495 2.99999 15.9448 2.96048 16.0152 2.89016C16.0855 2.81983 16.125 2.72445 16.125 2.625V1.875C16.125 1.77554 16.0855 1.68016 16.0152 1.60984C15.9448 1.53951 15.8495 1.5 15.75 1.5C15.6505 1.5 15.5552 1.53951 15.4848 1.60984C15.4145 1.68016 15.375 1.77554 15.375 1.875V2.625C15.375 2.72445 15.4145 2.81983 15.4848 2.89016C15.5552 2.96048 15.6505 2.99999 15.75 3ZM2.4375 10.125C2.4375 10.0255 2.39799 9.93016 2.32766 9.85983C2.25734 9.78951 2.16196 9.75 2.0625 9.75C1.96304 9.75 1.86766 9.78951 1.79734 9.85983C1.72701 9.93016 1.6875 10.0255 1.6875 10.125V10.875C1.6875 10.9745 1.72701 11.0698 1.79734 11.1402C1.86766 11.2105 1.96304 11.25 2.0625 11.25C2.16196 11.25 2.25734 11.2105 2.32766 11.1402C2.39799 11.0698 2.4375 10.9745 2.4375 10.875V10.125ZM3.5625 11.25C3.66195 11.25 3.75733 11.2105 3.82766 11.1402C3.89798 11.0698 3.93749 10.9745 3.9375 10.875V10.125C3.9375 10.0255 3.89799 9.93016 3.82766 9.85983C3.75734 9.78951 3.66196 9.75 3.5625 9.75C3.46304 9.75 3.36766 9.78951 3.29734 9.85983C3.22701 9.93016 3.1875 10.0255 3.1875 10.125V10.875C3.18751 10.9745 3.22702 11.0698 3.29734 11.1402C3.36767 11.2105 3.46305 11.25 3.5625 11.25ZM5.0625 11.25C5.16195 11.25 5.25733 11.2105 5.32766 11.1402C5.39798 11.0698 5.43749 10.9745 5.4375 10.875V10.125C5.4375 10.0255 5.39799 9.93016 5.32766 9.85983C5.25734 9.78951 5.16196 9.75 5.0625 9.75C4.96304 9.75 4.86766 9.78951 4.79734 9.85983C4.72701 9.93016 4.6875 10.0255 4.6875 10.125V10.875C4.68751 10.9745 4.72702 11.0698 4.79734 11.1402C4.86767 11.2105 4.96305 11.25 5.0625 11.25ZM2.4375 12.375C2.4375 12.2755 2.39799 12.1802 2.32766 12.1098C2.25734 12.0395 2.16196 12 2.0625 12C1.96304 12 1.86766 12.0395 1.79734 12.1098C1.72701 12.1802 1.6875 12.2755 1.6875 12.375V13.125C1.6875 13.2245 1.72701 13.3198 1.79734 13.3902C1.86766 13.4605 1.96304 13.5 2.0625 13.5C2.16196 13.5 2.25734 13.4605 2.32766 13.3902C2.39799 13.3198 2.4375 13.2245 2.4375 13.125V12.375ZM3.1875 13.125C3.1875 13.2245 3.22701 13.3198 3.29734 13.3902C3.36766 13.4605 3.46304 13.5 3.5625 13.5C3.66196 13.5 3.75734 13.4605 3.82766 13.3902C3.89799 13.3198 3.9375 13.2245 3.9375 13.125V12.375C3.9375 12.2755 3.89799 12.1802 3.82766 12.1098C3.75734 12.0395 3.66196 12 3.5625 12C3.46304 12 3.36766 12.0395 3.29734 12.1098C3.22701 12.1802 3.1875 12.2755 3.1875 12.375V13.125ZM4.6875 13.125C4.6875 13.2245 4.72701 13.3198 4.79734 13.3902C4.86766 13.4605 4.96304 13.5 5.0625 13.5C5.16196 13.5 5.25734 13.4605 5.32766 13.3902C5.39799 13.3198 5.4375 13.2245 5.4375 13.125V12.375C5.4375 12.2755 5.39799 12.1802 5.32766 12.1098C5.25734 12.0395 5.16196 12 5.0625 12C4.96304 12 4.86766 12.0395 4.79734 12.1098C4.72701 12.1802 4.6875 12.2755 4.6875 12.375V13.125ZM2.4375 14.625C2.4375 14.5255 2.39799 14.4302 2.32766 14.3598C2.25734 14.2895 2.16196 14.25 2.0625 14.25C1.96304 14.25 1.86766 14.2895 1.79734 14.3598C1.72701 14.4302 1.6875 14.5255 1.6875 14.625V15.375C1.6875 15.4745 1.72701 15.5698 1.79734 15.6402C1.86766 15.7105 1.96304 15.75 2.0625 15.75C2.16196 15.75 2.25734 15.7105 2.32766 15.6402C2.39799 15.5698 2.4375 15.4745 2.4375 15.375V14.625ZM3.1875 15.375C3.1875 15.4745 3.22701 15.5698 3.29734 15.6402C3.36766 15.7105 3.46304 15.75 3.5625 15.75C3.66196 15.75 3.75734 15.7105 3.82766 15.6402C3.89799 15.5698 3.9375 15.4745 3.9375 15.375V14.625C3.9375 14.5255 3.89799 14.4302 3.82766 14.3598C3.75734 14.2895 3.66196 14.25 3.5625 14.25C3.46304 14.25 3.36766 14.2895 3.29734 14.3598C3.22701 14.4302 3.1875 14.5255 3.1875 14.625V15.375ZM4.6875 15.375C4.6875 15.4745 4.72701 15.5698 4.79734 15.6402C4.86766 15.7105 4.96304 15.75 5.0625 15.75C5.16196 15.75 5.25734 15.7105 5.32766 15.6402C5.39799 15.5698 5.4375 15.4745 5.4375 15.375V14.625C5.4375 14.5255 5.39799 14.4302 5.32766 14.3598C5.25734 14.2895 5.16196 14.25 5.0625 14.25C4.96304 14.25 4.86766 14.2895 4.79734 14.3598C4.72701 14.4302 4.6875 14.5255 4.6875 14.625V15.375ZM2.4375 16.875C2.4375 16.7755 2.39799 16.6802 2.32766 16.6098C2.25734 16.5395 2.16196 16.5 2.0625 16.5C1.96304 16.5 1.86766 16.5395 1.79734 16.6098C1.72701 16.6802 1.6875 16.7755 1.6875 16.875V17.625C1.6875 17.7245 1.72701 17.8198 1.79734 17.8902C1.86766 17.9605 1.96304 18 2.0625 18C2.16196 18 2.25734 17.9605 2.32766 17.8902C2.39799 17.8198 2.4375 17.7245 2.4375 17.625V16.875ZM2.4375 19.125C2.4375 19.0255 2.39799 18.9302 2.32766 18.8598C2.25734 18.7895 2.16196 18.75 2.0625 18.75C1.96304 18.75 1.86766 18.7895 1.79734 18.8598C1.72701 18.9302 1.6875 19.0255 1.6875 19.125V19.875C1.6875 19.9745 1.72701 20.0698 1.79734 20.1402C1.86766 20.2105 1.96304 20.25 2.0625 20.25C2.16196 20.25 2.25734 20.2105 2.32766 20.1402C2.39799 20.0698 2.4375 19.9745 2.4375 19.875V19.125ZM2.0625 21C1.96305 21 1.86767 21.0395 1.79734 21.1098C1.72702 21.1802 1.6875 21.2755 1.6875 21.375V22.125C1.6875 22.2245 1.72701 22.3198 1.79734 22.3902C1.86766 22.4605 1.96304 22.5 2.0625 22.5C2.16196 22.5 2.25734 22.4605 2.32766 22.3902C2.39799 22.3198 2.4375 22.2245 2.4375 22.125V21.375C2.4375 21.2755 2.39798 21.1802 2.32766 21.1098C2.25733 21.0395 2.16195 21 2.0625 21ZM18.9375 11.25C19.037 11.25 19.1323 11.2105 19.2027 11.1402C19.273 11.0698 19.3125 10.9745 19.3125 10.875V10.125C19.3125 10.0255 19.273 9.93016 19.2027 9.85983C19.1323 9.78951 19.037 9.75 18.9375 9.75C18.838 9.75 18.7427 9.78951 18.6723 9.85983C18.602 9.93016 18.5625 10.0255 18.5625 10.125V10.875C18.5625 10.9745 18.602 11.0698 18.6723 11.1402C18.7427 11.2105 18.838 11.25 18.9375 11.25ZM20.4375 11.25C20.537 11.25 20.6323 11.2105 20.7027 11.1402C20.773 11.0698 20.8125 10.9745 20.8125 10.875V10.125C20.8125 10.0255 20.773 9.93016 20.7027 9.85983C20.6323 9.78951 20.537 9.75 20.4375 9.75C20.338 9.75 20.2427 9.78951 20.1723 9.85983C20.102 9.93016 20.0625 10.0255 20.0625 10.125V10.875C20.0625 10.9745 20.102 11.0698 20.1723 11.1402C20.2427 11.2105 20.338 11.25 20.4375 11.25ZM21.9375 11.25C22.037 11.25 22.1323 11.2105 22.2027 11.1402C22.273 11.0698 22.3125 10.9745 22.3125 10.875V10.125C22.3125 10.0255 22.273 9.93016 22.2027 9.85983C22.1323 9.78951 22.037 9.75 21.9375 9.75C21.838 9.75 21.7427 9.78951 21.6723 9.85983C21.602 9.93016 21.5625 10.0255 21.5625 10.125V10.875C21.5625 10.9745 21.602 11.0698 21.6723 11.1402C21.7427 11.2105 21.838 11.25 21.9375 11.25ZM18.5625 13.125C18.5625 13.2245 18.602 13.3198 18.6723 13.3902C18.7427 13.4605 18.838 13.5 18.9375 13.5C19.037 13.5 19.1323 13.4605 19.2027 13.3902C19.273 13.3198 19.3125 13.2245 19.3125 13.125V12.375C19.3125 12.2755 19.273 12.1802 19.2027 12.1098C19.1323 12.0395 19.037 12 18.9375 12C18.838 12 18.7427 12.0395 18.6723 12.1098C18.602 12.1802 18.5625 12.2755 18.5625 12.375V13.125ZM20.0625 13.125C20.0625 13.2245 20.102 13.3198 20.1723 13.3902C20.2427 13.4605 20.338 13.5 20.4375 13.5C20.537 13.5 20.6323 13.4605 20.7027 13.3902C20.773 13.3198 20.8125 13.2245 20.8125 13.125V12.375C20.8125 12.2755 20.773 12.1802 20.7027 12.1098C20.6323 12.0395 20.537 12 20.4375 12C20.338 12 20.2427 12.0395 20.1723 12.1098C20.102 12.1802 20.0625 12.2755 20.0625 12.375V13.125ZM21.5625 13.125C21.5625 13.2245 21.602 13.3198 21.6723 13.3902C21.7427 13.4605 21.838 13.5 21.9375 13.5C22.037 13.5 22.1323 13.4605 22.2027 13.3902C22.273 13.3198 22.3125 13.2245 22.3125 13.125V12.375C22.3125 12.2755 22.273 12.1802 22.2027 12.1098C22.1323 12.0395 22.037 12 21.9375 12C21.838 12 21.7427 12.0395 21.6723 12.1098C21.602 12.1802 21.5625 12.2755 21.5625 12.375V13.125ZM18.5625 15.375C18.5625 15.4745 18.602 15.5698 18.6723 15.6402C18.7427 15.7105 18.838 15.75 18.9375 15.75C19.037 15.75 19.1323 15.7105 19.2027 15.6402C19.273 15.5698 19.3125 15.4745 19.3125 15.375V14.625C19.3125 14.5255 19.273 14.4302 19.2027 14.3598C19.1323 14.2895 19.037 14.25 18.9375 14.25C18.838 14.25 18.7427 14.2895 18.6723 14.3598C18.602 14.4302 18.5625 14.5255 18.5625 14.625V15.375ZM20.0625 15.375C20.0625 15.4745 20.102 15.5698 20.1723 15.6402C20.2427 15.7105 20.338 15.75 20.4375 15.75C20.537 15.75 20.6323 15.7105 20.7027 15.6402C20.773 15.5698 20.8125 15.4745 20.8125 15.375V14.625C20.8125 14.5255 20.773 14.4302 20.7027 14.3598C20.6323 14.2895 20.537 14.25 20.4375 14.25C20.338 14.25 20.2427 14.2895 20.1723 14.3598C20.102 14.4302 20.0625 14.5255 20.0625 14.625V15.375ZM21.5625 15.375C21.5625 15.4745 21.602 15.5698 21.6723 15.6402C21.7427 15.7105 21.838 15.75 21.9375 15.75C22.037 15.75 22.1323 15.7105 22.2027 15.6402C22.273 15.5698 22.3125 15.4745 22.3125 15.375V14.625C22.3125 14.5255 22.273 14.4302 22.2027 14.3598C22.1323 14.2895 22.037 14.25 21.9375 14.25C21.838 14.25 21.7427 14.2895 21.6723 14.3598C21.602 14.4302 21.5625 14.5255 21.5625 14.625V15.375ZM21.5625 17.625C21.5625 17.7245 21.602 17.8198 21.6723 17.8902C21.7427 17.9605 21.838 18 21.9375 18C22.037 18 22.1323 17.9605 22.2027 17.8902C22.273 17.8198 22.3125 17.7245 22.3125 17.625V16.875C22.3125 16.7755 22.273 16.6802 22.2027 16.6098C22.1323 16.5395 22.037 16.5 21.9375 16.5C21.838 16.5 21.7427 16.5395 21.6723 16.6098C21.602 16.6802 21.5625 16.7755 21.5625 16.875V17.625ZM21.5625 19.875C21.5625 19.9745 21.602 20.0698 21.6723 20.1402C21.7427 20.2105 21.838 20.25 21.9375 20.25C22.037 20.25 22.1323 20.2105 22.2027 20.1402C22.273 20.0698 22.3125 19.9745 22.3125 19.875V19.125C22.3125 19.0255 22.273 18.9302 22.2027 18.8598C22.1323 18.7895 22.037 18.75 21.9375 18.75C21.838 18.75 21.7427 18.7895 21.6723 18.8598C21.602 18.9302 21.5625 19.0255 21.5625 19.125V19.875ZM21.5625 22.125C21.5625 22.2245 21.602 22.3198 21.6723 22.3902C21.7427 22.4605 21.838 22.5 21.9375 22.5C22.037 22.5 22.1323 22.4605 22.2027 22.3902C22.273 22.3198 22.3125 22.2245 22.3125 22.125V21.375C22.3125 21.2755 22.273 21.1802 22.2027 21.1098C22.1323 21.0395 22.037 21 21.9375 21C21.838 21 21.7427 21.0395 21.6723 21.1098C21.602 21.1802 21.5625 21.2755 21.5625 21.375V22.125ZM7.875 4.875C7.875 4.97446 7.91451 5.06984 7.98483 5.14016C8.05516 5.21049 8.15054 5.25 8.25 5.25C8.34946 5.25 8.44484 5.21049 8.51517 5.14016C8.58549 5.06984 8.625 4.97446 8.625 4.875V4.125C8.625 4.02554 8.58549 3.93016 8.51517 3.85984C8.44484 3.78951 8.34946 3.75 8.25 3.75C8.15054 3.75 8.05516 3.78951 7.98483 3.85984C7.91451 3.93016 7.875 4.02554 7.875 4.125V4.875ZM9.375 4.875C9.375 4.97446 9.41451 5.06984 9.48483 5.14016C9.55516 5.21049 9.65054 5.25 9.75 5.25C9.84946 5.25 9.94484 5.21049 10.0152 5.14016C10.0855 5.06984 10.125 4.97446 10.125 4.875V4.125C10.125 4.02554 10.0855 3.93016 10.0152 3.85984C9.94484 3.78951 9.84946 3.75 9.75 3.75C9.65054 3.75 9.55516 3.78951 9.48483 3.85984C9.41451 3.93016 9.375 4.02554 9.375 4.125V4.875ZM10.875 4.875C10.875 4.97446 10.9145 5.06984 10.9848 5.14016C11.0552 5.21049 11.1505 5.25 11.25 5.25C11.3495 5.25 11.4448 5.21049 11.5152 5.14016C11.5855 5.06984 11.625 4.97446 11.625 4.875V4.125C11.625 4.02554 11.5855 3.93016 11.5152 3.85984C11.4448 3.78951 11.3495 3.75 11.25 3.75C11.1505 3.75 11.0552 3.78951 10.9848 3.85984C10.9145 3.93016 10.875 4.02554 10.875 4.125V4.875ZM12.375 4.875C12.375 4.97446 12.4145 5.06984 12.4848 5.14016C12.5552 5.21049 12.6505 5.25 12.75 5.25C12.8495 5.25 12.9448 5.21049 13.0152 5.14016C13.0855 5.06984 13.125 4.97446 13.125 4.875V4.125C13.125 4.02554 13.0855 3.93016 13.0152 3.85984C12.9448 3.78951 12.8495 3.75 12.75 3.75C12.6505 3.75 12.5552 3.78951 12.4848 3.85984C12.4145 3.93016 12.375 4.02554 12.375 4.125V4.875ZM13.875 4.875C13.875 4.97446 13.9145 5.06984 13.9848 5.14016C14.0552 5.21049 14.1505 5.25 14.25 5.25C14.3495 5.25 14.4448 5.21049 14.5152 5.14016C14.5855 5.06984 14.625 4.97446 14.625 4.875V4.125C14.625 4.02554 14.5855 3.93016 14.5152 3.85984C14.4448 3.78951 14.3495 3.75 14.25 3.75C14.1505 3.75 14.0552 3.78951 13.9848 3.85984C13.9145 3.93016 13.875 4.02554 13.875 4.125V4.875ZM15.375 4.875C15.375 4.97446 15.4145 5.06984 15.4848 5.14016C15.5552 5.21049 15.6505 5.25 15.75 5.25C15.8495 5.25 15.9448 5.21049 16.0152 5.14016C16.0855 5.06984 16.125 4.97446 16.125 4.875V4.125C16.125 4.02554 16.0855 3.93016 16.0152 3.85984C15.9448 3.78951 15.8495 3.75 15.75 3.75C15.6505 3.75 15.5552 3.78951 15.4848 3.85984C15.4145 3.93016 15.375 4.02554 15.375 4.125V4.875Z" fill="#343E25"/>
<path d="M22.875 8.25H20.625V7.5C20.6247 7.20173 20.506 6.91577 20.2951 6.70486C20.0842 6.49396 19.7983 6.37533 19.5 6.375H17.625V1.125C17.6247 0.826731 17.506 0.540772 17.2951 0.329864C17.0842 0.118957 16.7983 0.000325573 16.5 0L7.5 0C7.20173 0.000325573 6.91577 0.118957 6.70486 0.329864C6.49396 0.540772 6.37533 0.826731 6.375 1.125V6.375H4.5C4.20173 6.37533 3.91577 6.49396 3.70486 6.70486C3.49396 6.91577 3.37533 7.20173 3.375 7.5V8.25H1.125C0.826731 8.25033 0.540772 8.36896 0.329864 8.57986C0.118957 8.79077 0.000325573 9.07673 0 9.375L0 22.875C0.000325573 23.1733 0.118957 23.4592 0.329864 23.6701C0.540772 23.881 0.826731 23.9997 1.125 24H3.50477C3.3492 23.7764 3.24777 23.5196 3.20851 23.25H1.125C1.02558 23.2499 0.930276 23.2103 0.859978 23.14C0.78968 23.0697 0.750129 22.9744 0.75 22.875V9.375C0.750129 9.27558 0.78968 9.18028 0.859978 9.10998C0.930276 9.03968 1.02558 9.00013 1.125 9H5.625V8.25H4.125V7.5C4.12513 7.40058 4.16468 7.30528 4.23498 7.23498C4.30528 7.16468 4.40058 7.12513 4.5 7.125H6.375V16.0115L7.125 15.6244V1.125C7.12513 1.02558 7.16468 0.930276 7.23498 0.859978C7.30528 0.78968 7.40058 0.750129 7.5 0.75H16.5C16.5994 0.750129 16.6947 0.78968 16.765 0.859978C16.8353 0.930276 16.8749 1.02558 16.875 1.125V15.5731L17.625 15.9752V7.125H19.5C19.5994 7.12513 19.6947 7.16468 19.765 7.23498C19.8353 7.30528 19.8749 7.40058 19.875 7.5V8.25H18.375V9H22.875C22.9744 9.00013 23.0697 9.03968 23.14 9.10998C23.2103 9.18028 23.2499 9.27558 23.25 9.375V22.875C23.2499 22.9744 23.2103 23.0697 23.14 23.14C23.0697 23.2103 22.9744 23.2499 22.875 23.25H20.7915C20.7522 23.5196 20.6508 23.7764 20.4952 24H22.875C23.1733 23.9997 23.4592 23.881 23.6701 23.6701C23.881 23.4592 23.9997 23.1733 24 22.875V9.375C23.9997 9.07673 23.881 8.79077 23.6701 8.57986C23.4592 8.36896 23.1733 8.25033 22.875 8.25Z" fill="#343E25"/>
<path d="M18.9375 16.5C18.862 16.4999 18.7882 16.5228 18.726 16.5656L19.3125 16.8801V16.875C19.3125 16.7756 19.273 16.6802 19.2027 16.6098C19.1323 16.5395 19.037 16.5 18.9375 16.5ZM3.1875 17.625C3.18756 17.7104 3.21678 17.7932 3.27033 17.8598C3.32388 17.9263 3.39854 17.9725 3.48196 17.9908C3.60445 17.7765 3.75796 17.5814 3.9375 17.412V16.875C3.9375 16.7755 3.89799 16.6802 3.82766 16.6098C3.75734 16.5395 3.66196 16.5 3.5625 16.5C3.46304 16.5 3.36766 16.5395 3.29734 16.6098C3.22701 16.6802 3.1875 16.7755 3.1875 16.875V17.625ZM4.6875 16.8825L5.28461 16.5743C5.22899 16.5328 5.16288 16.5075 5.09371 16.5014C5.02453 16.4954 4.95504 16.5087 4.89302 16.5399C4.831 16.5711 4.77891 16.619 4.74261 16.6782C4.7063 16.7374 4.68722 16.8056 4.6875 16.875V16.8825ZM20.8125 17.625V16.875C20.8125 16.7755 20.773 16.6802 20.7027 16.6098C20.6323 16.5395 20.537 16.5 20.4375 16.5C20.338 16.5 20.2427 16.5395 20.1723 16.6098C20.102 16.6802 20.0625 16.7755 20.0625 16.875V17.3977C20.2472 17.5691 20.404 17.7683 20.5272 17.988C20.6085 17.9681 20.6808 17.9215 20.7325 17.8557C20.7842 17.7899 20.8124 17.7087 20.8125 17.625Z" fill="#343E25"/>
<path d="M19.1095 17.6228C19.1036 17.6193 15.0861 15.4656 15.0746 15.4609C15.0246 15.4415 14.9809 15.4087 14.9485 15.366C14.9161 15.3234 14.8961 15.2725 14.8909 15.2192V13.603C15.1922 13.0761 15.4274 12.514 15.5913 11.9295C15.6955 11.5593 15.7489 11.1766 15.75 10.792C15.7491 10.467 15.7036 10.1436 15.6146 9.83102C15.7292 9.732 15.8301 9.61809 15.9145 9.49231C16.1028 9.17225 16.1657 8.79369 16.0909 8.42994C16.0161 8.06618 15.8091 7.74311 15.5098 7.52327C14.9207 7.05317 14.2713 6.66422 13.5789 6.36683C13.0576 6.1331 12.4942 6.00827 11.9231 6C11.415 6.0028 10.9142 6.12157 10.459 6.34725C10.0038 6.57293 9.60606 6.89957 9.29622 7.30227C8.32754 7.62461 8.20584 9.26652 8.26158 10.5194C8.25468 10.6095 8.25003 10.7002 8.25003 10.792C8.27576 11.9464 8.61626 13.0719 9.23478 14.047V15.2192C9.23538 15.2702 9.22101 15.3203 9.19344 15.3633C9.16588 15.4062 9.12633 15.4402 9.07968 15.4609C9.06997 15.4649 9.06045 15.4693 9.05129 15.4741C9.05129 15.4741 4.89773 17.6184 4.89004 17.6232C4.25796 18.0101 3.93753 18.5134 3.93753 19.1191V22.9913C3.9356 23.2565 4.03895 23.5116 4.22489 23.7007C4.41084 23.8898 4.6642 23.9975 4.9294 24H19.0707C19.3358 23.9975 19.5892 23.8898 19.7752 23.7007C19.9611 23.5116 20.0645 23.2565 20.0625 22.9913V19.1191C20.0625 18.4775 19.7774 18.03 19.1095 17.6228ZM9.53303 8.0139L9.77144 7.93457L9.91394 7.72762C10.1553 7.42574 10.4608 7.18138 10.8083 7.01228C11.1558 6.84318 11.5366 6.75359 11.9231 6.75C12.3927 6.75923 12.8556 6.86346 13.2839 7.0564C13.9154 7.32711 14.5074 7.68185 15.0439 8.11101C15.1953 8.21518 15.3036 8.3709 15.3486 8.54909C15.3936 8.72728 15.3722 8.91576 15.2884 9.07933C15.035 9.46348 14.3523 9.75097 13.4622 9.8484C13.3146 9.86478 13.1662 9.87313 13.0176 9.87342C12.7792 9.87478 12.5414 9.84916 12.3087 9.79706C11.9451 9.66512 11.5992 9.48864 11.279 9.27163C11.1727 9.19414 11.0505 9.14122 10.9212 9.11668C10.7919 9.09215 10.6588 9.09662 10.5314 9.12977C10.4041 9.16291 10.2857 9.22392 10.1847 9.30837C10.0838 9.39282 10.0029 9.49862 9.94784 9.61813C9.8613 9.59571 9.77227 9.58434 9.68287 9.58431C9.43665 9.58507 9.1977 9.66848 9.00453 9.82116C9.03179 8.88211 9.2035 8.12355 9.53303 8.0139ZM9.07393 11.587C9.06531 11.4982 9.05507 11.3894 9.05443 11.3753C9.04195 11.2455 9.05673 11.1145 9.09782 10.9907C9.17955 10.7619 9.39103 10.3343 9.68272 10.3343C9.72608 10.3346 9.76893 10.3436 9.80876 10.3607C9.80954 10.3611 10.2697 10.5535 10.2697 10.5535C10.3108 10.5659 10.355 10.5625 10.3937 10.544C10.4323 10.5254 10.4627 10.4931 10.4788 10.4533L10.6228 9.94889C10.6311 9.92041 10.6485 9.89542 10.6723 9.87776C10.6961 9.8601 10.7251 9.85074 10.7548 9.8511C10.7848 9.85112 10.814 9.86067 10.8382 9.87839C11.2368 10.154 11.6722 10.372 12.1317 10.5259C12.4223 10.5922 12.7195 10.6249 13.0176 10.6234C13.1934 10.6232 13.3691 10.6133 13.5439 10.5939C14.025 10.5462 14.4965 10.4282 14.9434 10.2436C14.9803 10.4241 14.9993 10.6078 15 10.792C14.9991 11.1083 14.955 11.4231 14.869 11.7276C14.5362 12.9179 13.8977 13.9615 13.1175 14.5908C12.7871 14.8579 12.3744 15.0025 11.9495 15C11.641 14.9949 11.3369 14.9258 11.0565 14.7969C10.7761 14.6681 10.5256 14.4824 10.3208 14.2516C9.67547 13.4901 9.24506 12.5703 9.07393 11.587ZM11.9299 17.1599L9.86646 15.6936C9.94378 15.5474 9.98438 15.3846 9.98476 15.2192V14.9762C10.5216 15.4681 11.2215 15.7437 11.9495 15.75C12.5458 15.7528 13.1246 15.5496 13.5882 15.1746C13.7861 15.012 13.9709 14.834 14.1409 14.6423V15.2192C14.1416 15.3059 14.1543 15.3921 14.1787 15.4753L11.9299 17.1599ZM12.9372 20.764C12.9379 20.8005 12.9265 20.8361 12.9047 20.8654L12.8597 20.9079C12.8597 20.9079 12.403 21.4144 12.087 21.7689L11.1246 20.883L11.1046 20.8658C11.0759 20.8295 11.0616 20.7838 11.0647 20.7376L11.584 17.8344L11.7054 17.9207C11.7749 17.9748 11.8611 18.0028 11.9491 17.9998C12.0371 17.9968 12.1213 17.9631 12.187 17.9044L12.3002 17.8196L12.9372 20.764ZM19.3125 22.9913C19.3146 23.0576 19.2903 23.1221 19.245 23.1706C19.1997 23.219 19.137 23.2476 19.0707 23.25H4.9294C4.86307 23.2476 4.8004 23.219 4.75507 23.1706C4.70975 23.1221 4.68546 23.0576 4.68753 22.9913V19.1191C4.68753 18.8914 4.75418 18.5894 5.27035 18.2697L9.29014 16.1949C9.30694 16.2127 9.32543 16.2289 9.34536 16.2431L10.908 17.3539L10.3285 20.5953C10.3008 20.7501 10.3135 20.9094 10.3655 21.0578C10.4174 21.2062 10.5068 21.3387 10.6249 21.4424L11.7116 22.4427C11.8266 22.5427 11.9757 22.5943 12.1279 22.5867C12.28 22.5791 12.4233 22.5129 12.5277 22.402C12.7989 22.0959 13.3014 21.5382 13.3997 21.4288C13.5131 21.3252 13.5975 21.1938 13.6445 21.0475C13.6915 20.9013 13.6995 20.7453 13.6678 20.595L12.9606 17.3249L14.6316 16.0732C14.6755 16.1007 14.7213 16.1249 14.7688 16.1457L18.7277 18.2684C19.2166 18.5685 19.3125 18.808 19.3125 19.1191V22.9913Z" fill="#343E25"/>
</g>
<defs>
<clipPath id="clip0_224_4268">
<rect width="24" height="24" fill="white"/>
</clipPath>
</defs>
</svg>
