<svg width="40" height="40" viewBox="0 0 40 40" fill="none" xmlns="http://www.w3.org/2000/svg">
<circle cx="20" cy="20" r="20" fill="#2AA241"/>
<g clip-path="url(#clip0_498_12567)">
<path d="M16.2153 28.9465C15.9526 28.8376 15.7812 28.5813 15.7812 28.2969V26.1875H12.2656C11.8773 26.1875 11.5625 25.8727 11.5625 25.4844V17.0469C11.5625 16.6585 11.8773 16.3438 12.2656 16.3438H19.2969C19.6852 16.3438 20 16.6585 20 17.0469C20 17.4352 19.6852 17.75 19.2969 17.75H12.9688V24.7812H16.4844C16.8727 24.7812 17.1875 25.096 17.1875 25.4844V26.5994L18.7997 24.9872C18.9316 24.8553 19.1104 24.7812 19.2969 24.7812H27.0312V18.4531C27.0312 18.0648 27.346 17.75 27.7344 17.75C28.1227 17.75 28.4375 18.0648 28.4375 18.4531V25.4844C28.4375 25.8727 28.1227 26.1875 27.7344 26.1875H19.5881L16.9816 28.7941C16.7805 28.9951 16.478 29.0553 16.2153 28.9465Z" fill="white"/>
<path d="M20 23.375H15.0781C14.6898 23.375 14.375 23.0602 14.375 22.6719C14.375 22.2835 14.6898 21.9688 15.0781 21.9688H20C20.3883 21.9688 20.7031 22.2835 20.7031 22.6719C20.7031 23.0602 20.3883 23.375 20 23.375Z" fill="white"/>
<path d="M19.2969 20.5625H15.0781C14.6898 20.5625 14.375 20.2477 14.375 19.8594C14.375 19.471 14.6898 19.1562 15.0781 19.1562H19.2969C19.6852 19.1562 20 19.471 20 19.8594C20 20.2477 19.6852 20.5625 19.2969 20.5625Z" fill="white"/>
<path d="M23.5156 23.375C23.3291 23.375 23.1503 23.3009 23.0184 23.1691C21.9788 22.1294 21.4062 20.7471 21.4062 19.2769V13.1094C21.4062 11.9463 22.3525 11 23.5156 11C24.6787 11 25.625 11.9463 25.625 13.1094V19.2769C25.625 20.7471 25.0524 22.1294 24.0128 23.1691C23.881 23.3009 23.7021 23.375 23.5156 23.375ZM23.5156 12.4062C23.1279 12.4062 22.8125 12.7217 22.8125 13.1094V19.2769C22.8125 20.1081 23.0583 20.9017 23.5156 21.5744C23.9729 20.9017 24.2188 20.1081 24.2188 19.2769V13.1094C24.2188 12.7217 23.9034 12.4062 23.5156 12.4062Z" fill="white"/>
</g>
<defs>
<clipPath id="clip0_498_12567">
<rect width="18" height="18" fill="white" transform="translate(11 11)"/>
</clipPath>
</defs>
</svg>
